<?xml version="1.0" encoding="utf-8"?>
<!-- Generator: Adobe Illustrator 21.0.2, SVG Export Plug-In . SVG Version: 6.00 Build 0)  -->
<svg version="1.1" id="Layer_1" xmlns="http://www.w3.org/2000/svg" xmlns:xlink="http://www.w3.org/1999/xlink" x="0px" y="0px"
	 viewBox="0 0 144 144" style="enable-background:new 0 0 144 144;" xml:space="preserve">
<style type="text/css">
	.st0{clip-path:url(#SVGID_2_);}
	.st1{opacity:0.3;fill:#524F4F;enable-background:new    ;}
	.st2{fill:#2D4C56;}
	.st3{fill:#F6D2AE;}
	.st4{fill:#0C2633;}
	.st5{opacity:0.25;fill:#7B7C68;enable-background:new    ;}
	.st6{fill:#333E48;}
	.st7{fill:#F7A800;}
	.st8{fill:#63A70A;}
</style>
<g>
	<g>
		<path class="st7" d="M60.9,82c-1.3-0.9-2-2.4-2.4-3.9c-0.4-1.6-0.3-3.7,0-5.3h13.1c3.4,0,5.1-2.3,5.1-5.1c0-2.8-1.7-5.1-5.1-5.1
			H53.1c-4.8-3.6-10.8-4.4-15.3-3.9c-6.6,0.8-8.8,3-8.8,3v20.3c0,0,7.8,4,24.2,11.3c4.9,2.2,10.1,0,10.1,0L81,85L60.9,82z"/>
		<path class="st7" d="M14.9,64.2v19.9h10v-25H20C17.2,59.1,14.9,61.4,14.9,64.2z"/>
	</g>
	<g>
		<path class="st8" d="M64.6,77.9c0,0.2,0,0.5-0.1,0.7h18.3c-2-1.1-3.7-2.6-5-4.4c-1.6,1.3-3.8,2.1-6.1,2.1h-7.4
			C64.5,76.8,64.6,77.3,64.6,77.9z"/>
		<path class="st8" d="M60.5,59h11.2c1.3,0,2.5,0.2,3.6,0.7c1.1-3.5,3.4-6.5,6.4-8.5H64.6c0,0,0,0.1,0,0.1c0,2.1-1.7,3.9-3.9,3.9
			c-0.1,0-0.2,0-0.2,0V59z"/>
		<path class="st8" d="M116.9,51.3c0,0,0-0.1,0-0.1H99.8c4.3,2.9,7.2,7.8,7.2,13.4c0,6.1-3.3,11.3-8.3,14.1h18.3
			c0-0.2-0.1-0.5-0.1-0.7c0-2.1,1.7-3.9,3.9-3.9c0.1,0,0.2,0,0.2,0V55.1c-0.1,0-0.2,0-0.2,0C118.6,55.2,116.9,53.4,116.9,51.3z
			 M116.5,64.6c0,1.4-1.2,2.6-2.6,2.6c-1.4,0-2.6-1.2-2.6-2.6c0-1.4,1.2-2.6,2.6-2.6C115.3,62,116.5,63.1,116.5,64.6z"/>
		<path class="st8" d="M87.3,70.8c-0.1-0.2-0.2-0.3-0.3-0.5C87,70.1,87,70.1,87,70.1c0-0.2-0.5-0.4-1-0.4H84c-0.5,0-0.9,0.4-0.8,0.9
			c0,0,0.1,0.8,0.5,1.5c0.3,0.5,0.7,1,1.2,1.5c0.7,0.6,1.6,1.1,2.6,1.4c0.4,0.1,0.8,0.2,1.3,0.3V77c0,0.5,0.4,0.8,0.9,0.8h2.1
			c0.5,0,0.9-0.4,0.9-0.8v-1.7c1.4-0.2,2.7-0.8,3.7-1.6c0.6-0.5,1.2-1.1,1.5-1.8c0.4-0.7,0.5-1.5,0.5-2.2c0-0.9-0.3-1.8-0.8-2.7
			c-0.4-0.6-0.8-1.1-1.3-1.4c-0.7-0.6-1.6-1-2.4-1.4c-0.8-0.4-1.7-0.7-2.5-1c-1.1-0.4-2.1-0.8-2.9-1.2c-0.4-0.2-0.7-0.4-0.9-0.6
			c-0.2-0.2-0.4-0.3-0.4-0.4c-0.2-0.3-0.3-0.6-0.3-0.9c0-0.2,0.1-0.5,0.2-0.7c0.2-0.3,0.5-0.7,1-1c0.5-0.3,1.3-0.5,2.2-0.5
			c0.1,0,0.2,0,0.4,0c0.7,0,1.4,0.1,1.9,0.2c0.8,0.2,1.3,0.5,1.6,0.8c0.1,0.2,0.2,0.3,0.3,0.5c0.1,0.2,0.1,0.2,0.1,0.2
			c0,0.2,0.5,0.4,1,0.4h1.9c0.5,0,0.9-0.4,0.8-0.9c0,0-0.1-0.8-0.5-1.5c-0.3-0.6-0.7-1-1.2-1.5c-0.7-0.6-1.6-1.1-2.6-1.4
			c-0.4-0.1-0.8-0.2-1.3-0.3v-1.7c0-0.5-0.4-0.8-0.9-0.8h-2.1c-0.5,0-0.9,0.4-0.9,0.8v1.7c-1.4,0.2-2.7,0.8-3.7,1.6
			c-0.6,0.5-1.2,1.1-1.5,1.8c-0.4,0.7-0.5,1.5-0.5,2.2c0,0.9,0.3,1.8,0.8,2.7c0.4,0.6,0.8,1,1.3,1.4c0.7,0.6,1.6,1,2.4,1.4
			c0.8,0.4,1.7,0.7,2.5,1c1.1,0.4,2.1,0.8,2.9,1.2c0.4,0.2,0.7,0.4,0.9,0.6c0.2,0.2,0.4,0.3,0.4,0.4c0.2,0.3,0.3,0.6,0.3,0.9
			c0,0.2-0.1,0.5-0.2,0.7c-0.2,0.3-0.5,0.7-1,1c-0.5,0.3-1.3,0.5-2.2,0.5c-0.1,0-0.2,0-0.4,0c-0.7,0-1.4-0.1-1.9-0.2
			C88.1,71.4,87.6,71.1,87.3,70.8z"/>
		<path class="st8" d="M65.7,85H81h46.7V49.3c0-2.5-2-4.5-4.5-4.5H53.8v13.9c0.5,0.2,1,0.3,1.4,0.3h2.1V48.4h65c1.1,0,2,0.9,2,2V82
			H60.9L65.7,85z"/>
	</g>
</g>
</svg>
