<?xml version="1.0" encoding="utf-8"?>
<!-- Generator: Adobe Illustrator 19.0.1, SVG Export Plug-In . SVG Version: 6.00 Build 0)  -->
<svg version="1.1" id="Layer_1" xmlns="http://www.w3.org/2000/svg" xmlns:xlink="http://www.w3.org/1999/xlink" x="0px" y="0px"
	 viewBox="0 0 144 144" style="enable-background:new 0 0 144 144;" xml:space="preserve">
<style type="text/css">
	.st0{clip-path:url(#SVGID_2_);}
	.st1{opacity:0.4;fill:#524F4F;enable-background:new    ;}
	.st2{fill:url(#SVGID_3_);}
	.st3{opacity:0.3;fill:url(#SVGID_4_);enable-background:new    ;}
	.st4{fill:url(#SVGID_5_);}
	.st5{opacity:0.3;fill:url(#SVGID_6_);enable-background:new    ;}
	.st6{opacity:0.2;fill:url(#SVGID_7_);enable-background:new    ;}
	.st7{fill:#131313;}
	.st8{fill:url(#SVGID_8_);}
	.st9{fill:url(#SVGID_9_);}
	.st10{clip-path:url(#SVGID_11_);}
	.st11{opacity:0.25;fill:#7B7C68;enable-background:new    ;}
	.st12{fill:#F5F6F7;}
	.st13{fill:#D1D5D7;}
	.st14{fill:#AAB5BE;}
	.st15{fill:#364A5E;}
	.st16{fill:#C4D600;}
	.st17{fill:#63A70A;}
</style>
<g>
	<g>
		<defs>
			<rect id="SVGID_1_" x="-1.4" y="-324.1" width="149.6" height="146.6"/>
		</defs>
		<clipPath id="SVGID_2_">
			<use xlink:href="#SVGID_1_"  style="overflow:visible;"/>
		</clipPath>
		<g class="st0">
			<g id="man_blue_shirt">
				<path id="shadow_beneath_5_" class="st1" d="M112.8,51.9c0,2.2-9.1,3.8-16.7,3.4C86.7,54.9,77.9,54,67.6,54
					c-12.2,0-20.5,8.4-33.7,4.6c-6.9-2-6.8-7.2,0.3-11.6c6.5-4.1,16-4.3,31-4.5C90.6,42,112.8,47.9,112.8,51.9z"/>
				<g id="shoes_7_">
					<g>
						
							<linearGradient id="SVGID_3_" gradientUnits="userSpaceOnUse" x1="1490.4786" y1="97.268" x2="1490.3748" y2="86.3583" gradientTransform="matrix(-1 0 0 -1 1532.2858 144)">
							<stop  offset="0" style="stop-color:#7A2D17"/>
							<stop  offset="1" style="stop-color:#41180C"/>
						</linearGradient>
						<path class="st2" d="M51,51.3c-0.8-2.6-3.3-8.7-3-10.1l-13.4-0.3c0.3,4.6-1.7,9.5-1.9,11.2c-0.1,0.6,2.8,3.2,3.4,3.4
							c1.5,0.6,3.5,1.2,5.5,1.2c1.8,0,6-0.7,6.5-1.2C49,54.6,51.2,52.1,51,51.3z"/>
						
							<linearGradient id="SVGID_4_" gradientUnits="userSpaceOnUse" x1="1490.4288" y1="97.2675" x2="1490.325" y2="86.3577" gradientTransform="matrix(-1 0 0 -1 1532.2858 144)">
							<stop  offset="0" style="stop-color:#7A2D17"/>
							<stop  offset="1" style="stop-color:#41180C"/>
						</linearGradient>
						<path class="st3" d="M32.7,52.1c-0.1,0.6,2.8,3.2,3.4,3.4c1.5,0.6,3.5,1.2,5.5,1.2c1.8,0,6-0.7,6.5-1.2c0.9-0.9,3.2-3.4,3-4.2
							c-0.8-2.6-3.3-8.7-3-10.1l-13.4-0.3C34.9,45.5,32.9,50.4,32.7,52.1z M39.4,47.8c-0.5,0,7.1,2.4,7.4,2.7L44.3,53
							c-0.4,0.2-4.7-0.9-4.7-0.9c-0.9,0-3.3,0.4-3.7,0.2s-0.2-3-0.2-3S39.9,47.8,39.4,47.8z"/>
					</g>
					<g>
						
							<linearGradient id="SVGID_5_" gradientUnits="userSpaceOnUse" x1="97.3175" y1="99.9408" x2="88.2151" y2="90.8384" gradientTransform="matrix(1 0 0 -1 2 144)">
							<stop  offset="0" style="stop-color:#7A2D17"/>
							<stop  offset="1" style="stop-color:#41180C"/>
						</linearGradient>
						<path class="st4" d="M94.5,36.6l-16.2,9.3c2.7,2.2,20,6.7,20.7,7c1.1,0.4,10.1-0.1,11.7-1.1c0.7-0.4,1.4-2.1,0.4-2.5
							C107.2,47.4,97.9,45.5,94.5,36.6z"/>
						
							<linearGradient id="SVGID_6_" gradientUnits="userSpaceOnUse" x1="78.3" y1="99.281" x2="111.6568" y2="99.281" gradientTransform="matrix(1 0 0 -1 0 144)">
							<stop  offset="0" style="stop-color:#7A2D17"/>
							<stop  offset="1" style="stop-color:#41180C"/>
						</linearGradient>
						<path class="st5" d="M111.2,49.3c-0.6-0.3-1.4-0.6-2.3-1v0.1c0,0.5-0.4,0.9-0.7,1.4c-0.6,0.9-10.2,1.2-11.1,0.6
							c-1.6-1-3.5-1.7-4.9-2.9c-0.8-0.6-1.1-1-0.6-1.8c0.4-0.7,4.8-3.1,6.2-4l0,0c-1.3-1.4-2.5-3.1-3.3-5.2l-16.2,9.3
							c2.7,2.2,20,6.7,20.7,7c1.1,0.4,10.1-0.1,11.7-1.1C111.5,51.4,112.2,49.7,111.2,49.3z"/>
						
							<linearGradient id="SVGID_7_" gradientUnits="userSpaceOnUse" x1="93.1243" y1="98.2" x2="105.6922" y2="98.2" gradientTransform="matrix(1 0 0 -1 2 144)">
							<stop  offset="0" style="stop-color:#7A2D17"/>
							<stop  offset="1" style="stop-color:#41180C"/>
						</linearGradient>
						<path class="st6" d="M98.4,42.4c-1.1,0.7-2.7,1.7-3.2,2.7c-0.7,1.7,2.8,2.7,3.8,3.4c1.4,0.5,3.3,0.7,4.8,0.7
							c0.6,0,3.2-0.2,3.7-1c0.1-0.1,0.2-0.3,0.2-0.4C104.8,46.7,101.3,45.2,98.4,42.4z"/>
					</g>
				</g>
				<g id="pants_2_">
					<path id="pants_4_" class="st7" d="M96.7,34.1l1.1-2.5L96.3,28c-1-4.5,0.2-46.3,2.7-68.9c1.7-14.6,9.5-59.9,9.5-59.9
						c0.9-4.9-4.6-27-4.6-27l-61.3-0.8c0,0-3.5,19.7-6.1,26.5l1.8,6.6c0,3.4-2.1,55.4-2.1,55.4c-2,31.3-6.8,79.5-6.6,81.2l4,7
						l6.6-1.6c0,0,9.9,3.1,10.5,2.4l1.8-4.7c-0.2-0.6-1.8-2.8-1.8-2.8C50.9,41,53,40,53,40C59.6-64,71.9-95.9,72-96.2l2-1.3
						c3.5,0.4,2.8,56,2.6,60.3c-2.6,51.3-2,78.9-2,78.9l3.5,4.3c2,0,14.8-0.1,20.2-5c0,0,0.8-4.5,0.8-5.2
						C99,35.7,96.7,34.1,96.7,34.1z"/>
					<g id="shadows_6_">
						<g>
							
								<linearGradient id="SVGID_8_" gradientUnits="userSpaceOnUse" x1="40.4" y1="183.7066" x2="75.9" y2="183.7066" gradientTransform="matrix(1 0 0 -1 0 144)">
								<stop  offset="0.1944" style="stop-color:#010101"/>
								<stop  offset="1" style="stop-color:#FFFFFF"/>
							</linearGradient>
							<path class="st8" d="M56.2-128.4C54.1-71.9,52-66.5,41.1,40l5.2,1.4l-5.5,1.5c0,0-0.4,3.3-0.4,3.6l0,0
								c1.1,0.3,9.8,3,10.4,2.4l1.8-4.7c-0.2-0.6-1.8-2.8-1.8-2.8C50.9,41,53,40,53,40C59.6-64,71.9-95.9,72-96.2l2-1.3
								c0,0,0.7-17.3,1.9-30.7L56.2-128.4z"/>
							
								<linearGradient id="SVGID_9_" gradientUnits="userSpaceOnUse" x1="87.5642" y1="186.2" x2="108.5906" y2="186.2" gradientTransform="matrix(1 0 0 -1 0 144)">
								<stop  offset="0.1972" style="stop-color:#010101"/>
								<stop  offset="1" style="stop-color:#FFFFFF"/>
							</linearGradient>
							<path class="st9" d="M108.5-100.8c0.9-4.9-4.6-27-4.6-27l-10.1-0.1l0,0c1.2,15.2-1.2,86.2-1,90.7L91.7-6.1
								c0.1,1.6-1.3,28.8-0.3,40.6l-3.8,3.9h5.5c0,0,0.6,3.1,1.1,5.1c1.5-0.6,2.9-1.4,4-2.4c0,0,0.8-4.5,0.8-5.2
								c0-0.3-2.3-1.9-2.3-1.9l1.1-2.5L96.3,28c-1-4.5,0.2-46.3,2.7-68.9C100.7-55.5,108.5-100.8,108.5-100.8z"/>
						</g>
					</g>
				</g>
			</g>
		</g>
	</g>
</g>
<g>
	<g>
		<defs>
			<rect id="SVGID_10_" x="158.8" y="-324.2" width="150.2" height="147.8"/>
		</defs>
		<clipPath id="SVGID_11_">
			<use xlink:href="#SVGID_10_"  style="overflow:visible;"/>
		</clipPath>
		<g class="st10">
			<g>
				<g id="black_hair_girl">
					<ellipse id="shadow_beneath_girl_1_" class="st11" cx="181.7" cy="65.9" rx="47.8" ry="7.6"/>
				</g>
			</g>
		</g>
	</g>
</g>
<g>
	<g>
		<g>
			<path class="st12" d="M34.2,118.1c-4.6,0-8.3-3.7-8.3-8.3v-91c0-0.5,0.4-1,1-1h62.3c4.6,0,8.3,3.7,8.3,8.3v91c0,0.5-0.4,1-1,1
				C96.5,118.1,34.2,118.1,34.2,118.1z"/>
			<path class="st13" d="M89.2,18.8c4,0,7.3,3.3,7.3,7.3v91H34.2c-4,0-7.3-3.3-7.3-7.3v-91L89.2,18.8 M89.2,16.9H26.8
				c-1.1,0-1.9,0.9-1.9,1.9v91c0,5.1,4.1,9.2,9.2,9.2h62.3c1.1,0,1.9-0.9,1.9-1.9v-91C98.4,21,94.3,16.9,89.2,16.9L89.2,16.9z"/>
		</g>
		<g>
			<g>
				<g>
					<rect x="33.5" y="60.1" class="st14" width="56.4" height="1.8"/>
					<rect x="33.5" y="56" class="st14" width="56.4" height="1.8"/>
					<rect x="33.5" y="52" class="st14" width="56.4" height="1.8"/>
					<rect x="33.5" y="72.1" class="st14" width="56.4" height="1.8"/>
					<rect x="33.5" y="68.1" class="st14" width="56.4" height="1.8"/>
					<rect x="33.5" y="64" class="st14" width="56.4" height="1.8"/>
					<rect x="33.5" y="47.9" class="st14" width="56.4" height="1.8"/>
					<rect x="33.5" y="43.9" class="st14" width="56.4" height="1.8"/>
					<rect x="33.5" y="39.8" class="st14" width="56.4" height="1.8"/>
					<rect x="33.5" y="35.8" class="st14" width="56.4" height="1.8"/>
					<rect x="44.3" y="27.9" class="st15" width="34.8" height="1.8"/>
				</g>
			</g>
			<g>
				<g>
					<rect x="33.5" y="104.3" class="st14" width="28.2" height="1.8"/>
					<rect x="33.5" y="100.3" class="st14" width="28.4" height="1.8"/>
					<rect x="33.5" y="96.2" class="st14" width="28.4" height="1.8"/>
					<rect x="33.5" y="92.2" class="st14" width="28.4" height="1.8"/>
					<rect x="33.5" y="88.1" class="st14" width="28.4" height="1.8"/>
					<rect x="33.5" y="84.1" class="st14" width="28.4" height="1.8"/>
					<rect x="33.5" y="80" class="st14" width="28.4" height="1.8"/>
					<rect x="33.5" y="76" class="st14" width="56.4" height="1.8"/>
				</g>
			</g>
		</g>
	</g>
	<g>
		<rect x="64.9" y="80.3" class="st16" width="48.2" height="27.9"/>
		<path class="st17" d="M89,85.5c-4.2,0-7.6,3.9-7.6,8.8s3.4,8.8,7.6,8.8s7.6-3.9,7.6-8.8C96.5,89.4,93.1,85.5,89,85.5z M89.4,98.7
			v1.1h-0.8v-1.1c-1.3-0.1-2.3-0.6-2.9-1.3l0.6-0.8c0.5,0.6,1.3,1.1,2.3,1.2v-3.1c-1.3-0.4-2.6-0.8-2.6-2.4c0-1.3,1.1-2.2,2.6-2.4
			v-1.2h0.8v1.2c1.1,0.1,1.9,0.5,2.5,1.2l-0.6,0.8c-0.5-0.6-1.2-0.9-1.9-1v2.8c1.3,0.4,2.7,0.9,2.7,2.5
			C92.2,97.3,91.4,98.5,89.4,98.7z M91.1,96.3c0,0.6-0.4,1.3-1.6,1.5v-2.9C90.3,95.1,91.1,95.4,91.1,96.3z M88.7,90.9v2.6
			c-0.9-0.2-1.5-0.6-1.5-1.3C87.1,91.5,87.8,90.9,88.7,90.9z"/>
		<path class="st17" d="M73,106.8h32h6.7v-6.7V88.4v-6.7H105H73h-6.7v6.7v11.7v6.7H73z M67.8,88.6c1.3-0.1,2.6-0.7,3.6-1.7
			s1.6-2.4,1.7-3.6h31.7c0.1,1.3,0.7,2.6,1.7,3.6s2.3,1.7,3.6,1.7V100c-1.3,0.1-2.6,0.7-3.6,1.7s-1.6,2.4-1.7,3.6H73.1
			c-0.1-1.3-0.7-2.6-1.7-3.6s-2.3-1.6-3.6-1.7L67.8,88.6z"/>
	</g>
</g>
</svg>
