<?xml version="1.0" encoding="utf-8"?>
<!-- Generator: Adobe Illustrator 19.1.0, SVG Export Plug-In . SVG Version: 6.00 Build 0)  -->
<svg version="1.1" baseProfile="basic" id="Layer_1"
	 xmlns="http://www.w3.org/2000/svg" xmlns:xlink="http://www.w3.org/1999/xlink" x="0px" y="0px" viewBox="0 0 144 144"
	 xml:space="preserve">
<g>
	<defs>
		<rect id="SVGID_3_" x="3.7" y="-2" width="139.1" height="145.7"/>
	</defs>
	<clipPath id="SVGID_2_">
		<use xlink:href="#SVGID_3_"  overflow="visible"/>
	</clipPath>
	<g clip-path="url(#SVGID_2_)">
		<g id="guy_in_green_1_">
			<g id="head_5_">
				<g id="neck_10_">
					<path fill="#F8A063" d="M67.4,68.1c-4.1,0.1-25.6,0.6-25.6,0.6c1.4,14.4-2.1,23.5-2.1,23.5c0.2,0.6,13.9,19.7,13.5,19.6
						l18.1-20.3C68.6,87.1,67.6,72.3,67.4,68.1z"/>
					<path opacity="0.5" fill="#EB9154" d="M67.8,74.4c-0.2-2.7-0.4-5-0.4-6.3c-4.1,0.1-25.6,0.6-25.6,0.6
						c1.4,14.4-2.1,23.5-2.1,23.5c0.2,0.6,13.9,19.7,13.5,19.6l1.7-1.9c-4.7-5.5-7.4-12.7-7.8-14.8C45.8,87.5,62.3,78.4,67.8,74.4z"
						/>
				</g>
				<g id="ears_3_">
					<g>
						<path fill="#F8A063" d="M75.2,42.5c-2.2-1.2-4.7,1.2-4.7,1.2l0.6,12.8C75.3,55.9,79.9,47.4,75.2,42.5z"/>
						<path opacity="0.3" fill="#F29E64" d="M75.7,46.9c0-1-0.6-2.8-1.9-1.8c-0.9,0.7-1,2.3-1.4,3.4l0.1,1.2
							c0.2-0.8,1.2-2.8,2.2-2.6c0.6,2.1-0.3,5.6-2.2,6.8C74.7,52.8,75.8,49.3,75.7,46.9z"/>
					</g>
					<g>
						<path fill="#F8A063" d="M33.5,42.3c2.2-1.1,4.6,1.3,4.6,1.3l-0.9,12.1C33.2,55.8,29.1,45.5,33.5,42.3z"/>
						<path opacity="0.3" fill="#F29E64" d="M32.8,46.2c0.1-1,0.7-2.7,1.9-1.8c0.9,0.7,1,2.4,1.4,3.4L35.9,49
							c-0.2-0.8-1.1-2.9-2.2-2.7c-0.6,2.1,0.2,5.6,2.1,6.9C33.7,52.1,32.7,48.6,32.8,46.2z"/>
					</g>
				</g>
				<g id="face_13_">
					<path id="face_19_" fill="#F8A063" d="M69.8,32.5C55,20.3,38.5,30.8,38.5,30.8c-0.2,5-1.3,14.5-2,23C36.3,59.9,37.6,68.5,38,70
						c0.8,3.3,13.9,10.1,15.4,10.3c2.6,0.3,14.1-5.8,16.1-8.9C72.8,66.4,70.2,36.6,69.8,32.5z"/>
					<path id="shadow_on_face_1_" opacity="0.3" fill="#EB9154" d="M53.4,80.2c-1.5-0.2-14.5-7-15.4-10.3
						c-0.8-2.6-1.7-10.1-1.4-16.2c0.7-8.5,1.7-18,2-23c0,0,11.2-7.1,23.4-2.8c1.7,1.9,3.7,3.6,5.9,4.7c-6.3-1.7-13.4,2.8-17.2,3.2
						c-1.2,3.6,0.2,9.5,0.2,10.4c0.2,4.6-2.1,12.3-1.8,14.6c0.5,1.4,3.1,3,3.1,3C52,64.3,50.1,72.6,53.4,80.2z"/>
					<g id="smile_5_" opacity="0.8">
						<path fill="#F8A063" d="M60.1,66.6c0.3,3.3-12,1.6-13.7,1.7c0,0-0.8,0.1-0.1,0.6c6.3,0.9,10.1,0.8,13.7-0.3
							C60.5,68.3,60.4,67.5,60.1,66.6z"/>
					</g>
					<g id="nose_11_">
						<path opacity="0.8" fill="#EB9154" d="M50.5,47.6c-0.5,7.2-2.6,13.1-2.2,13.7c0.5,0.8,3.4,2.6,4.1,2.7c1.5,0,4-1.9,4.1-3.2
							C56,61.7,54,63.1,52.4,63c-0.9-0.1-2.3-0.7-3.3-1.6c-0.6-0.9,1-4.5,1.7-14c0-0.6,0-0.4-0.3-2.7"/>
					</g>
					<g id="eyes_10_">
						<g>
							<path opacity="0.5" fill="#EB9154" d="M66.9,42.4c-0.8-2-10.4,0.6-10.4,0.6c-0.6,1-0.5,5.7,1,6.8c2.5,1.9,7.2,0.8,9-1.5
								C67.8,46.6,67.4,43.5,66.9,42.4z"/>
							<g>
								<path fill="#FFFFFF" d="M64.6,47.7c-0.6-1-2.2-1.6-3.4-1.5c-1.5,0.1-2.8,1.3-3.5,2.2l0.1,1C58.5,51.4,66,50,64.6,47.7z"/>
								<g>
									<path fill="#531D0B" d="M62.5,47.9c-0.1,0.7-0.7,1.3-1.4,1.2c-0.7-0.1-1.3-0.7-1.2-1.4c0.1-0.7,0.7-1.3,1.4-1.2
										C62.1,46.5,62.6,47.1,62.5,47.9z"/>
								</g>
								<path fill="#531D0B" d="M64.7,47.8c-0.6-1.3-2.5-1.8-3.7-1.7c-1.5,0.1-2.5,1-3.2,1.9l0,0.4C60.8,46,63.1,47,64.7,47.8z"/>
							</g>
							<path fill="#38180E" d="M66.6,41.7c-0.7-0.9-3.8-1.3-5-1.2c0,0-4.2,0.8-4.9,1.6c-0.7,0.8-0.6,2.3,0.3,2.4
								c1,0.1,3.3-0.6,4.8-1.1c0.8-0.2,4.9,0.5,4.9,0.5C67.4,43.5,66.9,42.2,66.6,41.7z"/>
						</g>
						<g>
							<path opacity="0.5" fill="#EB9154" d="M49.2,42.9c-0.7-2.2-10.2,0.9-10.2,1.9c0,2.8,1.1,4.7,2.7,5.6c1.1,0.6,5.4,1.4,7.4-1.3
								C49.9,47.5,49.5,44,49.2,42.9z"/>
							<g>
								<path fill="#FFFFFF" d="M48.3,48.7c-0.4-1.7-2.5-2-3.9-2c-1.2,0-3.3,1.1-3.1,2.6c0.6,2,6,1.9,6.9,0.3L48.3,48.7z"/>
								<g>
									<circle fill="#531D0B" cx="45.2" cy="48.3" r="1.3"/>
								</g>
								<path fill="#531D0B" d="M41.2,48.9c0.1-1.6,2.1-2.3,3.3-2.4c1.5-0.1,2.8,0.5,3.6,1.4l0.1,0.4C44.8,46.3,42.2,47.5,41.2,48.9
									z"/>
							</g>
							<path fill="#38180E" d="M38.9,43.4c0.1-1.1,3.5-2.4,4.7-2.5c0,0,4.2,0.4,5,1c0.8,0.7,0.8,2.2,0,2.4c-1,0.3-3.3-0.3-4.9-0.5
								c-0.8-0.1-4.7,1.2-4.7,1.2C38.7,44.9,38.8,43.8,38.9,43.4z"/>
						</g>
					</g>
				</g>
				<g id="hair_9_">
					<path fill="#38180E" d="M75.1,23.6c-6.9,1.7-29.9-13-39,1.4c0.8,0.8,3.1,0.6-2.2,4c-1,2.3,0.2,10,0.6,13.1
						c2,0.5,2.4,7.3,2.4,7.3c0.2-2.4,1.3-11.8,2-15.2c1.7-0.2,3-1.1,4.7-0.9c0.1,0.1-0.1,0.5-0.3,0.4c7.9,4.7,16.7-2.5,24.4-0.2
						c2.5,4.2,3.4,17.6,3.7,18.7c0.4-3.3,0.5-9.2,2.9-9.8c0.6-0.1,1.7-12.8,1.9-14.4C74,27.4,74.4,24.1,75.1,23.6z"/>
					<path opacity="0.3" fill="#38180E" d="M76.2,28c0,0-0.1,0-0.1,0c-0.5,1.7-0.9,4-1.8,4.2c0-0.1,0.5-2.8,0.6-2.9
						c-0.6,2.9-3.2,5.1-4,3.7c-0.5-0.9,2.4-4.6,3.2-5.3c-4.1,3-21.5,6.8-25,4.1c-1.2-1,2.7-3.7,4.9-4.8c-4.4,1.6-10.3,4.2-11.6,3.1
						c-0.9-0.8,0-1.8,0.6-2.4c2.7-2.7,7.1-4.6,12.2-3.8c-8-2.4-13.8,2.8-15.2,1.9c-2-1.3,0.4-3.9,1.7-4.8c3.7-2.3,9.3-2.3,12.6-1.9
						C47.3,18,40.2,18.5,36.1,25c0.8,0.8,3.1,0.6-2.2,4c-1,2.3,0.2,10,0.6,13.1c2,0.5,2.4,7.3,2.4,7.3c0.2-2.4,1.3-11.8,2-15.2
						c1.7-0.2,3-1.1,4.7-0.9c0.1,0.1-0.1,0.5-0.3,0.4c7.9,4.7,16.7-2.5,24.4-0.2c2.5,4.2,3.4,17.6,3.7,18.7c0.4-3.3,0.5-9.2,2.9-9.8
						C75,42.2,76.1,29.6,76.2,28z"/>
				</g>
				<path id="glasses_2_" fill="#333E48" d="M70.2,45.1c0,0-11.5-0.2-14.8,0.6c-0.7,0.2-1,0.9-2.8,0.9c-1.8,0-2.1-0.7-2.8-0.9
					c-3.3-0.8-14.8-0.5-14.8-0.5c0,0.5,0,1.7,0.1,1.8c0.6,0.5,0.9,1,1,1.5c0.1,0.7,0.5,3.3,1.2,3.8c1.8,1.3,10.2,1.4,11.4,0.8
					c1.2-0.7,2.2-4.1,2.9-4.7c0.3-0.3,0.9-0.3,1.1-0.3c0.2,0,0.8,0,1.1,0.3c0.7,0.6,1.7,4,3,4.7c1.1,0.7,9.5,0.5,11.3-0.8
					c0.7-0.5,1-3.1,1.2-3.8c0.1-0.6,0.4-1.1,1-1.5l2.8-3l1.2-1.7L70.2,45.1z M47.5,52.4c-2.8,0.7-9.4-0.2-9.9-0.9
					c-0.7-1-1-4.6-0.1-5.2c0.2-0.1,10.7-0.6,11.8,0.7C50.6,48.5,48.4,52.1,47.5,52.4z M67.4,51.4c-0.5,0.7-7.1,1.7-9.8,0.9
					c-1-0.3-3.1-3.9-1.9-5.3c1.1-1.3,11.6-1,11.8-0.8C68.4,46.8,68.1,50.4,67.4,51.4z"/>
			</g>
			<g id="shirt_and_sweater_1_">
				<polygon id="shirt_3_" fill="#C3C6C8" points="68.2,95.5 53.7,109 38.4,95.7 29.5,95.3 54.3,128.8 77.3,91.6 				"/>
				<g id="sweater_2_">
					<path id="sweater_3_" fill="#333E48" d="M108,161.8c-0.9-12.8-5.2-50.9-10.4-57c-1.9-2.3-9.3-6.4-15-9.9
						c-3.1-1.9-5.9-3.7-7.5-4.8c-0.8-1.1-1.6-2.3-2.2-3.5c-1.9,10.7-7.4,24.5-18.8,24.5c-11.4,0-18.9-16.6-18.2-21.9l-3.4,3.2
						c-1.2,0.9-2.8,1.9-4.6,3.1c-4.6,3.1-11.1,6.8-13.3,9.4c-5.2,6.1-9.1,45.1-10,57.9c-0.6,3.5,10,40.3,12.2,44.1
						c0.3,0.5,3.4,0.7,3.7,0.4c3.8-4.6,7.1-10.9,7.1-10.9c1.2-1.7,1.3-3.3,0.7-5.7c4.8,2.5,31.9,10,55.6,0c-0.6,2.4-0.5,3.9,0.7,5.7
						c0,0,3.2,6.4,7,11c0.2,0.3,4,0,4.3-0.5C99.1,201.9,108,166.2,108,161.8z M22,169.1c-0.6-3.2,0.3-4.5,0.2-5.1
						c-0.1-0.4-1.1-1-1.1-1.3c-0.1-0.4,0.9-1,0.9-1.6c0-0.3-1.1-0.9-1.2-1.3c-0.1-0.4-0.1-0.9-0.1-1.5c0.7-3.8,1.8-12.3,2.9-18.3
						c0.3,6.7,1.7,17.7,1.7,21.8c0,6.4-0.2,15.1,0.1,20.3c-1.1-3.2-2.1-8.1-2.9-11C22.3,170.4,22.2,169.7,22,169.1z M91.4,159.8
						c-0.1,0.4-1.2,1-1.2,1.3c0,0.6,1,1.2,0.9,1.6c-0.1,0.3-1.1,0.9-1.1,1.3c-0.1,0.6,0.9,1.9,0.2,5.1c-0.1,0.6-0.3,1.3-0.4,1.9
						c-0.8,2.6-1.6,7.2-2.6,10.2c-0.3-7.1-1.3-18.4-1.4-20.8c-0.1-6.3,1.2-18.7,1.7-26.4c1.3,6.7,3.1,19.1,4,24.3
						C91.5,158.9,91.5,159.4,91.4,159.8z"/>
					<path id="collar_rim_1_" opacity="0.7" fill="#5C6670" d="M77.3,91.6L77.3,91.6c-0.9-0.6-1.6-1.1-2.2-1.5
						c-0.8-1.1-1.6-2.3-2.2-3.5c-1.9,10.7-7.4,24.5-18.8,24.5c-11.4,0-18.9-16.6-18.2-21.9l-3.4,3.2c-0.2,0.1-0.3,0.2-0.5,0.4
						c0.1,1.2,5.8,22,22.1,22C70.5,114.8,77,92.3,77.3,91.6z"/>
					<g id="shadows_11_">
						<g>
							<path opacity="0.4" fill="#5C6670" d="M59.8,106c2.8,2.7,5.8,12.3,5.8,13.3c3.7-5.5,11.2-18.1,14-26.3c0,0-9.6,13.8-19.9,11
								c-2.1,2.1-5.9,5-5.9,5S59.6,105.8,59.8,106z"/>
							<path opacity="0.4" fill="#5C6670" d="M42.4,119.7c0.2-3.9,3.5-11.7,5.5-13.6c0.9,0.1,4.8,2.6,5.8,2.9
								c-0.7-0.1-10.7-7.9-10.7-7.9c-5.1,6.9-11.5-8.2-12-7.8c0,0,0,0,0,0C32,99.4,41.6,117.1,42.4,119.7z"/>
						</g>
						<path opacity="0.4" fill="#333E48" d="M45.4,194.9c-6.4-1.5-11.8-3.6-14.2-6.6c-1.2-1.4-3.8-10.5-2.9-10.8
							c2.7,2.3,10.8,6.5,14.4,9.7c-3.4-4.3-16.9-9.2-15.4-29.6c3.6,2,7.8,6.2,9.5,7.1c-2.9-2.8-10.5-9.3-12.6-31
							c-0.8-8.2-2.1-12.4-3.1-28.3h-0.8c0.3,2.9,0.6,16.9,1.7,27.8c-0.3,5.4-1.2,21.8-3.6,27.2c-2.5,1.2-6,3.4-7.3,5.9
							c1.9-1.6,4.7-3.3,7.3-3.7c-2.1,1.6-3.2,4-4.1,5.8c2.9-3.2,5.4-5.5,5.4-4c0,4.4,3.9,13.2,6.2,20.6c1.3,4.2,2.4,7,2.3,8.9
							c-0.1,1.1-0.5,2.4-0.5,2.4c1.2-1.7,1.3-3.3,0.7-5.7C30.4,191.7,36.8,193.8,45.4,194.9C45.4,194.9,45.4,194.9,45.4,194.9z
							 M22.4,171c-0.1-0.7-0.3-1.3-0.4-1.9c-0.6-3.2,0.3-4.5,0.2-5.1c-0.1-0.4-0.9-0.9-1.1-1.2c-0.1,0-0.1-0.1,0-0.1
							c-0.1-0.4,0.9-1,0.9-1.6c0-0.3-1.1-0.9-1.2-1.3c-0.1-0.4-0.1-0.9-0.1-1.5c0.7-3.8,1.8-12.3,2.9-18.3
							c0.3,6.7,1.7,17.7,1.7,21.8c0,6.4-0.2,15.1,0.1,20.3C24.3,178.8,23.3,173.9,22.4,171z"/>
						<path opacity="0.4" fill="#333E48" d="M97.1,169.5c-1-2.5-4.1-4.9-4.9-6.9c3.3,1.7,5.9,4.2,7.7,5c-2.6-3.4-6.2-5.4-6.8-8.8
							c-1.3-6.7-2.9-20-4.4-26c-2.9-11.3,1.6-28.5,1.5-28.1l-0.5-0.3c-4.1,12.9-5,38.9-6.6,42.6c-1.1,2.7-5.5,9.5-7.9,11.4
							c1.5-0.5,8.1-7.5,8.1-7.5c0.7,6.7-7.4,17.6-13.9,23.7c6.6-4.7,14.6-13.4,14.5-6.1c-0.1,8.8,0.9,19.7-6.7,24.4
							c2.2-0.6,4.5-1.4,6.7-2.4c-0.6,2.2-0.5,3.7,0.5,5.3c-1.5-3.2,1-7.6,2.5-12.5c2.1-6.9,4.4-13.7,5.3-16.2
							C93,167.6,94.9,167.3,97.1,169.5z M91.4,159.8c-0.1,0.4-1.2,1-1.2,1.3c0,0.6,1,1.2,0.9,1.6c-0.1,0.3-1.1,0.9-1.1,1.3
							c-0.1,0.6,0.9,1.9,0.2,5.1c-0.1,0.6-0.3,1.3-0.4,1.9c-0.8,2.6-1.6,7.2-2.6,10.2c-0.3-7.1-1.3-18.4-1.4-20.8
							c-0.1-6.3,1.2-18.7,1.7-26.4c1.3,6.7,3.1,19.1,4,24.3C91.5,158.9,91.5,159.4,91.4,159.8z"/>
					</g>
				</g>
				<g id="shirt_collar_1_">
					<g>
						<path fill="#FFFFFF" d="M37.8,84.5c0.9-1,3.9-1.4,3.9-1.4c-0.2,2.1-1,5.7-1.2,6.3c-0.7,5.1,7.1,14.8,13.2,19.6
							c-0.6-0.3-5.5-4-6-4.2c-2.6,2.7-4.7,7.8-5.5,11c-2.5-4.7-7.8-13.1-11.1-23.3C33.5,89.7,35.8,86.6,37.8,84.5z"/>
						<path fill="#C3C6C8" d="M48.4,104L48.4,104c-4.5-4.9-8.3-10.8-7.9-14.5c0.1-0.5,0.8-3.1,1-5.2l-2.6,2
							C38.9,86.3,37.6,94.3,48.4,104z"/>
					</g>
					<g>
						<path fill="#FFFFFF" d="M71.9,83.8c-0.6-0.4-3.1-1.4-3.1-1.4c0.3,2.6,1.1,5.7,1.3,6.3c0.3,4.4-10,14.2-16.4,20.4l6.4-4.6
							c2.6,2.7,5.1,7.6,5.9,10.7c5-7.1,10-14.2,13.7-22.8C77.1,89.6,72.4,84.1,71.9,83.8z"/>
						<path opacity="0.7" fill="#C3C6C8" d="M71.5,85.1l-2.6-2.2c0,0,0,0,0,0v0c0.3,2.5,1,5.3,1.3,5.8c0.2,2.9-4.2,8.1-9,13.1l0,0
							C74,90.5,71.5,85.1,71.5,85.1z"/>
					</g>
				</g>
			</g>
		</g>
		<g id="black_hair_girl_1_">
			<path id="hair_22_" d="M104.2,38.5c14.3,0.4,32.1,10.5,20.3,68.4c-0.8,4-38.5,3-40.1-2.4C73.2,68,82,37.9,104.2,38.5z"/>
			<g id="neck_9_">
				<path fill="#EEB37D" d="M90.4,101.8c10.5-1.5,9.5-17.3,7.8-25.3c0,0,12.8,0.4,12.9,0.5c-1,6.3-4.2,23.8,4.9,24.8
					C118.8,111.8,93.5,119.8,90.4,101.8z"/>
				<path opacity="0.5" fill="#ED8449" d="M98.2,76.5c0,0,12.8,0.4,12.9,0.5c-0.5,3-1.4,8.4-1.4,13.5c-2.7,3.2-8.4,5.2-12.5,6.2
					C100.2,90.9,99.3,81.9,98.2,76.5z"/>
			</g>
			<g id="blouse_5_">
				<path id="blouse_4_" fill="#004D71" d="M76.8,104.6c5.3-3.3,7.8-1.2,13.6-2.8c2.5,3.8,18.1,4.7,25.6,0c5.3,2,12.2,0.4,15.9,2.7
					c3.7,2.3,4.5,3,6.4,16.9c1.1,7.7,0.5,19.5,3.3,30.6c0.5,1.9,1.8,5,3.1,8.8c2.4,6.7,4.4,28.5,5.2,38.8c0,0.4,0.1,0.9,0.1,1
					c-4.2,0.5-5.8-1.9-5.8-1.9c0.2-1.4-0.2-2.7-0.6-4.2c-2.3-9.4-8-22.8-9.1-26.7c-1.3-4.7-1.6-8.3-2.5-12.3
					c-2.3-9.7-4.3-23.1-6.3-26.5c-0.1,1.6-0.9,8.2-3.9,11.3c-0.8,2.9-2.2,14-0.7,17.5c2,4.8,7.5,12.6,12.5,24.3
					c-13.5,5.7-37.6,8.8-55.8,7.9c2.5-10.7,8.4-25.5,9.2-29.6c0.8-4.2-1.1-15.4-3.2-19.8c-6.2-6.4-4.6-11.1-5.3-15.5
					c-4.5,4.1-15.3,15.6-19.4,23.4c2.5,5.5,4.2,10.9,13,21.8c-2.1,0.4-4,3.3-4.3,3.8c-12.5-10.3-19.6-19-21.7-22.7
					C46.3,145.1,72.1,107.5,76.8,104.6z"/>
				<path id="shadow_5_" opacity="0.35" fill="#004D71" d="M71.3,170.8c0-0.1,0.1-0.3,0.1-0.4c-2.4-0.9-13.9-20.5-13.9-21.5
					c0-2.1,22-28.2,22-28.2c1.6-4.6,2.6-8.4,4.4-12c-0.7,2.8-1.8,10.4-1.7,13.5c0.2,7.9,34.4,7.9,40,3.3c2.5-2.1,3.7-10.7,5.2-16.1
					c-0.8,9.4,0.6,21.9,7,46.5c0.7,9.7,9.7,30.9,11.8,44c-1.3-0.6-1.9-1.4-1.9-1.4c0.2-1.4-0.2-2.7-0.6-4.2
					c-2.3-9.4-8-22.8-9.1-26.7c-1.3-4.7-1.6-8.3-2.5-12.3c-2.3-9.7-4.3-23.1-6.3-26.5c-0.1,1.6-0.9,8.2-3.9,11.3
					c-0.8,2.9-2.2,14-0.7,17.5c2,4.8,7.5,12.6,12.5,24.3c-4.6,2-10.5,3.6-17,4.9c5.2-2,13-4,13.7-6.2c-1.6-3.6-9-19-10.8-20.1
					l-9.5,6.5c0,0,9.3-8.4,9.3-9.4c-0.8-0.3-7.8,5.3-8.4,5.4c2-1.8,4.7-4.7,6.4-7.3c1-1.6,0.1-8.7,0.2-10.7
					c-1.5-3.9-28.1-3.8-28.8-0.4c-0.9,1.8-0.4,12.4-0.1,15.9c0.2,1.5,3.5,4.5,9.5,9.1c-1.7-0.9-8.3-3.8-9.9-5.4
					c-0.2,3.7-2.4,10.5-2,11.7c0.3,1-0.4,6.7-4.3,10.5c-3.1,3.1,11.8,3,12.8,3.3c-5.8,0.4-11.5,0.5-16.8,0.2
					c2.5-10.7,8.4-25.5,9.2-29.6c0.8-4.2-1.1-15.4-3.2-19.8c-6.2-6.4-4.6-11.1-5.3-15.5c-4.5,4.1-15.3,15.6-19.4,23.4
					c2.5,5.5,4.2,10.9,13,21.8C72,170.4,71.7,170.6,71.3,170.8z"/>
			</g>
			<g id="face_9_">
				<path id="face_10_" fill="#EEB37D" d="M87.2,50.1c2.4-2.6,9.6-6.4,15.4-8.6c5.8,3.9,10.8,4.6,15.8,11.3c2.9,3.9,1.6,21.8-1,25.4
					c-3.7,4.9-15.2,7.7-17.1,7.7c-2.2,0-11-5.3-13.2-8.7C85.3,74.4,82.4,55.3,87.2,50.1z"/>
				<path id="shadow_on_face_6_" opacity="0.25" fill="#F19363" d="M102.6,41.5c-5.8,2.3-13,6.1-15.4,8.6C82.4,55.3,85.3,74.4,87,77
					c0.5,0.8,1.3,1.6,2.3,2.5c-4.1-4.8-4.2-18.8-1.5-24.6c3.7-7.9,11.2-11.6,12.7-11.5c5.9,0.6,11.5,6.7,14.1,12.2
					c3.1,7.2,3.9,21.7-1,25.6c0,0,0,0,0,0c1.5-0.9,2.8-1.9,3.6-3.1c2.6-3.5,3.9-21.5,1-25.4C113.4,46.1,108.4,45.3,102.6,41.5z"/>
				<g id="lips_10_">
					<g id="lips_1_">
						<path fill="#F15940" d="M94.6,75.9c2.2,0.9,1.5,2.4,5.3,2.8c1.8,0.2,4.8,0,5.9-1.3c0.5-0.7,0.8-1,1.1-1.2L94.6,75.9z"/>
						<path fill="#E5432E" d="M100.5,75.1c-2.4,0-5.8,1.2-6.9-0.2c0.1,2.8,14.4,2.9,14.5,0C106.7,76,104.1,75,100.5,75.1z"/>
						<path fill="#CC2C27" d="M100.6,76.7c-2.4,0-6.5-0.3-7.1-2.1c0.1,3.2,14.3,3.3,14.5-0.1C107.5,76.2,104.2,76.6,100.6,76.7z"/>
					</g>
				</g>
				<path id="nose_5_" opacity="0.8" fill="#ED8449" d="M99.1,64.1c0.4,2.3-6.1,6.8,3.1,7.4c-1.1,0.3-2.2,0.4-3.3,0.1
					c-0.6-0.1-1.2-0.3-1.7-0.8C94.8,68.4,98.3,67.2,99.1,64.1z"/>
				<g id="eyes_5_">
					<g>
						<g>
							<path fill="#FFFFFF" d="M88.6,57.3c4.1-0.4,6.5,3.7,6.5,3.7c-2.1,0.9-6,0.7-7.8-0.3C86,59.9,85,58.7,88.6,57.3z"/>
							<g>
								<path d="M88.8,59c0.1,0.8,0.9,1.3,1.8,1.3c0.9-0.1,1.6-0.7,1.6-1.5c-0.1-0.8-0.9-1.3-1.8-1.3C89.5,57.5,88.7,58.2,88.8,59z"
									/>
							</g>
							<path d="M86.8,57.8c0.4-0.3,0.9-0.5,1.4-0.7c1-0.3,2.1-0.4,3.2-0.1c1,0.3,1.9,0.8,2.6,1.4c0.7,0.6,1.2,1.7,1.3,2.6
								c-0.6-0.7-1.2-1.5-1.9-2c-0.7-0.4-1.5-0.8-2.3-1c-0.7-0.2-1.7-0.2-2.5-0.1c-0.8,0.1-1.8,0.3-2.2,1.1
								C86.1,58.5,86.4,58.1,86.8,57.8z"/>
						</g>
						<path d="M86.9,53.1c1-0.3,2-0.4,3-0.4c1,0.1,2,0.3,2.9,0.8c0.9,0.5,1.6,1.2,1.8,1.9c-1.4-1.2-3.1-1.6-4.8-1.7
							c-0.9-0.1-1.8,0-2.6,0.1c-0.9,0.1-1.7,0.4-2.5,0.8C85.1,53.9,86,53.4,86.9,53.1z"/>
					</g>
					<g>
						<g>
							<path fill="#FFFFFF" d="M110.8,57.2c2.8-0.5,6.1,0.4,6.4,2.4c-2.6,2.5-6.1,2.7-11,1.3C106.1,58.9,108.7,57.6,110.8,57.2z"/>
							<g>
								<path d="M110.5,58.2c-0.3,0.7,0.3,1.5,1.2,1.7c0.9,0.2,1.8-0.2,2.1-1c0.3-0.7-0.3-1.5-1.2-1.7
									C111.7,57.1,110.8,57.5,110.5,58.2z"/>
							</g>
							<path d="M107.5,57.8c1-0.7,2.4-1.1,3.7-1.1c1.3-0.1,2.7,0.1,3.9,0.6c0.6,0.2,1.2,0.6,1.6,1c0.4,0.4,0.6,0.8,0.5,1.3
								c-0.3-1-1.4-1.3-2.4-1.7c-1.1-0.3-2.3-0.4-3.4-0.3c-1.1,0.1-2.3,0.3-3.2,0.8c-1,0.5-1.5,1.5-1.9,2.5
								C106.1,59.8,106.5,58.5,107.5,57.8z"/>
						</g>
						<path d="M108.3,53.3c1-0.5,2.1-0.7,3.3-0.8c1.2,0,2.3,0.1,3.4,0.6c1,0.4,1.9,1.1,2.3,2c-0.8-0.6-1.7-1-2.6-1.3
							c-1-0.2-2-0.3-3-0.3c-2,0.1-3.9,0.6-5.5,1.8C106.5,54.5,107.3,53.7,108.3,53.3z"/>
					</g>
				</g>
			</g>
			<g id="hair_21_">
				<path fill="#00121C" d="M84.7,35c4.6-5.5,16-8.6,18.7-7.4c3.9,1.8-3.5,14.7-3.5,14.7C84,47.7,80.5,59.1,86.1,96
					c1.5,9.8,7.5,12.7,5.6,18.8c-2-9-16.1-7.8-17.5-15C71,83.1,76.3,45.2,84.7,35z"/>
				<path fill="#00121C" d="M105.1,27.2c15.2-1.4,25.5,12.6,28.7,26.4c2.5,10.8,5.6,39,3.5,49.6c-1,5.2-11.7,12.9-24.2,12.4
					c5.8-3.3,6.4-10.3,6.4-11.1c-2,3.8-5.2,9.3-8.6,10.3c8-5.5,21-70.2-11.1-72.5C99.8,42.3,99.5,27.2,105.1,27.2z"/>
			</g>
		</g>
	</g>
</g>
</svg>
