<?xml version="1.0" encoding="utf-8"?>
<!-- Generator: Adobe Illustrator 19.0.1, SVG Export Plug-In . SVG Version: 6.00 Build 0)  -->
<svg version="1.1" id="Layer_1" xmlns="http://www.w3.org/2000/svg" xmlns:xlink="http://www.w3.org/1999/xlink" x="0px" y="0px"
	 viewBox="0 0 144 144" style="enable-background:new 0 0 144 144;" xml:space="preserve">
<style type="text/css">
	.st0{clip-path:url(#SVGID_2_);}
	.st1{opacity:0.4;fill:#818181;}
	.st2{fill:#FDD1B0;}
	.st3{opacity:0.25;fill:#F9B38A;}
	.st4{opacity:0.7;fill:#FABD98;}
	.st5{opacity:0.7;}
	.st6{opacity:0.2;fill:#F37C3F;}
	.st7{fill:#FFFFFF;}
	.st8{fill:#3E1410;}
	.st9{fill:url(#SVGID_3_);}
	.st10{fill:url(#SVGID_4_);}
	.st11{fill:url(#hair_4_);}
	.st12{fill:#333E48;}
	.st13{fill:#49606C;}
	.st14{opacity:0.3;fill:#49606C;}
	.st15{fill:#F3F3F3;}
	.st16{fill:#E6E6E5;}
	.st17{fill:#0E222D;}
	.st18{opacity:0.5;fill:#0E222D;}
	.st19{opacity:0.7;fill:#11273D;}
	.st20{opacity:0.4;fill:#1A1A1A;}
	.st21{clip-path:url(#SVGID_6_);}
	.st22{fill:#A97C50;}
	.st23{opacity:0.7;fill:#A57E5C;}
	.st24{fill:#8B5E3C;}
	.st25{fill:#3C2415;}
	.st26{opacity:0.8;fill:#8B5E3C;}
	.st27{fill:#36160E;}
	.st28{opacity:0.25;fill:#8B5E3C;}
	.st29{fill:#25110B;}
	.st30{opacity:0.4;fill:#524F4F;}
	.st31{fill:url(#SVGID_7_);}
	.st32{opacity:0.3;fill:url(#SVGID_8_);}
	.st33{fill:url(#SVGID_9_);}
	.st34{opacity:0.3;fill:url(#SVGID_10_);}
	.st35{opacity:0.2;fill:url(#SVGID_11_);}
	.st36{fill:#131313;}
	.st37{fill:url(#SVGID_12_);}
	.st38{fill:url(#SVGID_13_);}
	.st39{fill:#010101;}
	.st40{fill:#F1F2F2;}
	.st41{opacity:0.3;fill:#303030;}
	.st42{fill:#E2231A;}
	.st43{opacity:0.75;fill:#C3C6C8;}
	.st44{fill:#0B0A0B;}
	.st45{fill:#282829;}
	.st46{fill:#1C1B1C;}
	.st47{fill:#F9A45D;}
	.st48{clip-path:url(#SVGID_15_);}
	.st49{opacity:0.25;fill:#333333;}
	.st50{fill:#A14423;}
	.st51{opacity:0.5;fill:#A14423;}
	.st52{fill:#3B3434;}
	.st53{fill:#2E2D26;}
	.st54{opacity:0.25;fill:#2E2D26;}
	.st55{opacity:0.2;fill:#7B7C68;}
	.st56{fill:#63A70A;}
	.st57{opacity:0.4;fill:#63A70A;}
	.st58{opacity:0.4;}
	.st59{fill:#1F130A;}
	.st60{fill:#42150D;}
	.st61{fill:#32130C;}
	.st62{fill:#210F0B;}
	.st63{fill:#D1D3D4;}
	.st64{fill:#EF4136;stroke:#58595B;stroke-width:0.1415;stroke-miterlimit:10;}
	.st65{fill:#AAB4BF;}
	.st66{fill:#9FB4B8;}
	.st67{fill:#5B6B71;}
	.st68{fill:#879FA9;}
	.st69{clip-path:url(#SVGID_17_);}
	.st70{fill:#C4D600;}
	.st71{opacity:0.7;fill:#753317;}
	.st72{clip-path:url(#SVGID_19_);}
	.st73{opacity:0.3;fill:#524F4F;}
	.st74{fill:#FBC19E;}
	.st75{opacity:0.2;fill:#F8C5A6;}
	.st76{fill:#FCC3A1;}
	.st77{opacity:8.000000e-002;fill:url(#SVGID_20_);}
	.st78{opacity:8.000000e-002;fill:url(#SVGID_21_);}
	.st79{opacity:0.29;fill:#FBC19E;}
	.st80{fill:#C2531A;}
	.st81{opacity:0.8;fill:#E7835E;}
	.st82{opacity:0.4;fill:#C9920E;}
	.st83{fill:#FF6C0C;}
	.st84{fill:#2D4C56;}
	.st85{fill:#F6D2AE;}
	.st86{fill:#0C2633;}
	.st87{opacity:0.1;fill:url(#SVGID_22_);}
	.st88{opacity:0.1;fill:url(#SVGID_23_);}
	.st89{opacity:0.2;fill:#FFFFFF;}
	.st90{fill:#008FBE;}
	.st91{fill:#004D71;}
	.st92{opacity:0.3;fill:#004D71;}
	.st93{fill:#F9AA7E;}
	.st94{opacity:0.3;fill:#EC8449;}
	.st95{fill:url(#left_arm_2_);}
	.st96{opacity:0.2;fill:#EC8449;}
	.st97{opacity:0.25;fill:#7B7C68;}
	.st98{fill:#111111;}
	.st99{fill:#F8A063;}
	.st100{opacity:0.7;fill:#F8A063;}
	.st101{opacity:0.3;fill:#F8A063;}
	.st102{opacity:0.3;fill:#FAAE72;}
	.st103{fill:#F15941;}
	.st104{fill:#E5442F;}
	.st105{fill:#CC2E27;}
	.st106{opacity:0.12;fill:url(#SVGID_24_);}
	.st107{opacity:0.12;fill:url(#SVGID_25_);}
	.st108{fill:#07090E;}
	.st109{fill:#1A1A1A;}
	.st110{fill:#7A3E74;}
	.st111{fill:#2D2D3B;}
	.st112{opacity:0.15;fill:#333E48;}
	.st113{fill:#732282;}
	.st114{opacity:0.59;fill:#732282;}
	.st115{opacity:0.8;clip-path:url(#SVGID_19_);fill:#E7835E;}
	.st116{clip-path:url(#SVGID_27_);}
	.st117{opacity:0.15;fill:#010101;}
	.st118{fill:#2D140D;}
	.st119{fill:url(#trousers_3_);}
	.st120{opacity:0.5;fill:url(#SVGID_28_);}
	.st121{opacity:0.5;fill:url(#SVGID_29_);}
	.st122{opacity:0.25;fill:#5D2D11;}
	.st123{opacity:0.1;fill:#5C5925;}
	.st124{fill:#FECD8F;}
	.st125{opacity:0.5;fill:#FAB072;}
	.st126{fill:#FFE9CC;}
	.st127{opacity:0.3;fill:#A67D52;}
	.st128{fill:#FECC8C;}
	.st129{opacity:0.85;}
	.st130{opacity:0.15;fill:#004D71;}
	.st131{opacity:0.2;fill:#004D71;}
	.st132{opacity:0.3;fill:#ACAE85;}
	.st133{fill:#FFEFD9;}
	.st134{opacity:0.58;fill:#F8A063;}
	.st135{fill:#F69FA5;}
	.st136{fill:#7F8C8D;}
	.st137{fill:#F8CB5C;}
	.st138{fill:#FDC78F;}
	.st139{fill:#D53227;}
	.st140{fill:#BBAF8A;}
	.st141{fill:none;stroke:#DCCCA0;stroke-width:0.182;stroke-miterlimit:10;}
	.st142{fill:none;stroke:#DCCCA0;stroke-width:0.182;stroke-miterlimit:10;stroke-dasharray:0.6995,0.6995;}
	.st143{fill:#E6E7E8;}
	.st144{fill:#A7A9AC;}
	.st145{fill:#FDC485;}
	.st146{fill:#A4A9AD;}
	.st147{opacity:0.3;fill:#333E48;}
	.st148{fill:#5C6670;}
	.st149{fill:#FFFFFF;stroke:#333E48;stroke-width:3.9122;stroke-miterlimit:10;}
	.st150{fill:#465259;}
	.st151{fill:#C3C6C8;}
	.st152{fill:#E42A27;}
	.st153{fill:#D0D5D6;}
	.st154{fill:#F7A800;}
	.st155{fill:#C9920E;}
	.st156{fill:#364A5E;}
	.st157{fill:#293B4D;}
	.st158{fill:#FFFFFF;stroke:#333E48;stroke-width:4.0877;stroke-miterlimit:10;}
	.st159{display:none;}
	.st160{display:inline;}
	.st161{fill:#F1F4F7;}
	.st162{fill:#94A2AF;}
	.st163{fill:#F8EBD4;}
	.st164{fill:#FFD162;}
	.st165{fill:#F5F6F7;}
	.st166{fill:#D1D5D7;}
	.st167{fill:#AAB5BE;}
	.st168{opacity:0.52;fill:#F7A800;}
	.st169{fill:#F6F9FB;}
	.st170{fill:#E7EAED;}
</style>
<g>
	<defs>
		<rect id="SVGID_14_" x="12.3" y="-5.7" width="110.2" height="147.8"/>
	</defs>
	<clipPath id="SVGID_2_">
		<use xlink:href="#SVGID_14_"  style="overflow:visible;"/>
	</clipPath>
	<g class="st0">
		<g>
			<g id="girl_in_jacket_2_">
				<g id="neck_6_">
					<path class="st50" d="M86.2,106.1c-13.2-1.8-10.1-20.2-9.4-23.3H64.3c0.7,12.4,2.3,23.4-12.5,25.4c4.4,9.2,17.6,26.8,26.7,32.5
						C82.1,133.4,98.5,127.4,86.2,106.1z"/>
					<path class="st51" d="M64.8,95.8c0.1-3.1-0.2-6.6-0.4-10.1h12.4c-0.4,1.7-1.9,8.3,0.9,14.3C75.4,101.2,67.9,99.9,64.8,95.8z"/>
					<path class="st51" d="M79.7,133.2c0,0,0.5-7.4-2.9-10.5c1.5,2.5,1.1,8.1-0.7,10.1L79.7,133.2z"/>
				</g>
				<g id="top_1_">
					<path id="top_6_" class="st7" d="M86.4,106.4c6.6,26.3-25.8,22.5-29.3,0L44.9,110c4.1,7.3,12.6,45.6,12.1,56.5
						c0,0-8.1,21.4-14.2,31.9c8.4,2.7,40.3,7.5,56.2,2.1c-2.1-13-7-34.9-6.9-36.5C92.5,141.2,105.3,131.8,86.4,106.4z"/>
					<path id="shadow_1_" class="st55" d="M64.9,128.3c5.8,8.5,18.6,15.3,26.7,5.8c-0.1,0.3,1.9-0.5,5.1-1.8
						c0,6.2-1.7,11.9-3.1,18.6c-2.8-1.3-4.7-2.5-4.8-3.5c-8.8-0.7-14.4,18.9-16.1,26c-3.4,14.3,0,27,6.6,29.5
						c-14.8,0-31-2.7-36.6-4.5C48.9,188,57,166.5,57,166.5c0.3-6-2.1-20.1-5.1-32.9C59.3,131.7,64.9,129.8,64.9,128.3z"/>
				</g>
				<g id="jacket_1_">
					<g id="jacket_3_">
						<path class="st56" d="M58.4,106.1c0,0-11.6,3.1-21.3,5.6c-3.9,3-6.4,49.9-8.5,62.2c2.1-0.4,13.2-1.4,13.2-1.4
							c-0.4-12.2,3.2-34.8,3.2-34.8c3.3,6.8,8.4,23.6,7,31c-0.4,1.1-1.6,1.4-1.3,1.9c0.1,0.3,1.7,1.1,1.7,1.1
							c-3.6,7.4-11.2,27-14.9,33.3c6.3,1.7,21.1,2.4,26.7,1.3c4.1-10.1,6.4-28.7,8.5-64.8C73.1,135,59.5,105.3,58.4,106.1z"/>
						<path class="st56" d="M86.2,106.1l7.6,2.4l7.9,2.7c4.6,12.3-2.2,40.1,3.1,55.8c0,0.2-1.3,1-1.5,1.3c2.6,2.1,3.4,8.9,3.8,12.3
							c-6,0.4-11,2.3-11,2.3c2.3,9.5,4.9,20.2,4.7,21.3c0,1.4-12.7,1.7-12.7,1.7c-1.5-2.1,1.1-64.4,1.9-67.6
							C90.7,136.2,86.5,107.4,86.2,106.1z"/>
					</g>
					<g id="shadows_2_">
						<path class="st57" d="M63.6,206.4c-4.8-0.6-17.3-0.9-19-5.5c-2.2-5.6,8.3-27.2,14.1-26.8c-1.1-0.8-3.4-1.3-4.7-2
							c2.9-0.8,6.2-0.3,8.9-1.2l-7.7-1.1c-0.9-4.7-8.4-40.8-16-56.3c1.3,6.2,4.4,14.2,4,21.5c-0.2,2.8-4.9,37.8-4.9,37.8
							c2-0.2,3.5-0.3,3.5-0.3c-0.4-12.2,3.2-34.8,3.2-34.8c3.3,6.8,8.4,23.6,7,31c-0.4,1.1-1.6,1.4-1.3,1.9c0.1,0.3,1.7,1.1,1.7,1.1
							c-3.6,7.4-11.2,27-14.9,33.3C43.7,206.7,57.6,207.4,63.6,206.4z"/>
						<path class="st57" d="M98.8,182c-1.6,0.5-2.6,0.9-2.6,0.9c-1.7-7.1-3.2-13.4-3.2-14.5c0-9.5,2.9-22,4.7-30.9
							c1.1-5.3-3.9-29.1-3.9-29.1l6.1,27.9c0.7,1.9-4.8,23.3-4.8,27.5C95.1,164,97.5,175.7,98.8,182z"/>
					</g>
					<g id="lapels_1_" class="st58">
						<path class="st56" d="M58.7,106.1l-9.9,2.6c0,0,14.6,17.5,18.2,30.6c2.3,8.3,5,16.1,5,16.1s0.2-3,0.6-16.2
							C68.6,123.2,58.7,106.1,58.7,106.1z"/>
						<path class="st56" d="M86.4,106.4l7.4,2c0,0,0.3,23.3-0.1,28.9c-0.7,8.6-4.6,15.5-4.6,15.5l1.2-16L86.4,106.4z"/>
					</g>
				</g>
			</g>
			<g id="head_6_">
				<path id="hair_5_" class="st59" d="M107.9,47.4c-0.9-2.6-2.7-4.3-4.4-6.4c-2.3-2.8-2.4-5.3-4.9-7.9c-2.6-2.6-6.2-2.9-8.7-5.6
					c-1.6-1.7-11.3-6-15.1-6.5c-7.7-0.9-16.7,1-23.5,6.6c-3,1.4-17.1,2.9-18.6,13c-1.6,10.3-7.8,17.1-4.9,26
					c2.1,6.4,4.5,10.1,9.7,13.8c1.2,0.9,2.9,4.9,4.2,5.8c2.3,1.6,5.8,1.5,8.4,2.2c3.7,0.9,1.1,3.7,2.3,5.1c0.9,1.1,3.2-0.6,4,1.3
					c0.3,0.8,4.7,3.5,6.9,2.5c-1.3-0.9-1-3.4,0.1-4.3c1.1-0.9,12.6-4,13.6-2.2c0.9,1.7-0.3,2.1,3.4,4c-0.8-5.1,5.5-4.6,6.5-5
					c1.9-1,4.8-0.3,5.8-1.4c1.3-1.6-2.2-3.9,3.1-5c6-1.2,5.7-7.3,6.7-10.9c0.7-2.6,4.9-8,5-9C108.4,57.9,109.9,53.1,107.9,47.4z"/>
				<g id="face_14_">
					<path id="face_15_" class="st50" d="M77.1,44.8c5,3.6,9.2,12.4,10,15.9c1.5,7.4,2.1,16.1-2,22.5C81.6,88.4,73.3,93.9,71.6,94
						c-3.4,0.1-16.8-5-19.1-10.9c-2.4-6-4.4-14.9-4.4-22.3C58.8,54.4,77.1,44.8,77.1,44.8z"/>
					<path class="st51" d="M87.2,60.9c-0.7-3.5-5.1-12.4-10.1-16c0,0-2.8,1.4-4.7,2.4c16.7,5.7,13.2,20.9,13.2,20.9
						s5.8,14.3-13,25.6c2.8-1.2,9.5-6,12.4-10.5C89.2,76.8,88.7,68.3,87.2,60.9z"/>
					<g id="smile_4_">
						<path class="st60" d="M76.3,83.1c-0.3,0.3-1,3.1-5.6,3.5c-4.4,0.4-7.5-3-8.2-3.4c0.3,0.1,1.5,0.5,2,0.6
							C66.4,83.7,76.3,83.1,76.3,83.1z"/>
						<path class="st61" d="M62.4,82.5c1,1.9,4-0.2,8.3-0.5c3.2-0.2,5.7,1.6,6.4-0.2c0,0.2,0.1,1-0.7,1.3c-4,1.1-7.6,1.5-11.9,0.9
							C63.9,83.8,61.8,83.8,62.4,82.5z"/>
					</g>
					<path id="nose_7_" class="st51" d="M66.9,76.3c0.5,1.6,4.7,1.9,5.7,0.3l0.5,0.1c-1.1,1.9-5.6,1.9-6.5,0.5
						C66.6,77.3,66.6,77.1,66.9,76.3z"/>
					<g id="eyes_7_">
						<g>
							<g>
								<path class="st7" d="M54,66.9c2.1-3.4,8.5-1.1,10,1.8l-2.7,1.3C57.3,71.9,52.2,69.8,54,66.9z"/>
								<g>
									<circle class="st62" cx="57.8" cy="67.6" r="2"/>
								</g>
								<path class="st62" d="M53.6,68.3c-0.3-2.1,1.9-4,5.6-3c1.8,0.5,4,1.7,4.6,2.6l0.3,1C61.5,65.8,54.3,65.1,53.6,68.3z"/>
							</g>
							<path class="st59" d="M52,61.8c0-0.1,0-0.3,0.1-0.4c0.2-0.4,0.6-0.8,1.2-1.1c0.6-0.3,1.3-0.5,2.1-0.6c0.4,0,0.8-0.1,1.2,0
								c0.4,0,0.8,0.1,1.3,0.1c0.8,0.2,1.7,0.4,2.4,0.8c0.4,0.2,0.7,0.4,1,0.6c0.3,0.2,0.6,0.4,0.8,0.6c0.5,0.4,0.8,0.8,1,1.1
								c0.2,0.3,0.3,0.5,0.3,0.5s-0.2-0.1-0.5-0.3c-0.3-0.2-0.8-0.4-1.3-0.7c-0.2-0.1-0.6-0.2-0.9-0.4c-0.3-0.1-0.6-0.2-1-0.3
								c-0.3-0.1-0.7-0.2-1-0.3c-0.4-0.1-0.7-0.2-1.1-0.2c-0.7-0.2-1.5-0.2-2.2-0.2c-0.3,0-0.7,0-1,0c-0.3,0-0.6,0.1-0.9,0.1
								c-0.3,0.1-0.5,0.1-0.7,0.2c-0.2,0.1-0.4,0.2-0.5,0.3c-0.3,0.2-0.3,0.4-0.4,0.4C51.9,61.9,52,61.9,52,61.8z"/>
						</g>
						<g>
							<g>
								<path class="st7" d="M74.6,64.5c0.7-1.3,6-2.3,9.2,0.6l0.5,1c0.1,0.2-4.3,2.7-7.2,2.2C75.6,68,73.1,67.1,74.6,64.5z"/>
								<g>
									<path class="st62" d="M76.4,65.5c0.1,1.1,1.1,1.9,2.3,1.8c1.1-0.1,1.9-1.1,1.8-2.3c-0.1-1.1-1.1-1.9-2.3-1.8
										C77.1,63.4,76.3,64.4,76.4,65.5z"/>
								</g>
								<path class="st62" d="M74.2,66.1c-0.4-2.7,1.8-4,5.7-3.3c1.8,0.3,4,1.8,4.5,2.7l0,0.6C81.9,63.1,74.8,62.8,74.2,66.1z"/>
							</g>
							<path class="st59" d="M74.3,60c0.2-0.2,0.5-0.5,0.8-0.7c0.3-0.2,0.7-0.4,1-0.6c0.8-0.4,1.6-0.6,2.5-0.7
								c0.9-0.1,1.8-0.1,2.6,0.1c0.4,0.1,0.8,0.2,1.2,0.3c0.4,0.1,0.7,0.3,1,0.5c0.3,0.2,0.5,0.4,0.7,0.6c0.2,0.2,0.4,0.3,0.5,0.5
								c0.2,0.3,0.3,0.5,0.3,0.5s-0.2-0.1-0.5-0.3c-0.2-0.1-0.3-0.2-0.6-0.3c-0.2-0.1-0.5-0.2-0.8-0.3c-0.6-0.2-1.2-0.3-1.9-0.3
								c-0.4,0-0.7,0-1.1,0c-0.4,0-0.8,0-1.1,0.1c-0.4,0-0.8,0.1-1.1,0.2c-0.4,0.1-0.7,0.2-1.1,0.3c-0.3,0.1-0.7,0.2-1,0.3
								c-0.3,0.1-0.6,0.3-0.9,0.4c-0.5,0.3-0.9,0.6-1.2,0.8c-0.3,0.3-0.4,0.4-0.4,0.4s0.1-0.2,0.2-0.6C73.6,61,73.9,60.4,74.3,60z"
								/>
						</g>
					</g>
				</g>
			</g>
		</g>
		<path class="st51" d="M72.2,60c0,0-3,8.3,1,12.8C73.1,72.7,70.1,66.1,72.2,60z"/>
		<g>
			<path class="st63" d="M48.4,119.3v7.9c0,0.7,0.6,1.3,1.3,1.3h12c0.7,0,1.3-0.6,1.3-1.3v-7.9H48.4z"/>
			<path class="st64" d="M54.4,119.8h-4.7c-0.4,0-0.8,0.4-0.8,0.8v4.5h5.5V119.8z"/>
			<g>
				<rect x="54.9" y="124.4" class="st65" width="7.2" height="0.6"/>
				<rect x="49.3" y="125.9" class="st65" width="12.9" height="0.5"/>
				<path class="st65" d="M49.3,127.8c0.1,0.1,0.3,0.1,0.4,0.1h12c0.2,0,0.3,0,0.4-0.1v-0.4H49.3V127.8z"/>
				<rect x="54.9" y="121.3" class="st65" width="7.2" height="0.6"/>
				<rect x="54.9" y="119.8" class="st65" width="7.2" height="0.5"/>
				<rect x="54.9" y="122.8" class="st65" width="7.2" height="0.6"/>
			</g>
			<path class="st66" d="M61.7,117.9h-12c-0.7,0-1.3,0.6-1.3,1.3h14.7C63.1,118.5,62.5,117.9,61.7,117.9z"/>
			<path class="st67" d="M57.1,118.9h-2.7c-0.1,0-0.3-0.1-0.3-0.3c0-0.1,0.1-0.3,0.3-0.3h2.7c0.1,0,0.3,0.1,0.3,0.3
				C57.4,118.7,57.2,118.9,57.1,118.9z"/>
			<path class="st67" d="M55.7,115.9c0.2,0,0.4,0.2,0.4,0.4c0,0.2-0.2,0.4-0.4,0.4s-0.4-0.2-0.4-0.4
				C55.3,116.1,55.5,115.9,55.7,115.9L55.7,115.9z M55.7,115.6c-0.4,0-0.7,0.3-0.7,0.7c0,0.4,0.3,0.7,0.7,0.7c0.4,0,0.7-0.3,0.7-0.7
				C56.4,115.9,56.1,115.6,55.7,115.6L55.7,115.6z"/>
			<path class="st68" d="M56.6,115h-1.7c-0.3,0-0.5,0.2-0.5,0.5v3h2.7v-3C57.1,115.3,56.8,115,56.6,115z M55.7,117
				c-0.4,0-0.7-0.3-0.7-0.7c0-0.4,0.3-0.7,0.7-0.7c0.4,0,0.7,0.3,0.7,0.7C56.4,116.7,56.1,117,55.7,117z"/>
			<g>
				<defs>
					<path id="SVGID_16_" d="M54.2,119.9h-4.4c-0.4,0-0.8,0.3-0.8,0.8v4.2h5.2V119.9z"/>
				</defs>
				<clipPath id="SVGID_3_">
					<use xlink:href="#SVGID_16_"  style="overflow:visible;"/>
				</clipPath>
				<g style="clip-path:url(#SVGID_3_);">
					<g id="girl_in_jacket_3_">
						<g id="neck_1_">
							<path class="st50" d="M52.3,123.5c-0.5-0.1-0.4-0.9-0.4-1h-0.5c0,0.5,0.1,1-0.5,1c0.2,0.4,0.7,1.1,1,1.3
								C52.1,124.6,52.7,124.4,52.3,123.5z"/>
							<path class="st51" d="M51.5,122.9c0-0.1,0-0.3,0-0.4h0.5c0,0.1-0.1,0.4,0,0.6C51.8,123.2,51.6,123.1,51.5,122.9z"/>
							<path class="st51" d="M52,124.6c0,0,0-0.3-0.1-0.4c0.1,0.1,0,0.3,0,0.4L52,124.6z"/>
						</g>
						<g id="top_7_">
							<path id="top_8_" class="st7" d="M52.3,123.5c0.4,1.1-0.8,1.2-1.1,0l-0.5,0.1c0.2,0.3,0.5,1.7,0.5,2.1c0,0-0.3,0.8-0.5,1.2
								c0.3,0.1,1.5,0.3,2.1,0.1c-0.1-0.5-0.3-1.3-0.3-1.4C52.5,124.8,53,124.5,52.3,123.5z"/>
							<path id="shadow_14_" class="st55" d="M51.4,124.3c0.2,0.3,0.7,0.6,1,0.2c0,0,0.1,0,0.2-0.1c0,0.2-0.1,0.5-0.1,0.7
								c-0.1,0-0.2-0.1-0.2-0.1c-0.3,0-0.5,0.7-0.6,1c-0.1,0.5,0,1,0.2,1.1c-0.6,0-1.2-0.1-1.4-0.2c0.2-0.4,0.5-1.2,0.5-1.2
								c0-0.2-0.1-0.8-0.2-1.2C51.2,124.5,51.4,124.4,51.4,124.3z"/>
						</g>
						<g id="jacket_8_">
							<g id="jacket_9_">
								<path class="st56" d="M51.2,123.5c0,0-0.4,0.1-0.8,0.2c-0.1,0.1-0.2,1.9-0.3,2.4c0.1,0,0.5-0.1,0.5-0.1
									c0-0.5,0.1-1.3,0.1-1.3c0.1,0.3,0.3,0.9,0.3,1.2c0,0-0.1,0.1,0,0.1c0,0,0.1,0,0.1,0c-0.1,0.3-0.4,1-0.6,1.3
									c0.2,0.1,0.8,0.1,1,0c0.2-0.4,0.2-1.1,0.3-2.5C51.8,124.6,51.2,123.5,51.2,123.5z"/>
								<path class="st56" d="M52.3,123.5l0.3,0.1l0.3,0.1c0.2,0.5-0.1,1.5,0.1,2.1c0,0-0.1,0-0.1,0c0.1,0.1,0.1,0.3,0.1,0.5
									c-0.2,0-0.4,0.1-0.4,0.1c0.1,0.4,0.2,0.8,0.2,0.8c0,0.1-0.5,0.1-0.5,0.1c-0.1-0.1,0-2.4,0.1-2.6
									C52.4,124.6,52.3,123.6,52.3,123.5z"/>
							</g>
							<g id="shadows_1_">
								<path class="st57" d="M51.4,127.3c-0.2,0-0.7,0-0.7-0.2c-0.1-0.2,0.3-1,0.5-1c0,0-0.1,0-0.2-0.1c0.1,0,0.2,0,0.3,0l-0.3,0
									c0-0.2-0.3-1.5-0.6-2.1c0,0.2,0.2,0.5,0.2,0.8c0,0.1-0.2,1.4-0.2,1.4c0.1,0,0.1,0,0.1,0c0-0.5,0.1-1.3,0.1-1.3
									c0.1,0.3,0.3,0.9,0.3,1.2c0,0-0.1,0.1,0,0.1c0,0,0.1,0,0.1,0c-0.1,0.3-0.4,1-0.6,1.3C50.6,127.3,51.2,127.3,51.4,127.3z"/>
								<path class="st57" d="M52.7,126.4C52.7,126.4,52.6,126.4,52.7,126.4c-0.2-0.2-0.2-0.5-0.2-0.5c0-0.4,0.1-0.8,0.2-1.2
									c0-0.2-0.1-1.1-0.1-1.1l0.2,1.1c0,0.1-0.2,0.9-0.2,1C52.6,125.7,52.7,126.1,52.7,126.4z"/>
							</g>
							<g id="sleeve_rims_4_">
								<path class="st70" d="M50.7,125.9c0,0-0.7,0-0.7,0l0,0.4c0.2,0.1,0.7,0,0.7-0.1C50.7,126.2,50.7,125.9,50.7,125.9z"/>
								<path class="st70" d="M52.6,126.2c0.1,0,0.2-0.1,0.5-0.1c0,0.1,0.1,0.3,0.1,0.3l-0.5,0.1C52.6,126.4,52.6,126.3,52.6,126.2z
									"/>
							</g>
							<g id="lapels_4_">
								<path class="st56" d="M51.2,123.4l-0.4,0.1c0,0,0.5,0.7,0.6,1.2c0.1,0.3,0.1,1.3,0.1,1.3s0.1-1,0.1-1.3
									C51.7,124.4,51.2,123.4,51.2,123.4z"/>
								<path class="st56" d="M52.2,123.5l0.3,0.1c0,0,0,0.9,0,1.1c0,0.3-0.2,1.3-0.2,1.3s0-1,0-1.3
									C52.4,124.5,52.2,123.5,52.2,123.5z"/>
							</g>
						</g>
						<g id="arms_4_">
							<path class="st50" d="M53,127.8c0-0.1,0.1-0.1,0.1-0.2c0-0.2-0.3-0.8-0.5-1.1l0.4-0.1c0.1,0.4,0.2,1.1,0.3,1.3
								c0,0.1,0,0.4,0,0.4c0,0-0.1,0.3-0.1,0.4c-0.1,0.1-0.3,0.2-0.3,0.2c0-0.1,0.1-0.2,0.2-0.3c0,0,0.1-0.3,0.1-0.3
								c-0.1,0-0.1,0.3-0.3,0.3c0-0.1,0.1-0.2,0.1-0.3C53,128,53,127.9,53,127.8z"/>
							<path class="st50" d="M50.3,127.9c0-0.1,0-0.2,0-0.2c0-0.1-0.1-0.8-0.2-1.3c0.2,0,0.3,0,0.4,0c0,0.1,0,0.1,0,0.2
								c0,0.1-0.1,1,0,1.1c0.1,0.1,0.2,0.2,0.2,0.3c0,0.1,0.1,0.4,0.1,0.5c-0.1,0-0.1-0.3-0.2-0.3c0,0,0,0.2,0,0.3c0,0,0,0.2,0,0.3
								c0,0.1-0.1,0.1-0.1,0c0,0,0,0,0,0c0,0-0.1,0.1-0.1,0c0,0,0,0,0,0c0,0,0,0-0.1,0c0,0,0-0.1,0-0.1c0,0,0,0.1,0,0.1
								c0-0.1-0.1-0.2-0.1-0.3c0,0,0-0.2,0-0.2C50.3,128.1,50.3,127.9,50.3,127.9z"/>
						</g>
					</g>
					<g id="head_1_">
						<path id="hair_1_" class="st59" d="M53.1,121.2c0-0.1-0.1-0.2-0.2-0.2c-0.1-0.1-0.1-0.2-0.2-0.3c-0.1-0.1-0.2-0.1-0.3-0.2
							c-0.1-0.1-0.4-0.2-0.6-0.2c-0.3,0-0.6,0-0.9,0.3c-0.1,0.1-0.6,0.1-0.7,0.5c-0.1,0.4-0.3,0.6-0.2,1c0.1,0.2,0.2,0.4,0.4,0.5
							c0,0,0.1,0.2,0.2,0.2c0.1,0.1,0.2,0.1,0.3,0.1c0.1,0,0,0.1,0.1,0.2c0,0,0.1,0,0.2,0.1c0,0,0.2,0.1,0.3,0.1c-0.1,0,0-0.1,0-0.2
							c0,0,0.5-0.2,0.5-0.1c0,0.1,0,0.1,0.1,0.2c0-0.2,0.2-0.2,0.2-0.2c0.1,0,0.2,0,0.2-0.1c0-0.1-0.1-0.1,0.1-0.2
							c0.2,0,0.2-0.3,0.3-0.4c0-0.1,0.2-0.3,0.2-0.3C53.1,121.6,53.2,121.4,53.1,121.2z"/>
						<g id="face_1_">
							<path id="face_2_" class="st50" d="M51.9,121.1c0.2,0.1,0.4,0.5,0.4,0.6c0.1,0.3,0.1,0.6-0.1,0.9c-0.1,0.2-0.4,0.4-0.5,0.4
								c-0.1,0-0.6-0.2-0.7-0.4c-0.1-0.2-0.2-0.6-0.2-0.8C51.2,121.4,51.9,121.1,51.9,121.1z"/>
							<g id="smile_1_">
								<path class="st60" d="M51.9,122.5c0,0,0,0.1-0.2,0.1c-0.2,0-0.3-0.1-0.3-0.1c0,0,0.1,0,0.1,0
									C51.5,122.5,51.9,122.5,51.9,122.5z"/>
								<path class="st61" d="M51.4,122.5c0,0.1,0.1,0,0.3,0c0.1,0,0.2,0.1,0.2,0c0,0,0,0,0,0C51.7,122.6,51.6,122.6,51.4,122.5
									C51.4,122.5,51.3,122.5,51.4,122.5z"/>
							</g>
							<path id="nose_1_" class="st71" d="M51.5,122.3c0,0.1,0.2,0.1,0.2,0l0,0C51.8,122.4,51.5,122.4,51.5,122.3
								C51.5,122.3,51.5,122.3,51.5,122.3z"/>
							<g id="eyes_1_">
								<g>
									<g>
										<path class="st7" d="M51,121.9c0.1-0.1,0.3,0,0.4,0.1l-0.1,0.1C51.2,122.1,51,122,51,121.9z"/>
										<g>
											<circle class="st62" cx="51.2" cy="121.9" r="0.1"/>
										</g>
										<path class="st62" d="M51,122c0-0.1,0.1-0.2,0.2-0.1c0.1,0,0.2,0.1,0.2,0.1l0,0C51.3,121.9,51,121.8,51,122z"/>
									</g>
									<path class="st59" d="M51,121.7C51,121.7,51,121.7,51,121.7C51,121.7,51,121.7,51,121.7c0.1-0.1,0.1-0.1,0.1-0.1
										c0,0,0,0,0,0c0,0,0,0,0,0c0,0,0.1,0,0.1,0c0,0,0,0,0,0c0,0,0,0,0,0c0,0,0,0,0,0c0,0,0,0,0,0s0,0,0,0c0,0,0,0,0,0
										c0,0,0,0,0,0c0,0,0,0,0,0c0,0,0,0,0,0c0,0,0,0,0,0c0,0-0.1,0-0.1,0C51.1,121.7,51.1,121.7,51,121.7
										C51,121.7,51,121.7,51,121.7C51,121.7,51,121.7,51,121.7C51,121.7,51,121.7,51,121.7C51,121.7,51,121.7,51,121.7
										C51,121.7,51,121.7,51,121.7z"/>
								</g>
								<g>
									<g>
										<path class="st7" d="M51.8,121.8c0,0,0.2-0.1,0.4,0l0,0c0,0-0.2,0.1-0.3,0.1C51.9,121.9,51.8,121.9,51.8,121.8z"/>
										<g>
											<circle class="st62" cx="52" cy="121.8" r="0.1"/>
										</g>
										<path class="st62" d="M51.8,121.9c0-0.1,0.1-0.2,0.2-0.1c0.1,0,0.2,0.1,0.2,0.1l0,0C52.1,121.8,51.8,121.7,51.8,121.9z"/>
									</g>
									<path class="st59" d="M51.8,121.6C51.8,121.6,51.8,121.6,51.8,121.6C51.8,121.6,51.9,121.6,51.8,121.6
										c0.1-0.1,0.1-0.1,0.2-0.1c0,0,0.1,0,0.1,0c0,0,0,0,0,0c0,0,0,0,0,0c0,0,0,0,0,0c0,0,0,0,0,0c0,0,0,0,0,0s0,0,0,0
										c0,0,0,0,0,0c0,0,0,0,0,0c0,0,0,0-0.1,0c0,0,0,0,0,0c0,0,0,0,0,0c0,0,0,0,0,0C51.9,121.6,51.9,121.6,51.8,121.6
										C51.9,121.6,51.9,121.6,51.8,121.6C51.8,121.7,51.8,121.7,51.8,121.6C51.8,121.7,51.8,121.7,51.8,121.6
										C51.8,121.7,51.8,121.7,51.8,121.6C51.8,121.7,51.8,121.7,51.8,121.6C51.8,121.7,51.8,121.7,51.8,121.6z"/>
								</g>
							</g>
						</g>
					</g>
				</g>
			</g>
		</g>
	</g>
</g>
</svg>
