<?xml version="1.0" encoding="utf-8"?>
<!-- Generator: Adobe Illustrator 19.1.0, SVG Export Plug-In . SVG Version: 6.00 Build 0)  -->
<svg version="1.1" id="Layer_1" xmlns="http://www.w3.org/2000/svg" xmlns:xlink="http://www.w3.org/1999/xlink" x="0px" y="0px"
	 viewBox="0 0 72 72" style="enable-background:new 0 0 72 72;" xml:space="preserve">
<style type="text/css">
	.st0{fill:#D0D5D6;}
	.st1{fill:#F5F6F7;stroke:#D1D5D7;stroke-width:0.8269;stroke-linecap:round;stroke-linejoin:round;stroke-miterlimit:10;}
	.st2{fill:#FF6C0C;}
	.st3{fill:#C2531A;}
	.st4{opacity:0.2;fill:#5C6670;}
	.st5{fill:#333E48;}
	.st6{fill:#A4A9AD;}
	.st7{fill:#F7A800;}
	.st8{fill:#C9920E;}
	.st9{fill:#364A5E;}
	.st10{fill:#293B4D;}
	.st11{fill:#5C6670;}
	.st12{fill:#63A70A;}
	.st13{fill:#FFFFFF;}
	.st14{fill-rule:evenodd;clip-rule:evenodd;fill:#FF6C0C;}
	.st15{fill:#008FBE;}
	.st16{fill:#004D71;}
	.st17{fill:#F5F6F7;stroke:#D1D5D7;stroke-width:0.8644;stroke-linecap:round;stroke-linejoin:round;stroke-miterlimit:10;}
	.st18{fill:none;stroke:#A4A9AD;stroke-width:0.7396;stroke-miterlimit:10;}
	.st19{fill:none;stroke:#A4A9AD;stroke-width:0.6358;stroke-miterlimit:10;}
	.st20{fill:none;stroke:#A4A9AD;stroke-width:0.6008;stroke-miterlimit:10;}
	.st21{fill:#B34FC5;}
	.st22{fill:#732282;}
	.st23{fill:#C4D600;}
	.st24{fill-rule:evenodd;clip-rule:evenodd;fill:#B34FC5;}
	.st25{fill-rule:evenodd;clip-rule:evenodd;fill:#732282;}
	.st26{fill:#E2231A;}
	.st27{fill:#D1D5D7;}
	.st28{fill:#C3C6C8;}
</style>
<g>
	<g>
		<g>
			<polygon class="st21" points="6.5,20.5 18.6,25.3 8.7,32.7 8.7,32.7 			"/>
			<g>
				<path class="st21" d="M12.9,24.7c-0.4,0-0.8-0.1-1.2-0.3c-1.2-0.7-1.6-2.2-0.9-3.3c4.4-7.6,11.9-12.6,20.6-13.9
					C32.7,7,34,7.9,34.2,9.3c0.2,1.3-0.7,2.6-2.1,2.8c-7.2,1-13.4,5.2-17,11.5C14.6,24.3,13.8,24.7,12.9,24.7z"/>
			</g>
		</g>
		<g>
			<polygon class="st22" points="20.2,61.5 25,49.4 32.4,59.4 32.4,59.4 			"/>
			<g>
				<path class="st22" d="M21.9,57.6c-0.4,0-0.8-0.1-1.2-0.3C13.1,52.8,8,45.3,6.8,36.7c-0.2-1.3,0.7-2.6,2.1-2.8
					c1.3-0.2,2.6,0.7,2.8,2.1c1,7.2,5.2,13.4,11.5,17c1.2,0.7,1.6,2.2,0.9,3.3C23.6,57.1,22.7,57.6,21.9,57.6z"/>
			</g>
		</g>
		<g>
			<polygon class="st21" points="61,47.7 48.9,42.9 58.9,35.5 58.9,35.5 			"/>
			<g>
				<path class="st21" d="M35.8,61.1c-1.2,0-2.3-0.9-2.4-2.1c-0.2-1.3,0.7-2.6,2.1-2.8c7.2-1,13.4-5.2,17-11.5
					c0.7-1.2,2.2-1.6,3.3-0.9c1.2,0.7,1.6,2.2,0.9,3.3c-4.4,7.6-11.9,12.6-20.6,13.9C36,61.1,35.9,61.1,35.8,61.1z"/>
			</g>
		</g>
		<g>
			<polygon class="st22" points="47.7,6.7 42.9,18.8 35.5,8.9 35.5,8.9 			"/>
			<g>
				<path class="st22" d="M58.7,34.4c-1.2,0-2.3-0.9-2.4-2.1c-1-7.2-5.2-13.4-11.5-17c-1.2-0.7-1.6-2.2-0.9-3.3
					c0.7-1.2,2.2-1.6,3.3-0.9c7.6,4.4,12.6,11.9,13.9,20.6c0.2,1.3-0.7,2.6-2.1,2.8C58.9,34.4,58.8,34.4,58.7,34.4z"/>
			</g>
		</g>
	</g>
	<polygon class="st21" points="30.6,48.2 27.7,44.2 22.9,45.7 27.3,32 35,34.4 	"/>
	<polygon class="st21" points="36.7,48.3 39.6,44.2 44.5,45.8 40.1,32.1 32.3,34.5 	"/>
	<path class="st22" d="M45.2,30.8c0,1.2-2.1,2-2.4,3c-0.4,1.1,0.9,3,0.2,3.9c-0.7,0.9-2.9,0.4-3.8,1c-0.9,0.7-1,2.9-2.1,3.3
		c-1.1,0.3-2.5-1.4-3.7-1.4c-1.2,0-2.6,1.7-3.6,1.4c-1.1-0.4-1.2-2.6-2.1-3.3c-0.9-0.7-3.1-0.1-3.8-1c-0.7-0.9,0.5-2.8,0.2-3.9
		c-0.3-1.1-2.4-1.9-2.4-3s2.1-2,2.4-3c0.4-1.1-0.9-3-0.2-3.9c0.7-0.9,2.9-0.4,3.8-1c0.9-0.7,1-2.9,2.1-3.3c1.1-0.3,2.5,1.4,3.6,1.4
		c1.2,0,2.6-1.7,3.7-1.4c1.1,0.4,1.2,2.6,2.1,3.3c0.9,0.7,3.1,0.1,3.8,1c0.7,0.9-0.5,2.8-0.2,3.9C43.1,28.8,45.2,29.6,45.2,30.8z"/>
	<path class="st13" d="M41.2,30.8c0,0.8-1.4,1.3-1.6,2c-0.2,0.7,0.6,2,0.1,2.6c-0.4,0.6-1.9,0.2-2.5,0.7c-0.6,0.4-0.7,1.9-1.4,2.2
		c-0.7,0.2-1.6-0.9-2.4-0.9c-0.8,0-1.7,1.1-2.4,0.9c-0.7-0.2-0.8-1.7-1.4-2.2c-0.6-0.4-2.1-0.1-2.5-0.7c-0.4-0.6,0.4-1.9,0.1-2.6
		c-0.2-0.7-1.6-1.2-1.6-2c0-0.8,1.4-1.3,1.6-2c0.2-0.7-0.6-2-0.1-2.6c0.4-0.6,1.9-0.2,2.5-0.7c0.6-0.4,0.7-1.9,1.4-2.2
		c0.7-0.2,1.6,0.9,2.4,0.9c0.8,0,1.7-1.1,2.4-0.9c0.7,0.2,0.8,1.7,1.4,2.2c0.6,0.4,2,0.1,2.5,0.7c0.4,0.6-0.4,1.9-0.1,2.6
		C39.8,29.4,41.2,30,41.2,30.8z"/>
	<polygon class="st7" points="37.2,27.6 32.5,32.2 30.4,30.1 28.5,31.9 32.5,35.9 32.6,35.9 32.6,35.9 39,29.5 	"/>
</g>
</svg>
