<?xml version="1.0" encoding="utf-8"?>
<!-- Generator: Adobe Illustrator 19.1.0, SVG Export Plug-In . SVG Version: 6.00 Build 0)  -->
<svg version="1.1" id="Layer_1" xmlns="http://www.w3.org/2000/svg" xmlns:xlink="http://www.w3.org/1999/xlink" x="0px" y="0px"
	 viewBox="0 0 72 72" style="enable-background:new 0 0 72 72;" xml:space="preserve">
<style type="text/css">
	.st0{fill:#D0D5D6;}
	.st1{fill:#F5F6F7;stroke:#D1D5D7;stroke-width:0.8269;stroke-linecap:round;stroke-linejoin:round;stroke-miterlimit:10;}
	.st2{fill:#FF6C0C;}
	.st3{fill:#C2531A;}
	.st4{opacity:0.2;fill:#5C6670;}
	.st5{fill:#333E48;}
	.st6{fill:#A4A9AD;}
	.st7{fill:#F7A800;}
	.st8{fill:#C9920E;}
	.st9{fill:#364A5E;}
	.st10{fill:#293B4D;}
	.st11{fill:#5C6670;}
	.st12{fill:#63A70A;}
	.st13{fill:#FFFFFF;}
	.st14{fill-rule:evenodd;clip-rule:evenodd;fill:#FF6C0C;}
	.st15{fill:#008FBE;}
	.st16{fill:#004D71;}
	.st17{fill:#F5F6F7;stroke:#D1D5D7;stroke-width:0.8644;stroke-linecap:round;stroke-linejoin:round;stroke-miterlimit:10;}
	.st18{fill:none;stroke:#A4A9AD;stroke-width:0.7396;stroke-miterlimit:10;}
	.st19{fill:none;stroke:#A4A9AD;stroke-width:0.6358;stroke-miterlimit:10;}
	.st20{fill:none;stroke:#A4A9AD;stroke-width:0.6008;stroke-miterlimit:10;}
	.st21{fill:#B34FC5;}
	.st22{fill:#732282;}
	.st23{fill:#C4D600;}
	.st24{fill-rule:evenodd;clip-rule:evenodd;fill:#B34FC5;}
	.st25{fill-rule:evenodd;clip-rule:evenodd;fill:#732282;}
	.st26{fill:#E2231A;}
	.st27{fill:#D1D5D7;}
	.st28{fill:#C3C6C8;}
</style>
<g>
	<g>
		<path class="st7" d="M38.4,17.5c0,0.6,0.5,1.2,1.2,1.2h8.3l-9.4-9.4h-0.1V17.5z"/>
		<g>
			<path class="st7" d="M39.5,20.4c-1.6,0-2.9-1.3-2.9-2.9V9.3H17.6c-0.9,0-1.7,0.8-1.7,1.7v20.1h23.5V54H45h1.5
				c0.9,0,1.7-0.8,1.7-1.7v-32H39.5z"/>
		</g>
	</g>
	<g>
		<path class="st2" d="M32.7,25c0,0.6,0.5,1.2,1.2,1.2h8.3l-9.4-9.4h-0.1V25z"/>
		<g>
			<path class="st2" d="M33.9,27.9c-1.6,0-2.9-1.3-2.9-2.9v-8.2H11.9c-0.9,0-1.7,0.8-1.7,1.7v41.4c0,0.9,0.8,1.7,1.7,1.7h2.3h9.7
				V47.8l-3.6,3.6c-0.6,0.6-1.6,0.6-2.2,0l-1.2-1.2c-0.6-0.6-0.6-1.6,0-2.2l8.3-8.3c0.6-0.6,1.6-0.6,2.2,0l8.3,8.3
				c0.6,0.6,0.6,1.6,0,2.2l-1.2,1.2c-0.6,0.6-1.6,0.6-2.2,0l-3.6-3.6v13.8h10.6h1.5c0.9,0,1.7-0.8,1.7-1.7v-32H33.9z"/>
		</g>
	</g>
</g>
</svg>
