<?xml version="1.0" encoding="utf-8"?>
<!-- Generator: Adobe Illustrator 19.1.0, SVG Export Plug-In . SVG Version: 6.00 Build 0)  -->
<svg version="1.1" baseProfile="basic" id="Layer_1"
	 xmlns="http://www.w3.org/2000/svg" xmlns:xlink="http://www.w3.org/1999/xlink" x="0px" y="0px" viewBox="0 0 72 72"
	 xml:space="preserve">
<g>
	<defs>
		<rect id="SVGID_16_" x="-0.8" y="-2.5" width="75.1" height="73.9"/>
	</defs>
	<clipPath id="SVGID_2_">
		<use xlink:href="#SVGID_16_"  overflow="visible"/>
	</clipPath>
	<g clip-path="url(#SVGID_2_)">
		<g id="boy">
			<g id="head_3_">
				<g id="neck_3_">
					<path fill="#FBC19E" d="M54.6,51.4c-1.6,0-2.9-5.7-1.9-13.2c-1.7-0.8-9,0.8-10.7,2.1c0,3.4,1,10.5-3.2,11.4
						c0,0-0.4,5.2,8.2,5.4C54.3,57.1,55.5,52.3,54.6,51.4z"/>
					<path opacity="0.2" fill="#F8C5A6" d="M41.9,38.4c1.7-0.8,9,0.8,10.7,2.1c0,2.5-0.6,7.1,0.9,9.6c-2.8-0.1-9.9-2.7-11.2-4.6
						c0,0,0-0.1,0-0.2C42.3,43.4,42.3,41,41.9,38.4z"/>
				</g>
				<g id="ears">
					<path fill="#FBC19E" d="M38,29.5c-1-1-3-2.3-3.2,1c-0.1,2,0.7,4.9,3.5,5.6C39.8,34.3,38,29.5,38,29.5z"/>
					<path fill="#FBC19E" d="M59.5,28.9c-1.8-1-2.2,0-2.9,1.6c0,0-0.3,5.6-0.3,6C58.7,35.5,61.6,32.2,59.5,28.9z"/>
				</g>
				<g id="face_5_">
					<path id="face_6_" fill="#FCC3A1" d="M57.1,23.4c-3-1.8-17.5-1.7-18.9,0.6c0,0-0.6,13.8,0.5,16.3c1.1,2.4,6.9,5.4,9.2,5.4
						c2,0.1,7.3-4.1,7.9-5.3C57.3,37.1,57.3,27,57.1,23.4z"/>
					<path opacity="0.29" fill="#FBC19E" d="M59.5,28.9c-1.3-0.7-1.9-0.4-2.4,0.4c0-1.8,0-3.4,0-4.7c-0.4-0.4-0.8-0.6-1.3-0.3
						c0.4,0.3,1,8.4-0.4,10.2c-2.2,3-1.2,6.4-1.5,7.8c1-0.8,1.7-1.5,1.9-1.9c0.4-0.9,0.7-2.4,1-4.2C59,35.1,61.5,32,59.5,28.9z"/>
					<path id="goatee" fill="#C2531A" d="M49.9,43.4c-0.2-1.6-3.8-0.9-4.2-0.4c-0.3,1.2,0.7,2.2,2.2,3.5
						C48.6,45.9,50,44.4,49.9,43.4z"/>
					<path id="mouth" opacity="0.8" fill="#E7835E" d="M51.6,38.2c0-0.1,0-0.2-0.1-0.3c-0.1-0.1-0.2-0.1-0.3-0.1c-0.2,0-0.3,0-0.5,0
						c0.2,0,0.3,0,0.5,0.1c0.1,0,0.2,0.1,0.2,0.2c-0.5,0.4-1.1,0.6-1.8,0.8C49,39,48.3,39,47.6,39c-0.7,0-1.4,0-2.1,0.1
						c-0.7,0.1-2.2,0.4-2.1,0.7l0,0.1l0.1,0c0.6-0.2,1.3-0.3,2-0.3c0.7,0,1.4,0,2.1,0c0.7,0,1.4,0,2.1-0.2
						C51.3,38.9,51.6,38.2,51.6,38.2L51.6,38.2z"/>
					<path id="nose_3_" opacity="0.8" fill="#E7835E" d="M49.2,36c0,0.3-1.4,0.7-1.8,0.8c-0.4,0-2-0.3-2.3-0.6
						c-0.2,0.5,0.9,1.1,2.2,1.1C48.4,37.3,49.7,36.7,49.2,36z"/>
					<g id="eyes_3_">
						<g>
							<path opacity="0.4" fill="#C9920E" d="M54.2,26.9c-0.6-0.3-3.9-0.5-4.6,0c0,0-0.7,1.1-0.5,1.3c2.8-1.1,5-0.1,5.5-0.1
								C54.9,28,54.6,27.1,54.2,26.9z"/>
							<g>
								<path fill="#FFFFFF" d="M49.8,31.1c1.1,0.7,3.5,0.1,4.5-0.1C54.5,28,48.9,29,49.8,31.1z"/>
								<g>
									<path d="M53,30c0-0.2,0-0.4-0.1-0.5c-0.6-0.1-1.4,0-2,0.2c0,0.1,0,0.1,0,0.2c0,0.6,0.4,1.1,1,1.1
										C52.4,31.1,52.9,30.6,53,30z"/>
								</g>
								<path d="M53.3,29.3C52.9,29.1,52.4,29,52,29c-0.5,0-1,0.1-1.4,0.4c-0.4,0.2-0.8,0.6-0.9,1c0.3-0.3,0.7-0.5,1.1-0.7
									c0.4-0.1,0.8-0.2,1.2-0.2c0.4,0,0.8,0,1.2,0.1c0.4,0.1,0.8,0.3,1.1,0.6C54.2,29.8,53.8,29.5,53.3,29.3z"/>
							</g>
						</g>
						<g>
							<path opacity="0.4" fill="#C9920E" d="M39.9,27c0.6-0.3,3.9-0.6,4.6-0.1c0,0,0.7,1.1,0.5,1.3c-2.8-1-4.9,0-5.4-0.1
								C39.2,28.2,39.4,27.2,39.9,27z"/>
							<g>
								<path fill="#FFFFFF" d="M44.5,31.1c-1,0.7-3.4,0.2-4.4,0C39.7,28.1,45.3,29,44.5,31.1z"/>
								<g>
									<path d="M41.3,30.1c0-0.2,0-0.4,0.1-0.5c0.6-0.1,1.4,0,2,0.2c0,0.1,0,0.1,0,0.2c0,0.6-0.4,1.1-1,1.1
										C41.9,31.1,41.4,30.7,41.3,30.1z"/>
								</g>
								<path d="M40.9,29.4c0.4-0.2,0.9-0.3,1.4-0.3c0.5,0,0.9,0.1,1.4,0.4c0.4,0.2,0.8,0.6,0.9,1c-0.3-0.3-0.7-0.5-1.1-0.6
									c-0.4-0.1-0.8-0.2-1.2-0.2c-0.4,0-0.8,0-1.2,0.1c-0.4,0.1-0.8,0.3-1,0.7C40.1,30,40.5,29.6,40.9,29.4z"/>
							</g>
						</g>
					</g>
				</g>
			</g>
			<g id="hair_7_">
				<path id="hair_8_" fill="#FF6C0C" d="M55.3,15.9c0.2,0.3,0.3,1,0.2,1.1c-16.2-8.7-19.7,5.5-23.6,1.3c0,1.1,2.6,5.4,3.2,6.4
					c-0.6-0.3-1.1-0.7-1.9-1.6c0.9,2.8,3.5,5.9,4.9,6.8c-0.3-2.3,2.4-6,4-6.5c4-1.1,6.7-0.1,10.9-1.9l-6.2,2
					c0.4-0.2,5.8-0.3,6.2-0.4c0.9,2.2,2.3,1.6,3.3,3.6c0.8,1.6,0.7,5.1,0.8,5.8c0.4-1.9,0.8-4.7,2.9-7.6
					C60,22.4,57.6,17.4,55.3,15.9z"/>
				<path id="shadow_8_" opacity="0.4" fill="#C9920E" d="M46.8,23.5c0.4-0.2,5.8-0.3,6.2-0.4c0.9,2.2,2.3,1.6,3.3,3.6
					c0.8,1.6,0.7,5.1,0.8,5.8c0.1-0.5,0.2-1.1,0.4-1.8c0.1-0.8,0.3-1.4,0.6-2c0.4-1.1,0.9-2.3,1.8-3.5c0.1-0.2,0.1-0.3,0.2-0.5
					c0,0,0,0,0,0c-0.5,0.5-2.1,1.6-2.7,2C56.5,25,55,19.6,56.1,18c-2.4,1-4.3-0.1-6,0c-4.8,0.3-7,3.2-9.3,3.3
					c3.1-1.7,4.5-4.2,5.4-4.8c-2.3,1.5-8.1,5.5-11.7,3.5c1.4,1.5,4.2,3.4,4.2,3.4c-2.1-0.8-4.6-1.4-6.7-5.2c0,1.1,2.6,5.4,3.2,6.4
					c-0.6-0.3-1.1-0.7-1.9-1.6c0.9,2.8,3.5,5.9,4.9,6.8c-0.3-2.3,2.4-6,4-6.5c3.1-0.9,5.5-0.4,8.4-1.1L46.8,23.5z"/>
			</g>
			<g id="t-shirt_4_">
				<path id="t-shirt_1_" fill="#008FBE" d="M61.9,70.7c2-0.4,9.5-0.4,9.5-0.4c-1.4-8.1-2.8-15.6-4.6-16.2c-3-1.1-8.8-1.8-11.8-2.9
					c-1.4,5.1-13.3,5.2-15.6,0c-5.6,2.2-7.9,2.5-11.3,4.1c-1.6,0.8-3,12-3.3,17.4l9.2-1.1c0.3,3.7,0.9,15.5-0.4,20.4
					c-0.2,0.6-1.3,2.5-1.3,3.1c-0.1,0.5,1.1,0.8,1,1.3c-0.2,1.1-1.2,2.3-1.8,2.7c-0.6,0.4,0,3.8,0.9,3.2c6.5,1.6,24.8,2.1,30.9-1.5
					c0.1-1.1-1.2-0.6-1-1.7c0.1-0.4,0.8-1,0.8-1.5c-0.1-0.6-1-1-1-1.8c-0.1-0.6,0.5-1.6,0.4-2.3C61.9,89.2,62.1,81.2,61.9,70.7z"/>
				<path id="color_on_shoulders" fill="#004D71" d="M24.6,72.6l9.2-1.1c0,0.2-0.5-14,0.3-15.5c0.5-0.8,4.9-3.3,4.9-3.3
					c1.8,3.5,11.8,5,15.8,0.2c0,0,0,0,0,0c1.1,0.3,4.9,1.7,5.5,2.7c0.9,1.7,1,15.7,0.9,15.4c0.1,0,0.4,0,0.6,0c0-0.2,0-0.3,0-0.5
					c2-0.4,9.5-0.4,9.5-0.4c-1.4-8.1-2.8-15.6-4.6-16.2c-3-1.1-8.8-1.8-11.8-2.9c-1.4,5.1-13.3,5.2-15.6,0
					c-5.6,2.2-7.9,2.5-11.3,4.1C26.3,56,24.9,67.2,24.6,72.6z"/>
				<path id="shadow_7_" opacity="0.3" fill="#004D71" d="M60.8,58.2c0.4,5.7-0.4,17.2-3.2,18.6c-0.7,0.3-5.6,1.2-6.5,0.9
					c-2.3,0.1,7.6-15.3,10.2-24.9c-0.7-0.1-1.3-0.3-2-0.4c-2.6,5.9-9.7,21.3-11.4,25c-4.8,0.1-9.6-0.1-11.6-1.1
					c-1.6-0.8-2-10.3-2.6-17.5c-0.4,4.9-0.9,8.8-1.4,11.5c0,0-4.8,0.9-7.8,2.1c0,0.1,0,0.2,0,0.3l9.2-1.1c0.3,3.7,0.9,15.5-0.4,20.4
					c-0.2,0.6-1.3,2.5-1.3,3.1c-0.1,0.5,1.1,0.8,1,1.3c-0.2,1.1-1.2,2.3-1.8,2.7c-0.6,0.4,0,3.8,0.9,3.2c1.2,0.3,2.8,0.5,4.6,0.7
					C34,101.5,44.4,86,48,85.6c3.6,1.5,14.3,7.7,11.8,10.1c-1.4,1.3-4.4,2.9-8.4,4c1.2,0.6,8.5-1.7,9.8-1.5
					c-4.3,3.5-15.2,5.2-23.5,4.9c0,0,0,0,0,0c8.2,0.8,20.5,0.5,25.3-2.3c0.1-1.1-1.2-0.6-1-1.7c0.1-0.4,0.8-1,0.8-1.5
					c-0.1-0.6-1-1-1-1.8c-0.1-0.6,0.5-1.6,0.4-2.3c-0.4-4.5-0.2-12.5-0.4-23c2-0.4,9.5-0.4,9.5-0.4l-8.8-1.6
					C62.4,66.9,61.2,61.4,60.8,58.2z"/>
			</g>
			<path id="bag_2_" d="M32.6,111c0.1-2.2,0-4.4,0.2-5.9c0.6-1.1,23.4-37.6,28.5-52.8c-0.9-0.2-1.9-0.4-3.1-0.7
				c-0.7,4.3-16.4,33.3-26.4,49.2c-1.4,0.7-3.2,1.5-3.5,1.6c-3.1,1.5-3.1,22.5-2.4,23.2c0,0,4.1,1.1,4.6,1c0.5,0,1.6-0.6,2.9-1.3
				C33,118.2,32.5,112.6,32.6,111z"/>
			<g id="crossed_arms_1_">
				<g id="right_arm_5_">
					<path id="right_arm_7_" fill="#F9AA7E" d="M58.6,79.9c-2.7,0.5-18.8,0.5-23.9,0c-0.3-3-0.3-6.4-0.8-8.3c0,0-5.5,0.5-7.8,0.9
						c-0.6,8.2,3.8,12.6,4.2,16.4c3.6,0.7,25.6-6,28.9-7.5C59.1,81.3,60.9,79.5,58.6,79.9z"/>
					<g id="shadows_7_">
						<path opacity="0.3" fill="#EC8449" d="M26,72.6c2.6,0.3,7.1,1.2,8.4,3.6c-0.1-1.8-0.2-3.5-0.6-4.6c0,0-5.5,0.5-7.8,0.9
							C26,72.5,26,72.5,26,72.6z"/>
					</g>
				</g>
				<g id="left_arm_4_">
					<linearGradient id="left_arm_2_" gradientUnits="userSpaceOnUse" x1="54.8943" y1="65.289" x2="50.7811" y2="82.741">
						<stop  offset="0.6405" style="stop-color:#F79B6C"/>
						<stop  offset="0.7873" style="stop-color:#F9AA7E"/>
					</linearGradient>
					<path id="left_arm_5_" fill="url(#left_arm_2_)" d="M61.2,70.7c0.1,3.6,0.3,5,0,8.4c-4.2-0.3-7-0.2-11-0.9
						c-7.1-1.1-11.5-0.8-14.4,0.1L34,79.1l0,0.8c8.1-0.3,17.2,9.6,31.6,8.6c-0.6-2.5,5.9-9.1,4.3-18.3C68.3,70.4,64,70.2,61.2,70.7z
						"/>
					<g id="shadows_5_">
						<path opacity="0.2" fill="#EC8449" d="M61.3,73.3c1.6-1.6,5.1-2.9,8.6-3.1c-1.7,0.1-6,0-8.7,0.4
							C61.2,71.7,61.3,72.6,61.3,73.3z"/>
					</g>
				</g>
				<g id="right_hand_2_">
					<path fill="#F9AA7E" d="M69.9,73.3c-0.2,0-1.8,0.9-1.9,0.8c1.2-0.7,2.3-1.2,1.8-2.6c0,0-1,0.6-1.3,0.7c0.4-0.7,0.3-1,0.1-1.2
						c-2.1,1.3-3.7,1.9-5.7,2.6c-0.3,0.5-2.7,4.1-5.4,5.1c1.7,0.1,4.4,0.2,4.4,0.2c2.3,0,8.1-2.2,7-3.3c-0.2-0.1-0.8,0.2-1.2,0.2
						C69.5,74.9,70,74.5,69.9,73.3z"/>
				</g>
			</g>
		</g>
		<g>
			<g id="black_hair_girl">
				<g id="head">
					<path id="hair_3_" fill="#111111" d="M8.5,38.5l-0.1,7.2c0.5,0.6,4.6,7.3,12.3,7.3c5.9,0,8.1-1.1,9-2.3c0.7-1,2.9-5,2.9-10.7
						C32.6,39.2,8.5,38.5,8.5,38.5z"/>
					<path id="neck_5_" fill="#F8A063" d="M24.4,48.3h-8.4c0.5,1.6,1.7,8.3-1.2,9.4c0,0,3.3,5.5,7.2,5.4c1.5,0,5.7-2.9,6.2-4.6
						C22.1,57.6,23.5,49.8,24.4,48.3z"/>
					<path opacity="0.7" fill="#F8A063" d="M24.1,55.3c-0.6-1.7-0.5-3.1-0.5-4.3c-1.3,0.4-2.6,0.1-4.5-1c-1-0.6-2.3-1.5-3.3-2.4
						c0.2,0.9,0.5,1.5,0.6,2.5C16.5,50.1,19.2,54.1,24.1,55.3z"/>
					<g id="face_11_">
						<path id="face_12_" fill="#F8A063" d="M13.5,45c-1.1-2.4-1.7-6.4-1.1-13.4c0.6-6.3,17.9-8.7,19.3,0.7c0,0,0.7,9.5-0.5,12.2
							c-1.5,3.5-3.5,4.7-5.8,6.3c-2.1,1.5-3.4,1.5-6.1-0.1C17.3,49.6,14.9,48.1,13.5,45z"/>
						<path opacity="0.3" fill="#F8A063" d="M31.7,32.4c-0.7-4.7-5.4-6.4-10-6.2c4.1,0.2,7.9,2,8.5,6.2c0,0,0.7,9.5-0.5,12.2
							c-1.5,3.5-3.5,4.7-5.8,6.3c-0.8,0.6-1.5,0.9-2.1,1.1c1.2,0.3,2.2-0.1,3.6-1.1c2.3-1.6,4.3-2.9,5.8-6.3
							C32.4,41.9,31.7,32.4,31.7,32.4z"/>
						<g id="lips_11_">
							<g id="shadows_9_">
								<path opacity="0.3" fill="#FAAE72" d="M20,47.1c0.2,0,5.3-0.1,5.3-0.1c-0.4,0.4-0.5,2-3,2C20.5,49,20.1,47.3,20,47.1z"/>
							</g>
							<g id="lips_12_">
								<path fill="#F15941" d="M25.7,46.7c-1,0.7-0.6,1.7-2.5,2c-0.9,0.1-2.3,0.1-2.9-0.9c-0.2-0.5-0.4-0.7-0.6-0.9L25.7,46.7z"/>
								<path fill="#E5442F" d="M22.8,46.3c1.2,0,2.8,0.6,3.4-0.2c0,1.5-6.9,1.8-7,0.2C19.8,46.9,21.1,46.4,22.8,46.3z"/>
								<path fill="#CC2E27" d="M22.8,47.3c1.2,0,3.2-0.3,3.4-1.1c0,1.5-6.9,1.8-7,0.2C19.4,47.2,21,47.3,22.8,47.3z"/>
							</g>
						</g>
						<path id="nose_6_" opacity="0.7" fill="#F8A063" d="M23.4,40c0,0,0.4,1.8,1.2,4c-0.6,0.6-2.1,0.7-2.6,0.5c1.4-0.2,2-0.7,1.9-1
							C23.6,42.3,23.3,41.2,23.4,40z"/>
						<g id="eyes_6_">
							<g>
								<g id="eye_12_">
									<path fill="#FFFFFF" d="M20.4,38.9l-0.1,0.1c-1.8,0.9-4,0-4.7-0.5C17.1,37.2,19.4,37.1,20.4,38.9z"/>
									<path fill="#07090E" d="M17,38.3c0,0.4,0.3,0.8,0.8,0.8c0.4,0,0.8-0.3,0.8-0.8c0-0.2-0.1-0.4-0.2-0.5
										C18.1,37.6,17,37.9,17,38.3z"/>
									<path fill="#07090E" d="M18.6,37.4c1,0.3,1.5,0.8,1.9,1.5l-0.2,0.1c-1.7-2.3-4.3-0.8-4.7-0.5l-0.9-0.3
										C15.3,38.3,16.8,37,18.6,37.4z"/>
								</g>
								<path id="eyebrow_12_" fill="#1A1A1A" d="M20.3,36.2c0.1,0.1,0.2,0.3,0.2,0.5c-0.2,0.2-1.9-0.5-3.2-0.7
									c-0.8-0.1-1.7,0-2.3,0.5C16.3,34.8,18.7,35.1,20.3,36.2z"/>
							</g>
							<g>
								<g id="eye_11_">
									<path fill="#FFFFFF" d="M25.3,38.9l0.1,0.1c1.8,0.9,4,0,4.7-0.5C28.5,37.2,26.3,37.1,25.3,38.9z"/>
									<path fill="#07090E" d="M26.9,38.3c0,0.4,0.3,0.8,0.8,0.8c0.4,0,0.8-0.3,0.8-0.8c0-0.2-0.1-0.4-0.2-0.5
										C28,37.6,26.9,37.8,26.9,38.3z"/>
									<path fill="#07090E" d="M27,37.4c-1,0.3-1.5,0.8-1.9,1.5l0.2,0.1c1.7-2.3,4.3-0.8,4.7-0.5l0.9-0.3
										C30.4,38.3,28.9,37,27,37.4z"/>
								</g>
								<path id="eyebrow_11_" fill="#1A1A1A" d="M25.4,36.2c-0.1,0.1-0.2,0.3-0.2,0.5c0.2,0.2,1.9-0.5,3.2-0.7
									c0.8-0.1,1.7,0,2.3,0.5C29.3,34.8,27,35.1,25.4,36.2z"/>
							</g>
						</g>
					</g>
					<path id="hair" fill="#1A1A1A" d="M30,25.2c-1.5-3.4-6.8-5.3-13.2-4.6c-4.9,0.5-15,7.4-11.6,26.8c0.3,1.8,3.6,3.3,5.4,4.1
						c-0.3-1.1-0.6-2.6-0.9-3.5c1.3,3.4,3.7,5,6.9,5.9c-3.7-2.4-4.2-12.8-1.8-15.7c3.5-4.2,10.7-5.9,14.7-9.9
						c1.1,4.8,1.9,7.2,1.9,12.6c0,4.7-2.7,8.1-3.5,9.8c-0.8,1.7-0.6,3.8,3,3c-0.9-0.8-0.6-1.7-0.5-2.5c0.2,0.4,0.5,1.4,1.5,2
						c1.1-0.5,1.8-0.7,2.9-1.3C30,50.2,39.4,27.6,30,25.2z"/>
				</g>
				<path id="violet_streak" fill="#7A3E74" d="M6.1,34.4c9.9,2.5,18-5.8,20.5-8.9C19.6,30.5,13.1,35.3,6.1,34.4z"/>
				<g id="left_arm">
					<path id="sleeve" fill="#333E48" d="M27.8,57.9l1.5,14.8c2.5,6.8,6,14.3,5.5,22.6c-0.4,6.6-3.2,8.4,3.7,12
						C47.3,103.2,37.4,61.7,27.8,57.9z"/>
				</g>
				<g id="blouse_2_">
					<path id="blouse_3_" fill="#333E48" d="M30.3,89.2c-0.9-9.6,3.5-14,3.1-17.1c-0.9-7.4-5.6-14.1-5.6-14.1c0,5.2-11.5,4-14.4,0.1
						c-3.4-0.1-8.9,3.1-8.9,3.1c-2.6,4.3-6.9,16.2-8.1,28c0,2.9,3.8,24.9,10.4,23.8c1-0.1,2-1.7,2.7-3.3c7.7,1,22.3-3,24.3-6.8
						C35.6,101.3,30.9,94.7,30.3,89.2z M8.6,103.8C6.4,100,3.7,92.7,3.4,88.1c0-1.6,2.1-10.1,3.8-14C13.1,87.5,10.3,97.8,8.6,103.8z
						"/>
					<path id="shadow_4_" opacity="0.15" fill="#333E48" d="M14,109.7c-2.1-2.1-3.1-5.1-2.9-8c0.2-4.1,1.3-6.3,1.8-10.3
						c0.2-1.6,0.5-7.1,1.1-8c0.6-0.9,15.4-4,15.6-1.5c0.3,2.5,0.5,5.1,0.5,7.7c0.1-0.2,0.1-0.5,0.2-0.7c-0.8-9.4,3.5-13.8,3.2-16.9
						c-0.2-1.8-0.7-3.7-1.3-5.3c-0.5-0.3-17.6-3.2-20.4-3.1c2.3,6.9,8.8,10.2,9.6,11.5c-1.8,0.8-10,3.2-12.1-2.5
						C9,71.8,8.1,66.2,6.4,62.2c0,0,1.7,6.6,0.9,12c5.9,13.3,3,23.6,1.3,29.6c0.6,0.7,2,2.9,1.3,4.8c0.4,0.3,1.3,0.8,1.9,1.2
						C12.5,109.8,13.2,109.8,14,109.7z"/>
				</g>
				<g id="scarf_1_">
					<path id="scarf" fill="#732282" d="M26.9,55.3c0,0.9-2.1-0.3-2.3,1c0.3,0.6,1.4,1.6,2.4,1.9c-1,3.1-5.9,3.9-12.2-3.4
						c0,0-2.8-0.8-3,0.9c-2.9,0.5-3.4,3.1-1.9,5.1c2,4,9.4,14.5,16.4,13.9C35.5,73.7,36,57.7,26.9,55.3z"/>
					<path id="shadow_2_" opacity="0.59" fill="#732282" d="M26.9,55.3c0,0.9-2.1-0.3-2.3,1c0.3,0.6,1.4,1.6,2.4,1.9c0,0,0,0,0,0
						c0,0,4.1,4.1,0.1,5.2c3.8,0.7,3.1-3.9,1.5-5.8c1.3,0.9,2.6,2.7,2.8,7c0.1,1.9-2.5,6.8-3.6,7.7c-1.5,1.3-16.2-6-17.2-12.7
						c-0.2-1.3,0.8-3.6,1.5-2.9c0.8,0.7,1.8,2.2,2.8,2.6c-0.2-0.6-4.3-4.7-0.2-4.5c0,0-2.8-0.8-3,0.9c-2.9,0.5-3.4,3.1-1.9,5.1
						c2,4,9.4,14.5,16.4,13.9C35.5,73.7,36,57.7,26.9,55.3z"/>
				</g>
			</g>
		</g>
	</g>
	<path opacity="0.8" clip-path="url(#SVGID_2_)" fill="#E7835E" d="M36.3,31.8c0-0.5,0.3-1.5,0.8-0.7l-0.1-0.3
		c-0.4-0.5-0.8-1.2-1.2-0.3c-0.1,0.3-0.2,0.9-0.2,1.3c0.1,0.9,0.6,2.3,1.4,2.7C36.7,33.7,36.4,32.6,36.3,31.8z"/>
</g>
</svg>
