<?xml version="1.0" encoding="utf-8"?>
<!-- Generator: Adobe Illustrator 19.0.1, SVG Export Plug-In . SVG Version: 6.00 Build 0)  -->
<svg version="1.1" id="Layer_1" xmlns="http://www.w3.org/2000/svg" xmlns:xlink="http://www.w3.org/1999/xlink" x="0px" y="0px"
	 viewBox="0 0 144 144" style="enable-background:new 0 0 144 144;" xml:space="preserve">
<style type="text/css">
	.st0{clip-path:url(#SVGID_2_);}
	.st1{opacity:0.4;fill:#818181;}
	.st2{fill:#FDD1B0;}
	.st3{opacity:0.25;fill:#F9B38A;}
	.st4{opacity:0.7;fill:#FABD98;}
	.st5{opacity:0.7;}
	.st6{opacity:0.2;fill:#F37C3F;}
	.st7{fill:#FFFFFF;}
	.st8{fill:#3E1410;}
	.st9{fill:url(#SVGID_3_);}
	.st10{fill:url(#SVGID_4_);}
	.st11{fill:url(#hair_4_);}
	.st12{fill:#333E48;}
	.st13{fill:#49606C;}
	.st14{opacity:0.3;fill:#49606C;}
	.st15{fill:#F3F3F3;}
	.st16{fill:#E6E6E5;}
	.st17{fill:#0E222D;}
	.st18{opacity:0.5;fill:#0E222D;}
	.st19{opacity:0.7;fill:#11273D;}
	.st20{opacity:0.4;fill:#1A1A1A;}
	.st21{clip-path:url(#SVGID_6_);}
	.st22{fill:#A97C50;}
	.st23{opacity:0.7;fill:#A57E5C;}
	.st24{fill:#8B5E3C;}
	.st25{fill:#3C2415;}
	.st26{opacity:0.8;fill:#8B5E3C;}
	.st27{fill:#36160E;}
	.st28{opacity:0.25;fill:#8B5E3C;}
	.st29{fill:#25110B;}
	.st30{opacity:0.4;fill:#524F4F;}
	.st31{fill:url(#SVGID_7_);}
	.st32{opacity:0.3;fill:url(#SVGID_8_);}
	.st33{fill:url(#SVGID_9_);}
	.st34{opacity:0.3;fill:url(#SVGID_10_);}
	.st35{opacity:0.2;fill:url(#SVGID_11_);}
	.st36{fill:#131313;}
	.st37{fill:url(#SVGID_12_);}
	.st38{fill:url(#SVGID_13_);}
	.st39{fill:#010101;}
	.st40{fill:#F1F2F2;}
	.st41{opacity:0.3;fill:#303030;}
	.st42{fill:#E2231A;}
	.st43{opacity:0.75;fill:#C3C6C8;}
	.st44{fill:#0B0A0B;}
	.st45{fill:#282829;}
	.st46{fill:#1C1B1C;}
	.st47{fill:#F9A45D;}
	.st48{clip-path:url(#SVGID_15_);}
	.st49{opacity:0.25;fill:#333333;}
	.st50{fill:#A14423;}
	.st51{opacity:0.5;fill:#A14423;}
	.st52{fill:#3B3434;}
	.st53{fill:#2E2D26;}
	.st54{opacity:0.25;fill:#2E2D26;}
	.st55{opacity:0.2;fill:#7B7C68;}
	.st56{fill:#63A70A;}
	.st57{opacity:0.4;fill:#63A70A;}
	.st58{opacity:0.4;}
	.st59{fill:#1F130A;}
	.st60{fill:#42150D;}
	.st61{fill:#32130C;}
	.st62{fill:#210F0B;}
	.st63{fill:#D1D3D4;}
	.st64{fill:#EF4136;stroke:#58595B;stroke-width:0.1415;stroke-miterlimit:10;}
	.st65{fill:#AAB4BF;}
	.st66{fill:#9FB4B8;}
	.st67{fill:#5B6B71;}
	.st68{fill:#879FA9;}
	.st69{clip-path:url(#SVGID_17_);}
	.st70{fill:#C4D600;}
	.st71{opacity:0.7;fill:#753317;}
	.st72{clip-path:url(#SVGID_19_);}
	.st73{opacity:0.3;fill:#524F4F;}
	.st74{fill:#FBC19E;}
	.st75{opacity:0.2;fill:#F8C5A6;}
	.st76{fill:#FCC3A1;}
	.st77{opacity:8.000000e-002;fill:url(#SVGID_20_);}
	.st78{opacity:8.000000e-002;fill:url(#SVGID_21_);}
	.st79{opacity:0.29;fill:#FBC19E;}
	.st80{fill:#C2531A;}
	.st81{opacity:0.8;fill:#E7835E;}
	.st82{opacity:0.4;fill:#C9920E;}
	.st83{fill:#FF6C0C;}
	.st84{fill:#2D4C56;}
	.st85{fill:#F6D2AE;}
	.st86{fill:#0C2633;}
	.st87{opacity:0.1;fill:url(#SVGID_22_);}
	.st88{opacity:0.1;fill:url(#SVGID_23_);}
	.st89{opacity:0.2;fill:#FFFFFF;}
	.st90{fill:#008FBE;}
	.st91{fill:#004D71;}
	.st92{opacity:0.3;fill:#004D71;}
	.st93{fill:#F9AA7E;}
	.st94{opacity:0.3;fill:#EC8449;}
	.st95{fill:url(#left_arm_2_);}
	.st96{opacity:0.2;fill:#EC8449;}
	.st97{opacity:0.25;fill:#7B7C68;}
	.st98{fill:#111111;}
	.st99{fill:#F8A063;}
	.st100{opacity:0.7;fill:#F8A063;}
	.st101{opacity:0.3;fill:#F8A063;}
	.st102{opacity:0.3;fill:#FAAE72;}
	.st103{fill:#F15941;}
	.st104{fill:#E5442F;}
	.st105{fill:#CC2E27;}
	.st106{opacity:0.12;fill:url(#SVGID_24_);}
	.st107{opacity:0.12;fill:url(#SVGID_25_);}
	.st108{fill:#07090E;}
	.st109{fill:#1A1A1A;}
	.st110{fill:#7A3E74;}
	.st111{fill:#2D2D3B;}
	.st112{opacity:0.15;fill:#333E48;}
	.st113{fill:#732282;}
	.st114{opacity:0.59;fill:#732282;}
	.st115{opacity:0.8;clip-path:url(#SVGID_19_);fill:#E7835E;}
	.st116{clip-path:url(#SVGID_27_);}
	.st117{opacity:0.15;fill:#010101;}
	.st118{fill:#2D140D;}
	.st119{fill:url(#trousers_3_);}
	.st120{opacity:0.5;fill:url(#SVGID_28_);}
	.st121{opacity:0.5;fill:url(#SVGID_29_);}
	.st122{opacity:0.25;fill:#5D2D11;}
	.st123{opacity:0.1;fill:#5C5925;}
	.st124{fill:#FECD8F;}
	.st125{opacity:0.5;fill:#FAB072;}
	.st126{fill:#FFE9CC;}
	.st127{opacity:0.3;fill:#A67D52;}
	.st128{fill:#FECC8C;}
	.st129{opacity:0.85;}
	.st130{opacity:0.15;fill:#004D71;}
	.st131{opacity:0.2;fill:#004D71;}
	.st132{opacity:0.3;fill:#ACAE85;}
	.st133{fill:#FFEFD9;}
	.st134{opacity:0.58;fill:#F8A063;}
	.st135{fill:#F69FA5;}
	.st136{fill:#7F8C8D;}
	.st137{fill:#F8CB5C;}
	.st138{fill:#FDC78F;}
	.st139{fill:#D53227;}
	.st140{fill:#BBAF8A;}
	.st141{fill:none;stroke:#DCCCA0;stroke-width:0.182;stroke-miterlimit:10;}
	.st142{fill:none;stroke:#DCCCA0;stroke-width:0.182;stroke-miterlimit:10;stroke-dasharray:0.6995,0.6995;}
	.st143{fill:#E6E7E8;}
	.st144{fill:#A7A9AC;}
	.st145{fill:#FDC485;}
	.st146{fill:#A4A9AD;}
	.st147{opacity:0.3;fill:#333E48;}
	.st148{fill:#5C6670;}
	.st149{fill:#FFFFFF;stroke:#333E48;stroke-width:3.9122;stroke-miterlimit:10;}
	.st150{fill:#465259;}
	.st151{fill:#C3C6C8;}
	.st152{fill:#E42A27;}
	.st153{fill:#D0D5D6;}
	.st154{fill:#F7A800;}
	.st155{fill:#C9920E;}
	.st156{fill:#364A5E;}
	.st157{fill:#293B4D;}
	.st158{fill:#FFFFFF;stroke:#333E48;stroke-width:4.0877;stroke-miterlimit:10;}
	.st159{display:none;}
	.st160{display:inline;}
	.st161{fill:#F1F4F7;}
	.st162{fill:#94A2AF;}
	.st163{fill:#F8EBD4;}
	.st164{fill:#FFD162;}
	.st165{fill:#F5F6F7;}
	.st166{fill:#D1D5D7;}
	.st167{fill:#AAB5BE;}
	.st168{opacity:0.52;fill:#F7A800;}
	.st169{fill:#F6F9FB;}
	.st170{fill:#E7EAED;}
</style>
<g>
	<defs>
		<rect id="SVGID_26_" x="9.9" y="-5.7" width="117.6" height="147.8"/>
	</defs>
	<clipPath id="SVGID_2_">
		<use xlink:href="#SVGID_26_"  style="overflow:visible;"/>
	</clipPath>
	<g id="thinking_1_" class="st0">
		<rect x="83.3" y="134.4" class="st123" width="11.8" height="4.7"/>
		<g>
			<g>
				<g id="neck_7_">
					<path class="st128" d="M56.3,97.2c1-2.4,0.2-21.5-0.8-23.3c0,0,16.1,8.9,22.4,6.6c-1.3,18.5-1.2,23.9,7.7,23.6
						c-11.9,14.8-34.5,8.8-38.5-1.7C48.2,102,54.9,100.3,56.3,97.2z"/>
				</g>
				<g id="sweater_1_">
					<path class="st91" d="M27.6,206.1c1.9-0.3,7.6-4.2,9.4-6.8c-15.8-36.8,1.5-60.1,2.4-62.4c4.1,14-2.9,38.7,3.4,51.6
						c-4.4,2.5-3.3,4.3-3.4,6.3c-0.2,2.8-3.7,4.8,0.1,6.5c5.6-1.5,15.1,0,21.8,0.9c15.1,2.1,30.7,0.3,36-3.7
						c0.1-0.1,0.2-0.1,0.3-0.2c2,2.6,7.3,6.2,9.2,6.5c22.1-30,9.9-67.1-0.3-87.2c-0.8-1.6-3-7.3-6.7-9.6c-3.1-2-8.7-4.1-18.7-5.2
						c-2.6,14.3-28,9.6-30.5-2.1c-6.9,2.4-20.2,7.3-23.2,9.8C24.3,117,0.5,170.5,27.6,206.1z M100.1,193.1c0-0.1,0-0.1,0-0.2
						c-0.4-1.8-2.5-4.5-1.3-15.7c1-9.6,2.2-19.9,3.1-30.2C107.7,162,107.4,178.9,100.1,193.1z"/>
					<g id="sweater_sleeve_1_" class="st129">
						<path class="st130" d="M39.1,137.3c-17,29.6-5,55.6-2.3,62.2c-1.8,2.6-7.5,6.4-9.4,6.8c3.7-2.3,6-4.2,7-6
							C17.4,170.2,39.1,137.3,39.1,137.3z"/>
					</g>
					<g id="shadows_8_">
						<path class="st131" d="M80.1,151.3c4.8-5.3,17-1.6,18-16.4c0.9-12.5,1.6-26.2-9.3-30.8c4.6,0.7,9.1,2.2,11.6,4.4
							c6.8,6,17.7,37.7,18.1,48.8c0.6,16.3-0.2,23.9-5.5,36.4l-6.7,10.9c0,0-6.9-3.2-8.9-6.4c-0.6-1,2.4-5.2,2.6-5.4
							c1.6-1.7,5.4-13.4,5.9-21.7c0.7-13.2-4.1-23.9-4.1-23.9s-2.1,20.5-3.1,29.9c-1.1,11.1,0.9,13.9,1.3,15.7
							c0.6,2.8-1.3,4.3-2.9,5.5c-3.7,2.8-12.4,4.5-22.5,4.6c10.8-4.8,6.5-9.9,4.1-21C77,173.6,74.9,157.1,80.1,151.3z"/>
						<path class="st131" d="M44,159.9c-0.3-16.6-1.5-44-12.3-49.5c9.7,5.9,9,33.3,9,33.3c2.3,12.3-4.3,32,2,44.9
							c-4.4,2.5-2.1,4.1-2.3,6.1c-0.2,2.8-4.9,4.9-1,6.6c5.6-1.5,15.1,0,21.8,0.9c3.3,0.5,6.7,0.6,9.9,0.5c0.2-0.1,0.3-0.2,0.5-0.3
							c-12.8-0.9-32-4.3-27.5-10.4c2.4,1.7,13.8,3.2,16,2.7c-12.8-3.2-15.6-7.5-16.6-12c4.5,1,15.9,3.9,19.8,3.7
							c-3.4-0.1-15.1-4.3-18.4-12.4L44,159.9z"/>
					</g>
				</g>
				<g id="collar_2_">
					<g>
						<path class="st132" d="M50.5,100.6c1.1,5.3,7,9.2,13.3,10.5c-1.6,2.1-2.1,5.3-2.5,5.9c-2.3-1.7-10.8-10.7-13-15.6
							C49,101.1,49.8,100.9,50.5,100.6z"/>
						<path class="st132" d="M86.3,103.8c-1.8,4.2-5.9,11.6-8,13.3c-0.5-0.8-1.5-4.6-2.6-7.1c2.6-1.4,4.6-3.7,5.2-7.2
							C82.1,103.1,84.1,103.4,86.3,103.8z"/>
					</g>
					<path class="st133" d="M56.7,93.6c0,1.5-0.1,2.7-0.1,2.7c-1.9,4.3,7.3,7.8,8.6,9.6c0.6,0.9,3.8,4.3,5.1,5.3
						c1-1.3,3.5-4.5,4.3-5.9c4.4-2.9,2.7-7.5,2.8-9.9c0,0,7.7,6.6,7.7,7.9c-0.1,2.4-4.4,10.1-6.2,12.3c-0.3-2.1-1.3-4.4-1.8-6.5
						c-5.7,4.6-13,2.2-14.8,1.8c-0.6,1.7-1.2,3.5-1.6,4.8c-2.3-2.4-11.7-12.2-11.9-14.3C48.7,99.6,55.1,94.3,56.7,93.6z"/>
					<path class="st134" d="M65.2,105.9c0.6,0.9,3.8,4.3,5.1,5.3c1-1.3,3.5-4.5,4.3-5.9c1,0.4,2,2,2.6,3.7c-5.7,4.6-13,2.2-14.8,1.8
						C62.9,109.4,64.3,105.2,65.2,105.9z"/>
				</g>
			</g>
			<g>
				<g>
					<g>
						<path class="st135" d="M83.8,138.2l-0.5-0.9c-0.2,0-0.4,1.1-0.4,0.9l0-0.3c0,0,0,0,0-0.1l0.9,0L83.8,138.2z"/>
					</g>
					<g>
						<path class="st135" d="M84.7,138.1c0,0.2-0.2-0.8-0.4-0.8l-0.5,0l0,0.5l0.9,0c0,0,0,0,0,0.1L84.7,138.1z"/>
					</g>
					<g>
						<path class="st136" d="M82.9,132.1c0.1,0,0.2-0.1,0.3-0.2c0,0.1,0.2,0.2,0.3,0.2l0.3,5.2l-0.9,0l-0.3-5.5l0,0c0,0,0,0,0,0.1
							C82.6,132,82.7,132.1,82.9,132.1z"/>
					</g>
					<g>
						<path class="st136" d="M83.5,132.1c0.1,0,0.3-0.1,0.3-0.2c0,0.1,0.2,0.2,0.3,0.2c0.2,0,0.3-0.1,0.3-0.3l0.3,5.5l-0.9,0
							L83.5,132.1z"/>
					</g>
					<g>
						<polygon class="st137" points="82.9,137.8 82.9,137.8 82.9,137.4 82.9,137.3 83.8,137.2 83.8,137.4 83.8,137.7 						"/>
					</g>
					<g>
						<polygon class="st137" points="84.7,137.7 83.8,137.7 83.8,137.4 83.8,137.2 84.7,137.2 84.7,137.4 84.7,137.7 						"/>
					</g>
					<g>
						<path class="st138" d="M83.2,131.9c0,0.1-0.1,0.2-0.3,0.2c-0.2,0-0.3-0.1-0.3-0.3c0,0,0-0.1,0-0.1c0,0,0.3-0.7,0.5-1.1
							c0.1,0.1,0.2,0.1,0.4,0.1l0,1l0,0l0,0.4C83.3,132.1,83.2,132,83.2,131.9z"/>
					</g>
					<g>
						<path class="st138" d="M84,132c-0.1,0-0.3-0.1-0.3-0.2c0,0.1-0.1,0.2-0.3,0.2l0-0.3l0,0l0-1c0.1,0,0.3-0.1,0.4-0.1
							c0.2,0.4,0.5,1.1,0.5,1.1c0,0,0,0,0,0c0,0,0,0,0,0.1C84.3,131.9,84.2,132,84,132z"/>
					</g>
					<g>
						<path class="st139" d="M83.4,130C83.4,130,83.4,130,83.4,130c0.1,0,0.2,0.3,0.4,0.6c-0.1,0.1-0.2,0.1-0.4,0.1L83.4,130z"/>
					</g>
					<g>
						<path class="st139" d="M83.1,130.6c0.1-0.3,0.3-0.6,0.3-0.6l0,0.7C83.3,130.7,83.2,130.7,83.1,130.6z"/>
					</g>
				</g>
				<rect x="82.4" y="133.7" class="st140" width="12.1" height="4.7"/>
				<g>
					<g>
						<line class="st141" x1="94.2" y1="134.7" x2="93.8" y2="134.7"/>
						<line class="st142" x1="93.1" y1="134.7" x2="83.7" y2="134.7"/>
						<line class="st141" x1="83.3" y1="134.7" x2="83" y2="134.7"/>
					</g>
				</g>
				<rect x="85" y="132.5" class="st143" width="7.7" height="1.2"/>
				<rect x="85" y="133.5" class="st144" width="7.7" height="0.2"/>
			</g>
			<path class="st145" d="M77.6,87.1c-2.4,2.6-5.6,4.4-10,4.9c-5,0-8.3-1.1-10.8-2.8l0,2.5c3.1,2.3,6.9,3.5,11.8,3.5
				c3.5,0,6.4-0.7,8.8-1.9L77.6,87.1z"/>
		</g>
		<g id="head_7_">
			<g id="ears_1_">
				<path class="st124" d="M40.9,54c2-2.8,5.6,0,5.6,0c0,5.1,0,7.9,0.8,15.4C41.9,70.1,38.8,56.8,40.9,54z"/>
				<path class="st124" d="M91.6,54c-2-2.8-5.6,0-5.6,0c0,5.1,0,7.9-0.8,15.4C90.5,70.1,93.6,56.8,91.6,54z"/>
			</g>
			<path id="face_16_" class="st128" d="M87.3,37.6c-1.5-7.3-42.1-9.1-44.2-1.6l1.3,16.9c1.2,8.1,1.1,13.2,5.5,27
				c2.7,7.9,9.3,11.4,19.3,10.7C79.4,90,85.8,78,86.6,64.9C87.4,51.3,87.9,40.5,87.3,37.6z"/>
			<path class="st145" d="M89.8,59.5c0-1.2-0.6-3.3-1.5-1.6l0.1-0.8c0.8-1.2,1.6-2.6,2.3-0.8c0.3,0.7,0.4,1.9,0.3,2.8
				c-0.2,1.9-1.1,5.2-2.9,5.9C89,63.7,89.7,61.2,89.8,59.5z"/>
			<path class="st145" d="M42.8,60.1c0-1.2,0.6-3.3,1.5-1.6l-0.1-0.8c-0.8-1.2-1.6-2.6-2.3-0.8c-0.3,0.7-0.4,1.9-0.3,2.8
				c0.2,1.9,1.1,5.2,2.9,5.9C43.6,64.4,42.9,61.8,42.8,60.1z"/>
			<path id="shadow_on_face" class="st145" d="M47.8,32.8L48,33c7.9,4.4,18.4,6.3,25.3,7.2c-5.6-2.3-13.3-5.6-14.6-7.5
				c4.8,1.8,13.1,3.8,17.7,4.7c0.6,1,1.4,4.8,0.6,8.7l-8.3,2.9c0,0-0.1,4.7,1.6,6.4c1.1-1,1.6-2.7,7-2.6c1.3,0,3.1,1.3,4.4,3
				c1.6,15-1.4,24.9-7.6,33.5c7.4-3.5,11.9-13.6,12.6-24.6c0.8-13.5,1.3-24.3,0.7-27.2C86,31.7,59,29.4,47.8,32.8z"/>
			<g id="beard">
				<path class="st146" d="M76.5,68.6c-2.4,5.5-15.7,8.1-19.4,3.4c-5.9,3.9-10.5-3.3-10.9-6.9c1.8,18.4,7.6,27.3,21.2,27.3
					c16.8,0,19.3-15.8,19.2-27.6C85.5,70.2,81.4,70.9,76.5,68.6z"/>
				<path class="st147" d="M81.8,69.8L81.8,69.8c-0.6,8.9-4.7,18.1-15.4,19.4c-11.8-0.1-15.3-6-16.9-11.1c0.2,1.6,0.6,3.2,1,4.7
					c3.4,6.4,8.7,9.6,16.8,9.6c16.8,0,19.3-15.8,19.2-27.6C85.9,68.1,84.2,69.6,81.8,69.8z"/>
			</g>
			<path id="smile" class="st12" d="M60.3,78.1c2.9,2.4,10.5,2,12.2-2C70,79.4,62.9,79.1,60.3,78.1z"/>
			<g id="nose_8_">
				<path id="nose_9_" class="st145" d="M61.7,51.8c0,0-1.1,8.7-1.1,12.7c0,1.9-0.2,6,1.4,6.4c1.9,0.4,6.8-0.3,6.8-0.3
					c-1.3,0.6-8.2,1.6-9.1,0.5C58.2,69.2,60.3,57.2,61.7,51.8z"/>
			</g>
			<g id="eyes_8_">
				<g>
					<path class="st145" d="M60.3,49.1c-6.5-3-14.2-0.6-14.2,0.2c0,1.3,0,4.4,1.5,6.2c0,0,2.4-2.6,5.9-2.3c2.3,0.2,4.6,0.5,5.5,2.7
						C59.8,55.7,60.9,50.2,60.3,49.1z"/>
					<g>
						<path class="st7" d="M54.4,52.5c-2-0.1-4.1,0.7-5.7,1.9l-0.6,1.1c1.3,0.8,3.1,1.2,4.7,1.3c2.2,0.2,3.9-0.2,5.9-1.1
							C57.6,54.1,56.2,52.6,54.4,52.5z"/>
						<path d="M56.8,53.1c-1-0.7-2.2-1-3.3-1c-1.2,0-2.4,0.3-3.4,0.9c-1,0.6-1.9,1.5-2.4,2.6c1-0.6,1.9-1.2,2.9-1.5
							c1-0.3,2-0.5,2.9-0.4c1,0,2,0.2,2.9,0.6c0.9,0.4,1.9,0.9,2.7,1.7C58.7,54.8,57.8,53.8,56.8,53.1z"/>
						<path d="M55.7,54.4c0,1.1-0.9,1.9-2,1.9c-1.1,0-2-0.9-2-1.9c0-0.5,0.2-1,0.6-1.4c0.4-0.4,2.9-0.1,3.2,0.6
							C55.6,53.8,55.7,54.1,55.7,54.4z"/>
					</g>
					<path class="st148" d="M58.7,46.6c1.1,0.3,2.1,2.2,1.7,2.6c-3.6-0.6-9.2-0.5-14.2,0.2C46.2,45.4,57.2,46.4,58.7,46.6z"/>
				</g>
				<g>
					<g>
						<path class="st7" d="M76.8,52.5c-2-0.1-4.1,0.7-5.7,1.9l-0.6,1.1c1.3,0.8,3.1,1.2,4.7,1.3c2.2,0.2,3.9-0.2,5.9-1.1
							C80.1,54.1,78.6,52.6,76.8,52.5z"/>
						<path d="M79.4,53.1c-1-0.7-2.2-1-3.3-1c-1.2,0-2.4,0.3-3.4,0.9c-1,0.6-1.9,1.5-2.4,2.6c1-0.6,1.9-1.2,2.9-1.5
							c1-0.3,2-0.5,2.9-0.4c1,0,2,0.2,2.9,0.6c0.9,0.4,1.9,0.9,2.7,1.7C81.3,54.8,80.4,53.8,79.4,53.1z"/>
						<path d="M78.3,54.4c0,1.1-0.9,1.9-2,1.9c-1.1,0-2-0.9-2-1.9c0-0.5,0.2-1,0.6-1.4c0.4-0.4,2.9-0.1,3.2,0.6
							C78.2,53.8,78.3,54.1,78.3,54.4z"/>
					</g>
					<path class="st148" d="M70.4,46.6c-1.1,0.3-2.1,2.2-1.7,2.6c3.6-0.6,9.2-0.5,14.2,0.2C82.8,45.4,71.9,46.4,70.4,46.6z"/>
				</g>
			</g>
			<g id="hair_11_">
				<path class="st146" d="M92.2,30.7c-1.5-3.5-30-9.8-38-10.5c-2.6-0.2-8.8,3.1-15.2,12.6c-0.5,1.4,2.2,20.9,2.2,20.9
					c0.4-0.5,1.2-0.9,1.7-0.9c0.9,2.7,2.2,5.1,2.2,5.2c-0.4-3.3-0.9-9.8-0.4-12.2c0.1-0.6,1.6-8.9,3.4-12.8c6.2,1.5,13.8,5,25.5,6.1
					c-4.3-1.6-10.3-4-11.9-6.2c6.4,1.6,13.7,2.7,19.9,4.7c3.2,4.6,5.2,10.7,5.1,18.6c0.6-0.8,1.2-1.9,1.7-3.2
					c0.2-0.1,0.9-0.2,1.5-0.1C91.8,45.9,93.7,34.1,92.2,30.7z"/>
				<path class="st147" d="M44.6,45.8c0.1-0.6,1.6-8.9,3.4-12.8c6.2,1.5,13.8,5,25.5,6.1c-4.3-1.6-10.3-4-11.9-6.2
					c6.4,1.6,13.7,2.7,19.9,4.7c3.2,4.6,5.2,10.7,5.1,18.6c0.6-0.8,1.2-1.9,1.7-3.2c0.2-0.1,0.9-0.2,1.5-0.1
					c1.8-6.4,3.6-16.8,2.7-21.1c0,0,0,0,0-0.1c-0.7,0.7-6.6,4.1-6.6,4.1S60,30.5,54.1,26.4c0.5,1,4.9,5.6,8.4,8
					c-10.6-2.5-16.9-6.8-16.9-6.8S41,38.8,40.9,38.5c-0.8-1.5-1-4.3-2-5.7l0,0c-0.5,1.4,2.2,20.9,2.2,20.9c0.4-0.5,1.2-0.9,1.7-0.9
					c0.9,2.7,2.2,5.1,2.2,5.2C44.7,54.6,44.1,48.2,44.6,45.8z"/>
			</g>
		</g>
	</g>
</g>
</svg>
