<?xml version="1.0" encoding="utf-8"?>
<!-- Generator: Adobe Illustrator 18.1.0, SVG Export Plug-In . SVG Version: 6.00 Build 0)  -->
<svg version="1.1" id="Layer_1" xmlns="http://www.w3.org/2000/svg" xmlns:xlink="http://www.w3.org/1999/xlink" x="0px" y="0px"
	 viewBox="33 17.7 131.7 116" enable-background="new 33 17.7 131.7 116" xml:space="preserve">
<path fill="#FFFFFF" d="M160.8,25.4L160.8,25.4l-18.6,4.1L140,60.2v4.7h-0.3l-2.7,37.3c0,1.2-0.6,1.8-1.2,2.2
	c-0.2,0.1-0.5,0.3-0.8,0.3c-0.4,0.1-0.7,0.1-0.7,0.1l0,0H45.4c0,0-2.7,0-2.7-2.6c0-2.6,2.7-2.8,2.7-2.8h86.5l0.7-9.5H44.2L35,37.9
	l102.3-13.8l0.1-1.5l0,0c0,0,0.3-2.7,3-2.5c2.6,0.2,2.4,2.9,2.4,2.9v0l-0.1,1l17-3.7l0,0c0,0,2.7-0.4,3.2,2.1
	C163.5,24.9,160.8,25.4,160.8,25.4z M119.5,84.6l13.4,0l1.4-19.7H119L119.5,84.6z M54.9,40.6l-13.7,1.8l3,17.2h12.1L54.9,40.6z
	 M56.8,64.9H45.2l3.5,19.7l9.7,0L56.8,64.9z M80.1,37.2l-19.9,2.7l1.6,19.7h19.8L80.1,37.2z M81.8,64.9H62.2l1.6,19.7l19.4,0
	L81.8,64.9z M112.8,32.8l-27.4,3.7l1.5,23.1h26.7L112.8,32.8z M113.7,64.9H87.2l1.2,19.7l25.8,0L113.7,64.9z M118.1,32.1l0.7,27.5
	h15.9l2.2-30.1L118.1,32.1z M62.1,112.5c5.4,0,9.7,4.4,9.7,9.8c0,5.4-4.4,9.7-9.8,9.7c-5.4,0-9.7-4.4-9.7-9.8
	C52.3,116.8,56.7,112.5,62.1,112.5z M127,106.7c7,0,12.6,5.7,12.6,12.7S134,132,127,132c-7,0-12.6-5.7-12.6-12.7
	S120,106.7,127,106.7z"/>
</svg>
