<?xml version="1.0" encoding="utf-8"?>
<!-- Generator: Adobe Illustrator 19.0.1, SVG Export Plug-In . SVG Version: 6.00 Build 0)  -->
<svg version="1.1" id="Layer_1" xmlns="http://www.w3.org/2000/svg" xmlns:xlink="http://www.w3.org/1999/xlink" x="0px" y="0px"
	 viewBox="0 0 144 144" style="enable-background:new 0 0 144 144;" xml:space="preserve">
<style type="text/css">
	.st0{clip-path:url(#SVGID_2_);}
	.st1{opacity:0.4;fill:#818181;enable-background:new    ;}
	.st2{fill:#49606C;}
	.st3{opacity:0.3;fill:#49606C;enable-background:new    ;}
	.st4{fill:#F3F3F3;}
	.st5{fill:#E6E6E5;}
	.st6{fill:#0E222D;}
	.st7{fill:#5C6670;}
	.st8{fill:#333E48;}
	.st9{fill:#FFFFFF;stroke:#333E48;stroke-width:3.9122;stroke-miterlimit:10;}
	.st10{fill:#465259;}
	.st11{fill:#C3C6C8;}
	.st12{fill:#E42A27;}
</style>
<g>
	<g>
		<defs>
			<rect id="SVGID_1_" x="11.9" y="-323.7" width="110.2" height="147.8"/>
		</defs>
		<clipPath id="SVGID_2_">
			<use xlink:href="#SVGID_1_"  style="overflow:visible;"/>
		</clipPath>
		<g class="st0">
			<g id="guy_with_glasses_1_">
				<path id="shadow_beneath_2_" class="st1" d="M19.9,59.9c0,2.8,7.4,7.2,42.8,7c4.9,0,9.6,4.4,14.8,6.7c6.4,2.9,16.2,4.7,22.7,0.7
					c3.3-2,9.3-10.6,9.3-13.1c0-4.5-20.5-6.6-49.1-6C48.8,55.5,19.9,57.1,19.9,59.9z"/>
				<g id="shoes_2_">
					<g>
						<path class="st2" d="M77.8,65.4c0.4-2.2,2.7-2.9,4.1-4.4s2.2-4.7,2.7-6.7c16.8-3.3,20.8,7.3,20.8,7.3c0,0.7-5.3,9.9-8.4,10.6
							c-7.2,1.7-17.3-1.3-18.3-2C77.3,69.5,77.5,66.8,77.8,65.4z"/>
						<path class="st3" d="M77.8,65.4c0.2-0.9,0.6-1.5,1.2-2c0.1,0.4-0.3,1.1-0.1,1.5c0.8,1.2,13.2,2.8,15.9,2.2
							c1.5-0.3,3.2-2.6,4.3-4.2c1.1-1.5,1.5-3.5,0.6-5.2c-0.6-1.1-1.4-2.1-2.4-2.9c6.2,2.2,7.9,6.8,7.9,6.8c0,0.7-5.3,9.9-8.4,10.6
							c-7.2,1.7-17.3-1.3-18.3-2C77.3,69.5,77.5,66.8,77.8,65.4z"/>
						<path class="st4" d="M77.9,66.7c0.6,1.3,1.9,1.6,3.2,1.9c1.7,0.4,11.9,3,17.3,0c1.7-0.9,5.8-8.1,5.9-8.7c0.7,1,1,1.8,1,1.8
							c0,0.7-5.1,10.2-8.2,10.9c-7.2,1.7-17.7-1.4-18.7-2.1c-1.1-0.8-0.9-3-0.7-4.4C77.7,66.3,77.8,66.5,77.9,66.7z"/>
						<path class="st5" d="M83.5,59.8c0.3-2.2,3.2-2.2,5-2.4c2.6-0.4,10.3,1.9,10,3.5c-0.3,1.5-2.2,2.5-3.1,2.2
							c-1.8-0.6-3.4-1.4-5.3-1.8c-1.7-0.4-3.7-0.4-5.5-0.3C83.5,61,83.3,61.1,83.5,59.8z"/>
					</g>
					<g>
						<g>
							<path class="st2" d="M24.5,54.6c0.4-0.1,5.9-0.2,7-0.3c3.2-0.2,13.8-6.5,15.9-7.6l1.4-1.4c0.7-1.2,15.1,2,16.1,2.4
								c0.6,0.3,1.4,0.3,1.9,0.6c1.8,1,1.7,9.4,1.7,11.6c0,1.6-4,2.5-5.3,2.7c-2.6,0.4-5.2-0.1-7.9-0.1C52.9,62.5,43,64,39.9,64
								c-3.2,0-13.5,0-18.5-4.1C19.9,58.8,22.3,55.1,24.5,54.6z"/>
							<path class="st3" d="M23.2,55.2c-0.1,0.3-0.9,1.9,2.8,2.9c1.9,0.5,10,1.7,12,1.6c6.4-0.3,12.6-2.2,13.3-2.9s0.4-1.5-0.2-2.3
								c-0.6-0.9-6.2-4.1-8-5.5c2-1.1,3.6-2,4.3-2.4l1.4-1.4c0.7-1.2,15.1,2,16.1,2.4c0.6,0.3,1.4,0.3,1.9,0.6
								c1.8,1,1.7,9.4,1.7,11.6c0,1.6-4,2.5-5.3,2.7c-2.6,0.4-5.2-0.1-7.9-0.1c-2.4,0-12.3,1.5-15.4,1.5c-3.2,0-13.5,0-18.5-4.1
								C20.2,59,21.5,56.5,23.2,55.2z"/>
						</g>
						<path class="st4" d="M21.1,58.5c6.6,3.8,18.1,3.1,20.5,3c4.8-0.1,15.7-3.8,19.1-3.8c2.2,0,5.7,0,7.7,0.7c0,0.7,0.3,1.7,0.3,2
							c0,1.6-4.1,2.3-5.4,2.5c-2.6,0.4-5.6-0.1-8.3-0.1c-2.4,0-12.1,1.5-15.2,1.6c-3.2,0-13.7-0.1-18.7-4.2
							C20.8,59.9,20.7,58.8,21.1,58.5C21,58.4,21.1,58.4,21.1,58.5z"/>
						<g>
							<path class="st5" d="M38.5,51.9c1.4,0.9,5.2,2.9,5.2,4.8c-0.6,0.2-3,1.5-4.4,0.5c-1.7-1.3-3.2-3.1-5.2-3.7L34,53
								C34.7,51.6,37.2,51.1,38.5,51.9z"/>
							<path class="st5" d="M44.9,48.8c1.4,0.9,5.2,2.9,5.2,4.8c-0.6,0.2-3,1.5-4.4,0.5c-1.7-1.3-3.2-3.1-5.2-3.7V50
								C41.1,48.6,43.7,48,44.9,48.8z"/>
						</g>
					</g>
				</g>
				<g id="jeans_7_">
					<path id="jeans_8_" class="st6" d="M32.1-119.2c6.5,1.4,51.6-2,59.2-1.5l7.5,4.8c0,0,3.7,17.8,4.2,21.4c0,0-6,36.7-0.5,58.9
						l-0.2,5.9c0.3,1.7,3.1,14.6,3.1,15.3c0.1,0.6,0.4,42.7,0.7,46.5c0,0,1.3,14.3,1.7,17.7c0.1,1.1-1.9,11.9-2.5,12.2
						c-3.3-2-12.5-5-14.4-5.5c-1.2-0.3-7.7,1.2-7.8,2c-0.5-1.3-1.9-5.9-1.8-6.3c0.4-2.6,1.5-6.1-0.3-7.2l2.2-43.5L81-19.8
						c0-2.3-0.2-5.9-0.5-8.9c-0.1-1.3-2.6-7.9-2.9-10.6c-0.7-6.8-7.1-44.1-8.6-45.6c-2.6-0.8-5-1.1-5-1.1
						c-1.4-0.7-1.3,46.9-0.5,54.8l-0.3,7c0,0,2.4,7.1,2.6,7.7c1.7,5.9,1.6,45.8,1.9,48.9c0.2,2.2,1.8,18.7,1.8,18.7L68.7,59
						c-6.2,0-19.3-5.3-26.7-10.5c0.4-1.6,2.3-6.2,2.3-6.2l-0.6-5.5c0,0,1.7-22.3,1.6-22.8c-0.3-2.4-1.7-31.4-3.6-38.2
						c0,0-1.3-6-2.1-7.4c0,0-6.2-47.1-8.1-59.2l-2.9-7C27.7-100.7,30.3-116.8,32.1-119.2z"/>
				</g>
			</g>
		</g>
	</g>
</g>
<g>
	<g>
		<g>
			<g>
				<g>
					<polygon class="st7" points="81.8,105.5 55.9,105.5 58.2,92.2 79.5,92.2 					"/>
					<path class="st8" d="M88.8,107.4H48.9v-0.7c0-0.3,0.1-0.6,0.4-0.9c0.2-0.2,0.6-0.4,0.9-0.4h37.4c0.3,0,0.6,0.1,0.9,0.4
						c0.2,0.2,0.4,0.5,0.4,0.9v0.7H88.8z"/>
				</g>
				<path class="st9" d="M102,90.8H19.6v-49c0-5.7,4.6-10.4,10.4-10.4h82.4v49C112.4,86.2,107.7,90.8,102,90.8z"/>
			</g>
		</g>
	</g>
	<g>
		<g>
			<g>
				<g>
					<rect x="34.7" y="44.4" class="st10" width="3.8" height="2.6"/>
				</g>
			</g>
			<g>
				<g>
					<rect x="43" y="44.4" class="st11" width="25.8" height="2.6"/>
				</g>
			</g>
			<path class="st11" d="M90.6,49.1H76.9c-2.1,0-3.8-1.7-3.8-3.8l0,0c0-2.1,1.7-3.8,3.8-3.8h13.8c2.1,0,3.8,1.7,3.8,3.8l0,0
				C94.4,47.4,92.7,49.1,90.6,49.1z"/>
		</g>
		<g>
			<g>
				<g>
					<rect x="34.7" y="58.7" class="st10" width="3.8" height="2.6"/>
				</g>
			</g>
			<g>
				<g>
					<rect x="43" y="58.7" class="st11" width="25.8" height="2.6"/>
				</g>
			</g>
			<path class="st12" d="M90.6,63.4H76.9c-2.1,0-3.8-1.7-3.8-3.8l0,0c0-2.1,1.7-3.8,3.8-3.8h13.8c2.1,0,3.8,1.7,3.8,3.8l0,0
				C94.4,61.7,92.7,63.4,90.6,63.4z"/>
		</g>
		<g>
			<g>
				<g>
					<rect x="34.7" y="73" class="st10" width="3.8" height="2.6"/>
				</g>
			</g>
			<g>
				<g>
					<rect x="43" y="73" class="st11" width="25.8" height="2.6"/>
				</g>
			</g>
			<path class="st11" d="M90.6,77.7H76.9c-2.1,0-3.8-1.7-3.8-3.8l0,0c0-2.1,1.7-3.8,3.8-3.8h13.8c2.1,0,3.8,1.7,3.8,3.8l0,0
				C94.4,76,92.7,77.7,90.6,77.7z"/>
		</g>
		<g>
			<g>
				<g>
					<g>
						<polygon class="st10" points="89.8,79.9 82.7,58.4 104.2,65.5 94.4,70.1 						"/>
						
							<rect x="97.9" y="67.8" transform="matrix(-0.7068 0.7074 -0.7074 -0.7068 222.6697 56.733)" class="st10" width="3.3" height="13.5"/>
					</g>
				</g>
			</g>
		</g>
	</g>
</g>
</svg>
