<?xml version="1.0" encoding="utf-8"?>
<!-- Generator: Adobe Illustrator 19.0.1, SVG Export Plug-In . SVG Version: 6.00 Build 0)  -->
<svg version="1.1" id="Layer_1" xmlns="http://www.w3.org/2000/svg" xmlns:xlink="http://www.w3.org/1999/xlink" x="0px" y="0px"
	 viewBox="0 0 144 144" style="enable-background:new 0 0 144 144;" xml:space="preserve">
<style type="text/css">
	.st0{clip-path:url(#SVGID_2_);}
	.st1{opacity:0.4;fill:#818181;}
	.st2{fill:#FDD1B0;}
	.st3{opacity:0.25;fill:#F9B38A;}
	.st4{opacity:0.7;fill:#FABD98;}
	.st5{opacity:0.7;}
	.st6{opacity:0.2;fill:#F37C3F;}
	.st7{fill:#FFFFFF;}
	.st8{fill:#3E1410;}
	.st9{fill:url(#SVGID_3_);}
	.st10{fill:url(#SVGID_4_);}
	.st11{fill:url(#hair_4_);}
	.st12{fill:#333E48;}
	.st13{fill:#49606C;}
	.st14{opacity:0.3;fill:#49606C;}
	.st15{fill:#F3F3F3;}
	.st16{fill:#E6E6E5;}
	.st17{fill:#0E222D;}
	.st18{opacity:0.5;fill:#0E222D;}
	.st19{opacity:0.7;fill:#11273D;}
	.st20{opacity:0.4;fill:#1A1A1A;}
	.st21{clip-path:url(#SVGID_6_);}
	.st22{fill:#A97C50;}
	.st23{opacity:0.7;fill:#A57E5C;}
	.st24{fill:#8B5E3C;}
	.st25{fill:#3C2415;}
	.st26{opacity:0.8;fill:#8B5E3C;}
	.st27{fill:#36160E;}
	.st28{opacity:0.25;fill:#8B5E3C;}
	.st29{fill:#25110B;}
	.st30{opacity:0.4;fill:#524F4F;}
	.st31{fill:url(#SVGID_7_);}
	.st32{opacity:0.3;fill:url(#SVGID_8_);}
	.st33{fill:url(#SVGID_9_);}
	.st34{opacity:0.3;fill:url(#SVGID_10_);}
	.st35{opacity:0.2;fill:url(#SVGID_11_);}
	.st36{fill:#131313;}
	.st37{fill:url(#SVGID_12_);}
	.st38{fill:url(#SVGID_13_);}
	.st39{fill:#010101;}
	.st40{fill:#F1F2F2;}
	.st41{opacity:0.3;fill:#303030;}
	.st42{fill:#E2231A;}
	.st43{opacity:0.75;fill:#C3C6C8;}
	.st44{fill:#0B0A0B;}
	.st45{fill:#282829;}
	.st46{fill:#1C1B1C;}
	.st47{fill:#F9A45D;}
	.st48{clip-path:url(#SVGID_15_);}
	.st49{opacity:0.25;fill:#333333;}
	.st50{fill:#A14423;}
	.st51{opacity:0.5;fill:#A14423;}
	.st52{fill:#3B3434;}
	.st53{fill:#2E2D26;}
	.st54{opacity:0.25;fill:#2E2D26;}
	.st55{opacity:0.2;fill:#7B7C68;}
	.st56{fill:#63A70A;}
	.st57{opacity:0.4;fill:#63A70A;}
	.st58{opacity:0.4;}
	.st59{fill:#1F130A;}
	.st60{fill:#42150D;}
	.st61{fill:#32130C;}
	.st62{fill:#210F0B;}
	.st63{fill:#D1D3D4;}
	.st64{fill:#EF4136;stroke:#58595B;stroke-width:0.1415;stroke-miterlimit:10;}
	.st65{fill:#AAB4BF;}
	.st66{fill:#9FB4B8;}
	.st67{fill:#5B6B71;}
	.st68{fill:#879FA9;}
	.st69{clip-path:url(#SVGID_17_);}
	.st70{fill:#C4D600;}
	.st71{opacity:0.7;fill:#753317;}
	.st72{clip-path:url(#SVGID_19_);}
	.st73{opacity:0.3;fill:#524F4F;}
	.st74{fill:#FBC19E;}
	.st75{opacity:0.2;fill:#F8C5A6;}
	.st76{fill:#FCC3A1;}
	.st77{opacity:8.000000e-002;fill:url(#SVGID_20_);}
	.st78{opacity:8.000000e-002;fill:url(#SVGID_21_);}
	.st79{opacity:0.29;fill:#FBC19E;}
	.st80{fill:#C2531A;}
	.st81{opacity:0.8;fill:#E7835E;}
	.st82{opacity:0.4;fill:#C9920E;}
	.st83{fill:#FF6C0C;}
	.st84{fill:#2D4C56;}
	.st85{fill:#F6D2AE;}
	.st86{fill:#0C2633;}
	.st87{opacity:0.1;fill:url(#SVGID_22_);}
	.st88{opacity:0.1;fill:url(#SVGID_23_);}
	.st89{opacity:0.2;fill:#FFFFFF;}
	.st90{fill:#008FBE;}
	.st91{fill:#004D71;}
	.st92{opacity:0.3;fill:#004D71;}
	.st93{fill:#F9AA7E;}
	.st94{opacity:0.3;fill:#EC8449;}
	.st95{fill:url(#left_arm_2_);}
	.st96{opacity:0.2;fill:#EC8449;}
	.st97{opacity:0.25;fill:#7B7C68;}
	.st98{fill:#111111;}
	.st99{fill:#F8A063;}
	.st100{opacity:0.7;fill:#F8A063;}
	.st101{opacity:0.3;fill:#F8A063;}
	.st102{opacity:0.3;fill:#FAAE72;}
	.st103{fill:#F15941;}
	.st104{fill:#E5442F;}
	.st105{fill:#CC2E27;}
	.st106{opacity:0.12;fill:url(#SVGID_24_);}
	.st107{opacity:0.12;fill:url(#SVGID_25_);}
	.st108{fill:#07090E;}
	.st109{fill:#1A1A1A;}
	.st110{fill:#7A3E74;}
	.st111{fill:#2D2D3B;}
	.st112{opacity:0.15;fill:#333E48;}
	.st113{fill:#732282;}
	.st114{opacity:0.59;fill:#732282;}
	.st115{opacity:0.8;clip-path:url(#SVGID_19_);fill:#E7835E;}
	.st116{clip-path:url(#SVGID_27_);}
	.st117{opacity:0.15;fill:#010101;}
	.st118{fill:#2D140D;}
	.st119{fill:url(#trousers_3_);}
	.st120{opacity:0.5;fill:url(#SVGID_28_);}
	.st121{opacity:0.5;fill:url(#SVGID_29_);}
	.st122{opacity:0.25;fill:#5D2D11;}
	.st123{opacity:0.1;fill:#5C5925;}
	.st124{fill:#FECD8F;}
	.st125{opacity:0.5;fill:#FAB072;}
	.st126{fill:#FFE9CC;}
	.st127{opacity:0.3;fill:#A67D52;}
	.st128{fill:#FECC8C;}
	.st129{opacity:0.85;}
	.st130{opacity:0.15;fill:#004D71;}
	.st131{opacity:0.2;fill:#004D71;}
	.st132{opacity:0.3;fill:#ACAE85;}
	.st133{fill:#FFEFD9;}
	.st134{opacity:0.58;fill:#F8A063;}
	.st135{fill:#F69FA5;}
	.st136{fill:#7F8C8D;}
	.st137{fill:#F8CB5C;}
	.st138{fill:#FDC78F;}
	.st139{fill:#D53227;}
	.st140{fill:#BBAF8A;}
	.st141{fill:none;stroke:#DCCCA0;stroke-width:0.182;stroke-miterlimit:10;}
	.st142{fill:none;stroke:#DCCCA0;stroke-width:0.182;stroke-miterlimit:10;stroke-dasharray:0.6995,0.6995;}
	.st143{fill:#E6E7E8;}
	.st144{fill:#A7A9AC;}
	.st145{fill:#FDC485;}
	.st146{fill:#A4A9AD;}
	.st147{opacity:0.3;fill:#333E48;}
	.st148{fill:#5C6670;}
	.st149{fill:#FFFFFF;stroke:#333E48;stroke-width:3.9122;stroke-miterlimit:10;}
	.st150{fill:#465259;}
	.st151{fill:#C3C6C8;}
	.st152{fill:#E42A27;}
	.st153{fill:#D0D5D6;}
	.st154{fill:#F7A800;}
	.st155{fill:#C9920E;}
	.st156{fill:#364A5E;}
	.st157{fill:#293B4D;}
	.st158{fill:#FFFFFF;stroke:#333E48;stroke-width:4.0877;stroke-miterlimit:10;}
	.st159{display:none;}
	.st160{display:inline;}
	.st161{fill:#F1F4F7;}
	.st162{fill:#94A2AF;}
	.st163{fill:#F8EBD4;}
	.st164{fill:#FFD162;}
	.st165{fill:#F5F6F7;}
	.st166{fill:#D1D5D7;}
	.st167{fill:#AAB5BE;}
	.st168{opacity:0.52;fill:#F7A800;}
	.st169{fill:#F6F9FB;}
	.st170{fill:#E7EAED;}
</style>
<g>
	<defs>
		<rect id="SVGID_5_" x="-1.4" y="-4.6" width="149.6" height="146.6"/>
	</defs>
	<clipPath id="SVGID_2_">
		<use xlink:href="#SVGID_5_"  style="overflow:visible;"/>
	</clipPath>
	<g class="st0">
		<g id="neck_8_">
			<path class="st22" d="M93.7,98.7c-14-1.4-10.5-24.7-9.5-31.5l-20.8-0.3c0.3,6.2,2.3,27.3-7.1,28.1C51.6,97,63,117.5,69,125.6
				C82.7,118.1,100.8,99.4,93.7,98.7z"/>
			<path class="st23" d="M83.6,87.1C82.3,80,83.4,71.2,84,67.2l-20.8-0.3c0.2,5,1.9,19.3-2.5,25.5C69.7,92.4,78.9,90,83.6,87.1z"/>
		</g>
		<g id="head_8_">
			<g id="ears_4_">
				<g>
					<path class="st22" d="M94.4,52.5c12.4-6.1,8,15.1-0.4,15.1C94.2,61.5,94.4,52.5,94.4,52.5z"/>
					<path class="st24" d="M99,57.9c0-1.3-0.7-3.5-1.8-1.7l0.1-0.8c0.9-1.3,1.9-2.8,2.7-0.8c0.3,0.8,0.4,2,0.4,2.9
						c-0.2,2-1.3,5.4-3.3,6.2C98.1,62.3,98.9,59.6,99,57.9z"/>
				</g>
				<g>
					<path class="st22" d="M53.4,51.7c-10.5-6.1-6.8,15.1,0.4,15.1C53.6,60.6,53.4,51.7,53.4,51.7z"/>
					<path class="st24" d="M49.6,57c0-1.3,0.6-3.5,1.5-1.7l-0.1-0.8c-0.8-1.3-1.6-2.8-2.3-0.8c-0.3,0.8-0.4,2-0.3,2.9
						c0.2,2,1.1,5.4,2.8,6.2C50.3,61.4,49.6,58.7,49.6,57z"/>
				</g>
			</g>
			<g id="face_17_">
				<path id="face_18_" class="st22" d="M54.3,35.9c4.6-8.6,41.5-1.4,41-0.5c0,0-0.5,28.3-1.3,41.5c0,1.6-18.4,9.5-21,9.5
					c-4.8,0-17.7-7.2-18.5-8.6C54,76.9,51,42.1,54.3,35.9z"/>
				<path id="smile_6_" class="st25" d="M63.1,71.7c0,0,0,0.1,0.1,0.2c0.1,0.1,0.2,0.3,0.5,0.5c0.4,0.3,1.2,0.6,2.2,0.8
					c1.9,0.3,4.5,0.4,7.2,0.3c2.6-0.1,5.2-0.3,7.2-0.6c1-0.2,1.8-0.4,2.3-0.6c0.5-0.2,0.8-0.4,0.8-0.4s-0.1,0.1-0.2,0.2
					c-0.1,0.1-0.3,0.3-0.5,0.5c-0.5,0.4-1.2,0.8-2.2,1.2c-1,0.4-2.1,0.7-3.4,0.9c-1.3,0.2-2.6,0.4-4,0.4c-2.7,0.1-5.5-0.2-7.5-1
					c-1-0.4-1.8-0.9-2.2-1.4c-0.2-0.2-0.3-0.5-0.3-0.7C63.1,71.8,63.1,71.7,63.1,71.7z"/>
				<path id="nose_10_" class="st26" d="M67.2,61.7c1.7-5.4,2.5-6.8,2.6-9.6c0,0,0.9,3.7-0.6,7.9c-0.3,1.7-1.2,3.7-0.7,5.4
					c0.4,1.4,1.6,1.7,3.1,1.9c1.9,0.3,3.9,0.5,5.8-0.3c0,0.1-1.3,1.5-5.3,1.5c-1.4,0-4.6-0.7-5.4-2.1C65.9,65.2,66.8,63,67.2,61.7z"
					/>
				<g id="eyes_9_">
					<g>
						<g>
							<path class="st7" d="M78.8,53.6c-0.5-4.3,4.7-3.9,7.5-3.4c1.1,0.6,2.1,2,2.3,2.8l-0.5,1.3C86.3,54.8,79.1,56.8,78.8,53.6z"/>
							<g>
								<circle class="st27" cx="84.3" cy="52" r="2"/>
							</g>
							<path class="st27" d="M88,50.8l0.6,2.1c-0.7-1.7-2.7-2.1-5.3-2.1c-2.9,0.1-4.4,1.1-4.6,2.1C78.4,48.4,86.7,49.2,88,50.8z"/>
						</g>
						<path d="M78.4,45.1c3.8-1.5,9.3-1,10.9,0c0,0,0.6,1.1,0.4,2c-1.2-0.1-6.8-0.5-11.6,0.8C77.4,46.6,77.2,45.5,78.4,45.1z"/>
					</g>
					<g>
						<g>
							<path class="st7" d="M66.6,53.6c0.5-4.3-4.7-3.9-7.5-3.4c-1.1,0.6-2.1,2-2.3,2.8l0.5,1.3C59.1,54.8,66.2,56.8,66.6,53.6z"/>
							<g>
								<circle class="st27" cx="62.3" cy="52" r="2"/>
							</g>
							<path class="st27" d="M57.4,50.8l-0.6,2.1c0.7-1.7,2.7-2.1,5.3-2.1c2.9,0.1,4.4,1.1,4.6,2.1C67,48.4,58.6,49.2,57.4,50.8z"/>
						</g>
						<path d="M66.9,45.1c-3.8-1.5-8.6-0.9-10.1,0.1c0,0-0.7,1-0.5,1.8c1.2-0.1,6.1-0.4,11,0.8C68,46.6,68.1,45.5,66.9,45.1z"/>
					</g>
				</g>
				<path class="st28" d="M56.6,44.8l0.8-11.3l-2.9-1.3c0,0-0.8,8.3-1,8.7c-1.3,2.6-1.7,6.3-1.6,10c-8.3-3.1-5,15,1.5,15.8l0.6,8.5
					l2.5,1.8c0,0,2.3-12.8-0.7-19.9C53.4,51.6,56.6,44.8,56.6,44.8z"/>
				<path id="beard_3_" d="M94.8,56.1c-0.2,2.2-0.9,15.5-5.4,16.3c-1.3,0.3-5.8-1.8-8.3-2.5c-5.9-1.7-13.2-1.5-18.1,1.7
					c-3.6,2.3-5.6,2.9-7,1.5c-1.7-1.8-2.4-6.8-2.7-8.6c0,0.2,0,0.3-0.1,0.5c0.3,4.1,0.5,7.7,0.7,10.2c0.1,1.7-0.1,3.3,2.7,4.7
					c2.1,1.4,5.2,3.2,8.3,4.6c3.1,1.5,8.8,3.5,17-0.1c3.5-1.5,7.4-3.3,10.3-5.4c2.7-1.9,2.3-3.8,2.3-4.8c0.2-5.1,0.4-11.7,0.6-18
					L94.8,56.1z M75.6,81.5c-0.9,0-2.5-3.7-2.9-3.6c-0.4,0.1-1.7,3.8-2.4,3.8c-1.3,0.1-6.6-0.7-7.1-4.1c-0.5-3.4,1.3-5.9,9.5-6
					c8.1-0.2,10.2,0.4,10.5,3.8C83.5,78.9,77,81.5,75.6,81.5z"/>
			</g>
			<path id="hair_6_" d="M89.9,22.7c0,0,5.5,2.2,5.5,4.8c2.8,1.8,4.9,17.5,4.5,21c-0.3,3.5-4.5,3-4.9,9l-1.1-6.1
				c-1.4-7.5-2.1-8.5-1.7-16.9c-10.9,1.8-29.4-4.4-37.9,3.6C53.7,42.3,53,48.5,53,56.8c-0.6-4.6-2.7-6.3-2.7-6.3
				c0.3-1.3,0.9-13.2-1.1-19.6C50.6,30.9,53.8,18.5,89.9,22.7z"/>
			<path id="glasses_3_" class="st29" d="M93.9,48c0,0-14.2-0.3-18.3,0.7c-0.9,0.2-1.3,1.2-3.5,1.1c-2.2,0-2.6-0.9-3.5-1.1
				c-4.1-1-18.3-0.7-18.3-0.7c0,0.7,0,2.1,0.1,2.2c0.7,0.6,1.1,1.2,1.2,1.9c0.2,0.9,0.6,4,1.4,4.7c2.3,1.6,12.6,1.8,14,1
				c1.5-0.9,2.7-5,3.6-5.8c0.4-0.3,1.1-0.3,1.4-0.3c0.3,0,1,0,1.4,0.3c0.9,0.8,2.1,4.9,3.6,5.8c1.4,0.8,11.7,0.7,14-1
				c0.9-0.6,1.3-3.8,1.4-4.7c0.1-0.7,0.5-1.3,1.2-1.9C93.9,50,93.9,48.7,93.9,48z M66.2,57.2c-3.7,1-12.4-0.3-13-1.2
				c-0.9-1.3-1.3-6.1-0.1-6.9c0.3-0.2,14.2-0.7,15.7,1C70.4,52.1,67.5,56.9,66.2,57.2z M91,56c-0.7,1-9.4,2.2-13,1.2
				c-1.3-0.3-4.1-5.2-2.6-7.1c1.5-1.8,15.4-1.2,15.7-1C92.3,49.9,91.9,54.7,91,56z"/>
		</g>
		<g id="man_blue_shirt">
			<g id="shirt_1_">
				<path id="shirt_2_" class="st40" d="M84.9,91.6l-6.8,9.3l-2.5,0.1c0,0-13.9-9.2-14.3-9.4l-8,5.8c0.1,0.5-7.8,4.7,27.4,73
					c0,0,18.4-66.3,20.4-70.3C98.2,98.9,84.9,91.6,84.9,91.6z"/>
				<path id="shadow_13_" class="st41" d="M78.1,101c0.2,0.2,8.5,10.3,8.5,10.3s-2.2,19.9-3.9,20.7c-1.3,0.6-9.1-0.9-9.2-1.4
					C72,129,64.9,114.5,65,113L75.5,101l-15,13.6c-0.2,3.1,17,41.7,20.6,42.9c0.1,0,1.5-0.7,3.7-1.9c3.4-12.2,8.9-40.8,8.9-40.8
					L78.1,101z"/>
			</g>
			<g id="tie_1_">
				<polygon class="st42" points="80.9,111.2 81.4,104.9 78.1,101 75.5,101 72.5,104.5 74.3,111.4 71.8,135.8 78.8,162.3 
					84.6,138.6 				"/>
				<path class="st43" d="M83.5,130.4L83.5,130.4c-1,1.7-4.4,4.9-4.7,4.9c-0.8,0.2-4.5-4.4-4.8-5.7c0,0,1.1-14.9,1.2-16.6
					c0.4,0,4-0.9,5.7-1.3l-0.1-0.6l-6.6,0.2l-2.5,24.5l7,26.5l5.7-23.8L83.5,130.4z"/>
			</g>
			<g id="jacket_2_">
				<path id="jacket_7_" class="st44" d="M113.7,106.6c-0.1-0.1-0.5-0.8-0.5-0.8c0,0,0,0,0,0c-3.2-1.3-17.9-8.4-17.9-8.4l-15,58
					c-2.2-7.5-12.3-40.4-24.8-60.7c-4.8,2-15.7,6.3-27.7,11.6c-1.4,2.4-11.7,53.7-12.2,59.1c0,0,0.1,2.4,0.3,3.3
					c1,6.2,12.2,45.6,13.6,47.3c0.5,0.6,3.2,0.8,4,0.6c-1.9-2.2,9.2-10.5,10.1-12.9c2,1.1,5.5,3.4,9.1,4.4
					c2.7,0.6,20.4,2.9,25.8-13.4c3.5,16.3,20.9,18.4,27,15c1.5,1.3,2.7,3.6,3.6,4c0,0,3.7,0.3,4.1-0.8c3.7-12.6,8.2-44,8.2-44
					c0.5-1.3-0.3-2.6,1-3.9C121.1,154.4,115.9,112.6,113.7,106.6z M40.5,193.4c-2.2-4.4-5.3-23.5-5.7-25.7c1.2-0.2,1.8-1.5,1.6-1.7
					c-0.1-0.3-1.6-1.3-1.9-2.3c0.6,0.2,1,0.9,1.6,0.5c-0.2-1.9,5.6-22.5,5.6-22.5c0.3,2.1,4.1,21.8,4.1,23.7
					C44.9,169.7,41.5,190.1,40.5,193.4z M102.7,177.1c-0.4-7.2-0.3-13.1,0.4-15.3c-1.2-1.2-0.7-6.3,0.1-12.1
					c1.1,5.8,2.3,12.8,2.9,15.2C105.1,166.4,104,171.4,102.7,177.1z"/>
				<g id="shadows_4_">
					<path d="M50.1,109.2l-3.1,3.4l32.7,44.1l-1.1,36l2.5-36l22.7-45l-2.7-1.3l3.2-8.6c-4.5-2.1-8.9-4.3-8.9-4.3l-15,58
						c-4.1-9.2-24.7-60.7-24.7-60.7c-2.7,1.2-8.6,3.4-12.5,5.2L50.1,109.2z"/>
				</g>
				<g id="lapels_3_">
					<path class="st46" d="M45.5,98.8l5.8,9.4l-3.8,3.8l33,43.4c-6.9-27.4-21.2-62.2-21.2-62.2S45.6,98.8,45.5,98.8z"/>
					<path class="st46" d="M88.2,93.5l-7.8,61.9c0,0,18.8-39.6,21.6-45.5l-2.7-1.3l3.3-7.9L88.2,93.5z"/>
				</g>
			</g>
		</g>
	</g>
</g>
<g>
	<defs>
		<rect id="SVGID_18_" x="158.8" y="-4.7" width="150.2" height="147.8"/>
	</defs>
	<clipPath id="SVGID_3_">
		<use xlink:href="#SVGID_18_"  style="overflow:visible;"/>
	</clipPath>
	<g style="clip-path:url(#SVGID_3_);">
		<g>
			<g id="black_hair_girl">
			</g>
		</g>
	</g>
</g>
</svg>
