<?xml version="1.0" encoding="utf-8"?>
<!-- Generator: Adobe Illustrator 19.0.1, SVG Export Plug-In . SVG Version: 6.00 Build 0)  -->
<svg version="1.1" id="Layer_1" xmlns="http://www.w3.org/2000/svg" xmlns:xlink="http://www.w3.org/1999/xlink" x="0px" y="0px"
	 viewBox="0 0 144 144" style="enable-background:new 0 0 144 144;" xml:space="preserve">
<style type="text/css">
	.st0{clip-path:url(#SVGID_2_);}
	.st1{opacity:0.4;fill:#818181;}
	.st2{fill:#FDD1B0;}
	.st3{opacity:0.25;fill:#F9B38A;}
	.st4{opacity:0.7;fill:#FABD98;}
	.st5{opacity:0.7;}
	.st6{opacity:0.2;fill:#F37C3F;}
	.st7{fill:#FFFFFF;}
	.st8{fill:#3E1410;}
	.st9{fill:url(#SVGID_3_);}
	.st10{fill:url(#SVGID_4_);}
	.st11{fill:url(#hair_4_);}
	.st12{fill:#333E48;}
	.st13{fill:#49606C;}
	.st14{opacity:0.3;fill:#49606C;}
	.st15{fill:#F3F3F3;}
	.st16{fill:#E6E6E5;}
	.st17{fill:#0E222D;}
	.st18{opacity:0.5;fill:#0E222D;}
	.st19{opacity:0.7;fill:#11273D;}
	.st20{opacity:0.4;fill:#1A1A1A;}
	.st21{clip-path:url(#SVGID_6_);}
	.st22{fill:#A97C50;}
	.st23{opacity:0.7;fill:#A57E5C;}
	.st24{fill:#8B5E3C;}
	.st25{fill:#3C2415;}
	.st26{opacity:0.8;fill:#8B5E3C;}
	.st27{fill:#36160E;}
	.st28{opacity:0.25;fill:#8B5E3C;}
	.st29{fill:#25110B;}
	.st30{opacity:0.4;fill:#524F4F;}
	.st31{fill:url(#SVGID_7_);}
	.st32{opacity:0.3;fill:url(#SVGID_8_);}
	.st33{fill:url(#SVGID_9_);}
	.st34{opacity:0.3;fill:url(#SVGID_10_);}
	.st35{opacity:0.2;fill:url(#SVGID_11_);}
	.st36{fill:#131313;}
	.st37{fill:url(#SVGID_12_);}
	.st38{fill:url(#SVGID_13_);}
	.st39{fill:#010101;}
	.st40{fill:#F1F2F2;}
	.st41{opacity:0.3;fill:#303030;}
	.st42{fill:#E2231A;}
	.st43{opacity:0.75;fill:#C3C6C8;}
	.st44{fill:#0B0A0B;}
	.st45{fill:#282829;}
	.st46{fill:#1C1B1C;}
	.st47{fill:#F9A45D;}
	.st48{clip-path:url(#SVGID_15_);}
	.st49{opacity:0.25;fill:#333333;}
	.st50{fill:#A14423;}
	.st51{opacity:0.5;fill:#A14423;}
	.st52{fill:#3B3434;}
	.st53{fill:#2E2D26;}
	.st54{opacity:0.25;fill:#2E2D26;}
	.st55{opacity:0.2;fill:#7B7C68;}
	.st56{fill:#63A70A;}
	.st57{opacity:0.4;fill:#63A70A;}
	.st58{opacity:0.4;}
	.st59{fill:#1F130A;}
	.st60{fill:#42150D;}
	.st61{fill:#32130C;}
	.st62{fill:#210F0B;}
	.st63{fill:#D1D3D4;}
	.st64{fill:#EF4136;stroke:#58595B;stroke-width:0.1415;stroke-miterlimit:10;}
	.st65{fill:#AAB4BF;}
	.st66{fill:#9FB4B8;}
	.st67{fill:#5B6B71;}
	.st68{fill:#879FA9;}
	.st69{clip-path:url(#SVGID_17_);}
	.st70{fill:#C4D600;}
	.st71{opacity:0.7;fill:#753317;}
	.st72{clip-path:url(#SVGID_19_);}
	.st73{opacity:0.3;fill:#524F4F;}
	.st74{fill:#FBC19E;}
	.st75{opacity:0.2;fill:#F8C5A6;}
	.st76{fill:#FCC3A1;}
	.st77{opacity:8.000000e-002;fill:url(#SVGID_20_);}
	.st78{opacity:8.000000e-002;fill:url(#SVGID_21_);}
	.st79{opacity:0.29;fill:#FBC19E;}
	.st80{fill:#C2531A;}
	.st81{opacity:0.8;fill:#E7835E;}
	.st82{opacity:0.4;fill:#C9920E;}
	.st83{fill:#FF6C0C;}
	.st84{fill:#2D4C56;}
	.st85{fill:#F6D2AE;}
	.st86{fill:#0C2633;}
	.st87{opacity:0.1;fill:url(#SVGID_22_);}
	.st88{opacity:0.1;fill:url(#SVGID_23_);}
	.st89{opacity:0.2;fill:#FFFFFF;}
	.st90{fill:#008FBE;}
	.st91{fill:#004D71;}
	.st92{opacity:0.3;fill:#004D71;}
	.st93{fill:#F9AA7E;}
	.st94{opacity:0.3;fill:#EC8449;}
	.st95{fill:url(#left_arm_2_);}
	.st96{opacity:0.2;fill:#EC8449;}
	.st97{opacity:0.25;fill:#7B7C68;}
	.st98{fill:#111111;}
	.st99{fill:#F8A063;}
	.st100{opacity:0.7;fill:#F8A063;}
	.st101{opacity:0.3;fill:#F8A063;}
	.st102{opacity:0.3;fill:#FAAE72;}
	.st103{fill:#F15941;}
	.st104{fill:#E5442F;}
	.st105{fill:#CC2E27;}
	.st106{opacity:0.12;fill:url(#SVGID_24_);}
	.st107{opacity:0.12;fill:url(#SVGID_25_);}
	.st108{fill:#07090E;}
	.st109{fill:#1A1A1A;}
	.st110{fill:#7A3E74;}
	.st111{fill:#2D2D3B;}
	.st112{opacity:0.15;fill:#333E48;}
	.st113{fill:#732282;}
	.st114{opacity:0.59;fill:#732282;}
	.st115{opacity:0.8;clip-path:url(#SVGID_19_);fill:#E7835E;}
	.st116{clip-path:url(#SVGID_27_);}
	.st117{opacity:0.15;fill:#010101;}
	.st118{fill:#2D140D;}
	.st119{fill:url(#trousers_3_);}
	.st120{opacity:0.5;fill:url(#SVGID_28_);}
	.st121{opacity:0.5;fill:url(#SVGID_29_);}
	.st122{opacity:0.25;fill:#5D2D11;}
	.st123{opacity:0.1;fill:#5C5925;}
	.st124{fill:#FECD8F;}
	.st125{opacity:0.5;fill:#FAB072;}
	.st126{fill:#FFE9CC;}
	.st127{opacity:0.3;fill:#A67D52;}
	.st128{fill:#FECC8C;}
	.st129{opacity:0.85;}
	.st130{opacity:0.15;fill:#004D71;}
	.st131{opacity:0.2;fill:#004D71;}
	.st132{opacity:0.3;fill:#ACAE85;}
	.st133{fill:#FFEFD9;}
	.st134{opacity:0.58;fill:#F8A063;}
	.st135{fill:#F69FA5;}
	.st136{fill:#7F8C8D;}
	.st137{fill:#F8CB5C;}
	.st138{fill:#FDC78F;}
	.st139{fill:#D53227;}
	.st140{fill:#BBAF8A;}
	.st141{fill:none;stroke:#DCCCA0;stroke-width:0.182;stroke-miterlimit:10;}
	.st142{fill:none;stroke:#DCCCA0;stroke-width:0.182;stroke-miterlimit:10;stroke-dasharray:0.6995,0.6995;}
	.st143{fill:#E6E7E8;}
	.st144{fill:#A7A9AC;}
	.st145{fill:#FDC485;}
	.st146{fill:#A4A9AD;}
	.st147{opacity:0.3;fill:#333E48;}
	.st148{fill:#5C6670;}
	.st149{fill:#FFFFFF;stroke:#333E48;stroke-width:3.9122;stroke-miterlimit:10;}
	.st150{fill:#465259;}
	.st151{fill:#C3C6C8;}
	.st152{fill:#E42A27;}
	.st153{fill:#D0D5D6;}
	.st154{fill:#F7A800;}
	.st155{fill:#C9920E;}
	.st156{fill:#364A5E;}
	.st157{fill:#293B4D;}
	.st158{fill:#FFFFFF;stroke:#333E48;stroke-width:4.0877;stroke-miterlimit:10;}
	.st159{display:none;}
	.st160{display:inline;}
	.st161{fill:#F1F4F7;}
	.st162{fill:#94A2AF;}
	.st163{fill:#F8EBD4;}
	.st164{fill:#FFD162;}
	.st165{fill:#F5F6F7;}
	.st166{fill:#D1D5D7;}
	.st167{fill:#AAB5BE;}
	.st168{opacity:0.52;fill:#F7A800;}
	.st169{fill:#F6F9FB;}
	.st170{fill:#E7EAED;}
</style>
<g>
	<defs>
		<rect id="SVGID_14_" x="12.3" y="-324.2" width="110.2" height="147.8"/>
	</defs>
	<clipPath id="SVGID_2_">
		<use xlink:href="#SVGID_14_"  style="overflow:visible;"/>
	</clipPath>
	<g class="st0">
		<g>
			<g id="girl_in_jacket_2_">
				<path id="shadow_beneath_1_" class="st49" d="M67.8,87.4c-7.3-0.5-60.3,11.1-58.1,14.4c2.3,3.5,28.6,9,44.2,7.5
					c16.5-1.6,14.6-8.3,34.2-9.4c8.1-0.5,19.3-1.8,19.3-5.4C107.4,92.3,75.9,88,67.8,87.4z"/>
				<g id="feet_1_">
					<path class="st50" d="M82.6,86.3c-4.5-4-6.2-10.1-5-29.8l-9.4-1.2c2.4,13.4-0.7,25-3.4,31.1c-0.9,2-1.2,4.1-0.6,4.5
						c6.2,1.8,34.4,6.8,38.3,3C95.4,92.2,88.4,91.5,82.6,86.3z"/>
					<path class="st50" d="M30.5,92c-3.5-5.8,2.3-24.6,5.4-36.1L26,55.4c-3.5,29.8-9.3,38.8-10.2,43.9c13.1,4.8,36.1,8.4,35.9,4.5
						C42.8,100.1,33.8,97.5,30.5,92z"/>
				</g>
				<g id="shoes_1_">
					<path class="st52" d="M42.9,100.3c0.8,0.4,1.2,0.4,1.1,0.8c-0.6,1-28.1-3.6-25.5-9.8c0,0-3.3,6.6-2.6,9.9
						c4.7,2.1,19.3,4.5,26,4.5c11.9,0.1,11.4-1.1,10.2-1.8C50.8,103.1,46.5,101.5,42.9,100.3z"/>
					<path class="st52" d="M89.5,90.5c5.1,3.6-26.2-1.2-23.1-8.2l-2.5,5.6l-0.6,3.5c0,1.5,11.7,3.8,18.5,4.3
						c10.5,0.8,22.3,1.2,21.6-1.6C102.6,93.9,95.6,92,89.5,90.5z"/>
				</g>
				<g id="pants_1_">
					<path id="pants_3_" class="st53" d="M94.8-138.2c-8.6,2.9-43.6,6.2-43.6,6.2c-3.1,2.6-11.7,14-13.4,27.2
						c-2,15.3,5.9,65.5,5.2,80.6C42.5-13.1,37.8-8.7,32.6,7.7c-5,15.8-10.9,60-15.4,80.9c2.8,5.8,12.5,2.1,12.5,2.1
						C33.8,63,53.6-1,56.4-14.3C58.9-29,66.2-83.4,68.8-98l5-0.2c0.4,7.1,2,58.2-1.4,73.3c-2.8,12.4-1.4,6.9-4.3,19.4
						c-4.6,20.1,1.8,67.3-1,85.7c5.4,3.4,11.5-0.1,11.5-0.1c-0.1-17.2,3.1-70.9,7.7-94.3c3.5-14.3,15.1-55.1,14.8-82.2
						C100.9-107.6,99.2-119.8,94.8-138.2z"/>
				</g>
			</g>
		</g>
	</g>
</g>
<g>
	<g>
		<path class="st146" d="M91.6,21c1.6,0,3.1,0.6,4.2,1.7c1.1,1.1,1.7,2.6,1.7,4.2v0.9h13.7v16.5v0v72.6H37.9H26.8V44.3v0V27.8h11.1
			h13.7v-0.9c0-1.6,0.6-3,1.7-4.2c1.1-1.1,2.6-1.7,4.2-1.7c1.6,0,3.1,0.6,4.2,1.7c1.1,1.1,1.7,2.6,1.7,4.2v0.9h22.3v-0.9
			c0-1.6,0.6-3.1,1.7-4.2C88.5,21.6,90,21,91.6,21 M88.4,27.8h6.4v-0.9c0-0.9-0.3-1.7-0.9-2.3c-0.6-0.6-1.4-0.9-2.3-0.9
			c-0.8,0-1.7,0.3-2.3,0.9c-0.6,0.6-0.9,1.4-0.9,2.3V27.8 M54.3,27.8h6.4v-0.9c0-0.9-0.3-1.7-0.9-2.3c-0.6-0.6-1.4-0.9-2.3-0.9
			c-0.8,0-1.7,0.3-2.3,0.9c-0.6,0.6-0.9,1.4-0.9,2.3V27.8 M91.6,19c-2.1,0-4.1,0.8-5.6,2.3c-1.2,1.2-2,2.8-2.2,4.5H65.3
			c-0.2-1.7-1-3.3-2.2-4.5c-1.5-1.5-3.5-2.3-5.6-2.3c-2.1,0-4.1,0.8-5.6,2.3c-1.2,1.2-2,2.8-2.2,4.5H37.9H26.8c-1.1,0-2,0.9-2,2
			v16.5v72.6c0,1.1,0.9,2,2,2h11.1h73.3c1.1,0,2-0.9,2-2V44.3V27.8c0-1.1-0.9-2-2-2H99.4c-0.2-1.7-1-3.3-2.2-4.5
			C95.7,19.8,93.7,19,91.6,19L91.6,19z"/>
	</g>
	<g>
		<rect x="37.9" y="44.3" class="st151" width="73.3" height="72.6"/>
		<rect x="37.9" y="27.8" class="st83" width="73.3" height="16.5"/>
		<g>
			<g>
				<circle class="st91" cx="57.5" cy="36.1" r="3.5"/>
				<circle class="st91" cx="91.6" cy="36.1" r="3.5"/>
			</g>
		</g>
		<g>
			<g>
				<path class="st170" d="M61.6,22.7C60.5,21.6,59,21,57.5,21c-1.6,0-3,0.6-4.2,1.7c-1.1,1.1-1.7,2.6-1.7,4.2v0.9h2.7v-0.9
					c0-0.9,0.3-1.7,0.9-2.3c1.2-1.2,3.3-1.2,4.5,0c0.6,0.6,0.9,1.4,0.9,2.3v4.6c0,0.9-0.3,1.7-0.9,2.3c-0.6,0.6-1.4,0.9-2.3,0.9
					c-0.7,0-1.3,0.6-1.3,1.3s0.6,1.3,1.3,1.3c1.6,0,3.1-0.6,4.2-1.7c1.1-1.1,1.7-2.6,1.7-4.2v-4.6C63.4,25.3,62.7,23.8,61.6,22.7z"
					/>
				<path class="st170" d="M95.7,22.7c-1.1-1.1-2.6-1.7-4.2-1.7c-1.6,0-3,0.6-4.2,1.7c-1.1,1.1-1.7,2.6-1.7,4.2v0.9h2.7v-0.9
					c0-0.9,0.3-1.7,0.9-2.3c1.2-1.2,3.3-1.2,4.5,0c0.6,0.6,0.9,1.4,0.9,2.3v4.6c0,0.9-0.3,1.7-0.9,2.3c-0.6,0.6-1.4,0.9-2.3,0.9
					c-0.7,0-1.3,0.6-1.3,1.3s0.6,1.3,1.3,1.3c1.6,0,3.1-0.6,4.2-1.7c1.1-1.1,1.7-2.6,1.7-4.2v-4.6C97.5,25.3,96.8,23.8,95.7,22.7z"
					/>
			</g>
		</g>
		<rect x="26.8" y="44.3" class="st146" width="11.1" height="72.6"/>
		<rect x="26.8" y="27.8" class="st80" width="11.1" height="16.5"/>
		<path class="st165" d="M111.2,44.3v58.9H49.8c-6.6,0-11.9-5.3-11.9-11.9v-47H111.2z"/>
		<path class="st91" d="M61.7,91.3c0,6.6-5.3,11.9-11.9,11.9h61.3c6.6,0,11.9-5.3,11.9-11.9L61.7,91.3z"/>
		<g>
			<g>
				<path class="st83" d="M59.5,71.3c0-5.4,2.8-10.5,8.7-10.5c5.9,0,8.7,5.1,8.7,10.5c0,5.4-2.8,10.5-8.7,10.5
					C62.3,81.8,59.5,76.7,59.5,71.3z M71.7,71.3c0-3.6-1-5.8-3.4-5.8c-2.4,0-3.4,2.3-3.4,5.8c0,3.6,1,5.9,3.4,5.9
					C70.7,77.2,71.7,74.9,71.7,71.3z"/>
				<path class="st83" d="M84.3,81.4V67.8l-3.4,3.4l-3-3.1l7.1-7h4.5v20.3H84.3z"/>
			</g>
		</g>
	</g>
</g>
</svg>
