<?xml version="1.0" encoding="utf-8"?>
<!-- Generator: Adobe Illustrator 19.1.0, SVG Export Plug-In . SVG Version: 6.00 Build 0)  -->
<svg version="1.1" baseProfile="basic" id="Layer_1"
	 xmlns="http://www.w3.org/2000/svg" xmlns:xlink="http://www.w3.org/1999/xlink" x="0px" y="0px" viewBox="0 0 144 144"
	 xml:space="preserve">
<g>
	<defs>
		<rect id="SVGID_1_" x="16.3" y="0.1" width="106.5" height="142.8"/>
	</defs>
	<clipPath id="SVGID_2_">
		<use xlink:href="#SVGID_1_"  overflow="visible"/>
	</clipPath>
	<g clip-path="url(#SVGID_2_)">
		<g id="man_2_">
			<g id="head_4_">
				<g id="neck_4_">
					<path fill="#F89B57" d="M59.2,59.4c4.3,3.5,21.8,7.4,27.5,7.7c0,0-1,23.4,2.3,23.8c0,0-6,19.3-7.1,19.3
						c-6.5,0-27.8-22.4-27.8-22.4C60.8,87.9,59.2,59.4,59.2,59.4z"/>
					<path opacity="0.19" fill="#F5822A" d="M59.2,59.4c4.3,3.5,21.8,7.4,27.5,7.7c0,0-0.5,12.5,0.5,19.4c-4.1,0.8-21-7.2-26.5-15.8
						c0,0-1.3,11-3.7,14.6l0,0C60.3,78.5,59.2,59.4,59.2,59.4z"/>
				</g>
				<g id="ears_2_">
					<path fill="#F89B57" d="M48.7,41.6c-0.8,5.1,4.4,11.9,6.7,12.5c0,0,1.3-12.1,1.3-13C56.3,34.9,49.6,35.3,48.7,41.6z"/>
					<path fill="#F89B57" d="M93.5,38.5l-0.7,15.6C100.2,50.8,100.4,33.5,93.5,38.5z"/>
				</g>
				<g id="face_7_">
					<path id="face_8_" fill="#F89B57" d="M92.7,21.5c-1.4-6.4-23.1-15.1-37.5-0.7c-0.5,0.3-1,30.6,1.4,46.6
						c3.5,3.7,16.7,9.4,19.5,9.4c3.8,0,16.4-6.2,16.8-8.5c0.3-1.6,1.1-19.2,1.2-27.7C94.3,37.3,92.7,21.5,92.7,21.5z"/>
					<path id="shadow_on_face_2_" opacity="0.21" fill="#F5822A" d="M92.9,68.4c0.3-1.6,1.1-19.2,1.2-27.7
						c0.2-3.4-1.4-19.2-1.4-19.2c-0.3-1.4-1.5-2.8-3.4-4.2l0,0c-4.7,0.7-8.8,1.2-10.8,1.2c2.4,3.1,2.3,14,1.4,21.2
						c2.2,8,2.1,11.5,2.5,14.4c0.3,2.4-1.1,3.1-3.1,2.8c0.7,0.8,0.6,4.9,1.3,5.6c-0.6,3-3.5,4-3.5,4c2.2,4.5,0.5,7.7-1.2,10.4
						c0.1,0,0.1,0,0.2,0C79.9,76.9,92.5,70.7,92.9,68.4z"/>
					<g id="smile_3_" opacity="0.2">
						<path opacity="0.9" fill="#F5822A" d="M74.8,65.8C74.9,65.8,74.8,65.8,74.8,65.8c2.7,0.5,5.3-0.1,7.9-0.1
							c-1.3,1-2.8,1.2-4.4,1.4c-1.4,0-3.5-0.2-4.3-1.5C74.3,65.7,74.5,65.7,74.8,65.8z"/>
						<path opacity="0.9" fill="#F5822A" d="M69.9,60.6c-0.2,0.4-0.2,0.9,0.2,1.2c1.4,0.6,6.1,0.3,7.5,0.2c0.7,0,4.1,0.5,7.5,0
							c0.7-0.2,0.5-0.9,0.3-1.1c0.6,0.3,1.1,0.8,1.1,1.2c0,0.4-0.5,0.4-1.5,0.3c-3.7,0.7-4.6,0.5-6.1,0.5c-5.6,0.4-8.5-0.5-8.5-0.5
							c-0.6,0-1.7-0.1-1.8-0.5C68.7,61.6,69.7,60.8,69.9,60.6z"/>
					</g>
					<g id="nose_4_" opacity="0.2">
						<path fill="#F5822A" d="M81.7,55.8c-2.9,0.8-6.3,0.9-8.4-1.6c1,1.6,2.5,2.5,4.3,2.7c1.3,0.2,4.3,0.6,5-0.4
							c0.3-0.5,0.1-1.9,0.1-2.3c0-0.4,0-0.2,0,0c-0.3-4.5-1.4-9.1-2.6-13.5c0.3,3.3,0.8,6.6,1.2,9.8"/>
					</g>
					<g id="eyes_4_">
						<g>
							<path id="shadow_3_" opacity="0.2" fill="#F5822A" d="M73.8,34.4c-4.9-0.4-11-0.8-13.3,2c-0.9,1,0.4,6,1.5,6.8
								c1,0.7,8.7,1,10.1,0.3C75.4,41.9,74.4,36,73.8,34.4z"/>
							<g id="eye_4_">
								<path fill="#FFFFFF" d="M63.5,40.4c1.8-1.4,7.3-0.9,8.6,0.2l-0.6,2.5c-1.6,0.5-5.7,1.2-7.8,0C63.2,42.2,63.3,41.3,63.5,40.4
									z"/>
								<g>
									<g id="eye_5_">
										<g>
											<ellipse fill="#3E140D" cx="67.5" cy="41.5" rx="1.3" ry="1.2"/>
										</g>
									</g>
								</g>
								<path fill="#3E140D" d="M63.2,40.4c0.3-0.9,7.2-1.7,9.4,0c0.2,0.3-0.7,0.7-0.8,0.7c-1.8-0.8-8.1-0.7-8.6,0.3V40.4z"/>
							</g>
							<path id="eyebrow_2_" fill="#753317" d="M64.5,32.5l8.9,0.7c-0.1,0.1,0.8,2.6,0.7,2.8c0.2,0.7-9.4-0.7-13.5,0.7
								c-0.9-0.5,0.5-2.4,1-3.1C62.3,32.8,64,32.5,64.5,32.5z"/>
						</g>
						<g>
							<g id="eye_1_">
								<path fill="#FFFFFF" d="M83.1,43.1c0-1.6,0-2.1,0.2-2.4c1.5-1.5,6.6-0.9,7.7-0.1c0.1,1.3-0.3,2.4-0.3,2.4
									c-1.5,0.9-4.6,0.9-7.2,0.4C83.5,43.4,83.3,43.2,83.1,43.1z"/>
								<g>
									<g id="eye_2_">
										<g>
											<path fill="#3E140D" d="M86.2,41.4c0,0.7,0.6,1.2,1.3,1.2c0.7,0,1.3-0.5,1.3-1.2c0-0.7-0.6-1.2-1.3-1.2
												C86.8,40.2,86.2,40.8,86.2,41.4z"/>
										</g>
									</g>
								</g>
								<path fill="#3E140D" d="M83.6,40.1c0.9-0.6,4.8-1.2,7.9-0.1c0.2,0.3-0.3,1.1-0.4,1.1c-2-1.3-8-0.1-8,0.4
									C83.1,41.6,82.9,40.7,83.6,40.1z"/>
							</g>
							<path id="eyebrow_1_" fill="#753317" d="M82.9,33.5c0.6-0.1,5.2-1.3,7.9-0.5l2.5,1.2c0.5,0.7,0,2.1-0.2,2.9
								c-2.1-0.3-7-0.9-10.7-0.8C82.2,35.5,82.7,34.3,82.9,33.5z"/>
						</g>
					</g>
				</g>
				<path id="hair_4_" fill="#753317" d="M55.4,15.9c-4.2,5.9-2.9,19.2-3.2,20.9c0,0,3.2-1,2.9,8.6c0.7,0.3,2-1.8,2.6-1.8
					c0.6-10.8,0.1-10.7,0.8-21.3c4-2.7,32.2-2.1,33.6,2c1.5,4.3,1.3,10.3,2.1,16.5c0.1-2.2,0.7-2.9,1.2-3c1.2-8.6,0.4-21.7-4.7-23.6
					c-6.2-2.3-19.1-1.9-26.2-1.6C63.4,12.6,57.5,13,55.4,15.9z"/>
			</g>
		</g>
		<g id="t-shirt_3_">
			<polygon fill="#F89B57" points="107.7,137.4 107.5,138.2 107.2,139.4 107.1,140.4 118.8,139.6 118.9,136.4 			"/>
			<path id="t-shirt_2_" fill="#454427" d="M107.4,138.5c0,0,11.5,0,15.5-2c-1.3-8.4-4.1-35.8-7-38.6c-2-2-22.7-7.1-23.2-8.1l0-0.1
				c-1.8-0.8-3.9-1.4-4.7-1.7C86.9,93.4,70,98,53.5,86.3c-0.8,0.4-2.7,1.4-4.3,2l0,0.3c-8.1,3.1-21.6,8.3-23.9,10.7
				c-3.8,4-7.8,35.1-8,40.9c6.5,1.4,15.8,3.8,22.1,3c0.1,0.1-2.8,6.7-2.8,14.2c-0.1,13.1,2.8,33,4.2,34c1.6,1.1,30.9,3.5,40.3,3.5
				c16.3,0.1,25.5-3,27.8-7.7C109.3,186.2,108.6,141.7,107.4,138.5z"/>
			<g id="shadows_10_">
				<path opacity="0.4" fill="#1A1A1A" d="M49,187.5c-2-1.8,11.4,1,9.5-1.7c-1.6-2.3-13.8-6.8-11.2-12.2c8.7,4.3,14.7,7.4,15.9,6.4
					c0-1.1-18.6-10.8-19.9-24c-1.6-14.8,3.3-38.3-4.2-56.2c3.9,13.4,0.8,35.3-0.7,36.9c-1.8,1.8-9.6,3.8-20.9,3.4
					c6.5,1.4,15.8,3.8,22.1,3c0.1,0.1-2.8,6.7-2.8,14.2c-0.1,13.1,2.8,33,4.2,34c1.3,0.9,20.9,2.7,33.3,3.3
					C58.3,192.9,50.3,188.7,49,187.5z"/>
				<path opacity="0.4" fill="#1A1A1A" d="M108.4,106.8c0.2,18.5-1.3,23.4-4,29.6c0.4,7-1.1,12-2.7,15.6c-3.8,8.4-7.2,11.5-6.8,12.7
					c0.4,1,7.1-4.9,7.8-4.3c4.8,4.3,1.8,20.4-4.8,26.6c-7.5,7.1,4.2-0.2,4.9,1.5c0.9,2-1.3,4.5-16.4,6.4c13.1-0.6,20.6-3.4,22.6-7.5
					c0.3-1-0.2-36.1-1.1-46.3c-0.3-0.9-0.6-1.8-0.4-2.6C109.9,130.7,109.6,111.3,108.4,106.8z"/>
			</g>
		</g>
		<g id="arms_2_">
			<g>
				<path fill="#F89B57" d="M52.2,194.5c-3-3.5-4.4-1.3-5.6-3c-3.6-5.4-3.5-17.5-5-22.6c-1.2-3.8-3.4-8.9-3.4-12.3
					c0.1-5,1.3-8.2,1.1-13.3c-6.4,0.1-19.7-2.5-19.7-2.5c-0.9,4.7,0.8,14.4,1.9,21.2c1.5,9,5.1,21,8.9,29.3
					c1.6,3.6,3.8,6.8,5.7,10.1c0.9,1.6,2.3,8.2,3.8,9C46.2,208.7,52.4,198,52.2,194.5z"/>
				<path opacity="0.2" fill="#F5822A" d="M36,201.4c0.9,1.6,2.3,8.2,3.8,9c6.4-1.8,12.6-12.5,12.4-15.9c-0.4-0.5-0.8-0.9-1.2-1.1
					c-0.8,6.2-4.1,8.9-6.8,10.2c-4.2,2.2-7.2-3.8-9.1-7.1c-3.4-5.9-13.1-25.6-12.4-45.3c0.2-6.2,16.5-7.4,16.5-7.4
					c0-0.2,0-0.3,0-0.5c-6.4,0.1-19.7-2.5-19.7-2.5c-0.9,4.7,0.8,14.4,1.9,21.2c1.5,9,5.1,21,8.9,29.3
					C31.9,194.9,34.1,198.2,36,201.4z"/>
			</g>
			<g>
				<path fill="#F89B57" d="M118.8,137.6c0,0-5.1,0.9-11.4,0.8c-0.7,3.4-1.3,10.3-2.3,15.7c-0.9,4.9,7,33.8-0.8,37.2
					c0,3.2,3.6,9.1,6.8,13.2c4.1-4.3,6.3-10.5,6.7-12.4c-1-8.5,0.1-19.3,0.7-25.8c0.6-6.7-0.8-9.7-0.5-14.7
					C118.2,147.2,118.8,143.2,118.8,137.6z"/>
				<path opacity="0.2" fill="#F5822A" d="M105,154.2c-0.9,4.9,7,33.8-0.8,37.2c0,3.2,3.6,9.1,6.8,13.2c3.8-4.1,6-9.7,6.6-11.9l0,0
					c-1.9,3.1-6.1,4.9-10.2,0.5c0,0,1.2-5.1,1.6-7.6c0.3-1.9-0.2-14.7-1.1-19.9c-1.4-8.3-0.8-24.6,11-27.1c0-0.4,0-0.8,0-1.1
					c0,0-5.3,0.9-11.6,0.9C106.5,141.9,106,148.9,105,154.2z"/>
			</g>
		</g>
		<path opacity="0.4" fill="#1A1A1A" d="M49,88.8c0,0,12.2,9.8,24.9,9.7s17.8-7.1,18.1-7.6c0.4-0.5-4,7.3-17.4,8.5
			c-13.4,1.2-27-10.1-27-10.1L49,88.8z"/>
		<path fill="none" stroke="#6C757D" stroke-width="0.2417" stroke-linecap="round" stroke-miterlimit="10" d="M75.4,134.2
			c0.1,0,0.2-0.1,0.3-0.1c8.5-8,11.9-46,11.9-46"/>
		<g>
			<g>
				<g>
					<path fill="#5C6670" d="M78.8,141.9l-3,0.6c-0.6,0.1-1.1-0.2-1.3-0.8l-1-4.7l3-0.6c0.6-0.1,1.1,0.2,1.3,0.8L78.8,141.9z"/>
					<path fill="#5C6670" d="M75.6,142.8c-0.2,0-0.5-0.1-0.7-0.2c-0.3-0.2-0.5-0.5-0.6-0.8l-1.1-5l3.2-0.7c0.7-0.2,1.4,0.3,1.6,1
						l1.1,5l-3.2,0.7C75.8,142.8,75.7,142.8,75.6,142.8z M73.9,137.1l1,4.5c0,0.2,0.2,0.4,0.4,0.5c0.2,0.1,0.4,0.2,0.6,0.1l2.8-0.6
						l-1-4.5c-0.1-0.4-0.5-0.7-1-0.6L73.9,137.1z"/>
				</g>
				<g>
					<path fill="#5C6670" d="M78.8,141.9l-3,0.6c-0.6,0.1-1.1-0.2-1.3-0.8l-1-4.7l3-0.6c0.6-0.1,1.1,0.2,1.3,0.8L78.8,141.9z"/>
					<path opacity="0.58" fill="#818181" d="M75.6,142.6c-0.2,0-0.4-0.1-0.6-0.2c-0.3-0.2-0.4-0.4-0.5-0.7l-1-4.8l3.1-0.7
						c0.6-0.1,1.2,0.3,1.4,0.9l1,4.8l-3.1,0.7C75.8,142.6,75.7,142.6,75.6,142.6z M73.7,137l1,4.6c0.1,0.3,0.2,0.5,0.4,0.6
						c0.2,0.1,0.5,0.2,0.7,0.1l2.9-0.6l-1-4.6c-0.1-0.5-0.6-0.9-1.1-0.7L73.7,137z"/>
				</g>
				<path fill="#5C6670" d="M78.8,141.9l-3,0.6c-0.6,0.1-1.1-0.2-1.3-0.8l-1-4.7l3-0.6c0.6-0.1,1.1,0.2,1.3,0.8L78.8,141.9z"/>
			</g>
			<g>
				<g>
					<path fill="#5C6670" d="M76.4,141.2h-4c-0.8,0-1.4-0.6-1.4-1.4v-6.3h4c0.8,0,1.4,0.6,1.4,1.4V141.2z"/>
					<path fill="#5C6670" d="M76.9,141.6h-4.4c-1,0-1.8-0.8-1.8-1.8v-6.7h4.4c1,0,1.8,0.8,1.8,1.8V141.6z M71.5,133.9v5.8
						c0,0.5,0.4,0.9,0.9,0.9H76v-5.8c0-0.5-0.4-0.9-0.9-0.9H71.5z"/>
				</g>
				<g>
					<path fill="#5C6670" d="M76.4,141.2h-4c-0.8,0-1.4-0.6-1.4-1.4v-6.3h4c0.8,0,1.4,0.6,1.4,1.4V141.2z"/>
					<path opacity="0.58" fill="#818181" d="M76.6,141.3h-4.1c-0.8,0-1.5-0.7-1.5-1.5v-6.4h4.1c0.8,0,1.5,0.7,1.5,1.5V141.3z
						 M71.2,133.6v6.2c0,0.7,0.6,1.3,1.3,1.3h3.9v-6.2c0-0.7-0.6-1.3-1.3-1.3H71.2z"/>
				</g>
				<path fill="#5C6670" d="M76.4,141.2h-4c-0.8,0-1.4-0.6-1.4-1.4v-6.3h4c0.8,0,1.4,0.6,1.4,1.4V141.2z"/>
			</g>
			<path opacity="0.58" fill="#818181" d="M73.3,134.7L73.3,134.7c-0.1-0.1-0.1-0.4,0-0.5l0,0c0.1-0.1,0.4-0.1,0.5,0l0,0
				c0.1,0.1,0.1,0.4,0,0.5l0,0C73.7,134.8,73.5,134.8,73.3,134.7z"/>
		</g>
		<path fill="none" stroke="#6C757D" stroke-width="0.2417" stroke-linecap="round" stroke-miterlimit="10" d="M57,85.4
			c0,0,6.8,46.7,16.4,49c0.1,0,0.1,0,0.2,0"/>
		<path id="ear_4_" opacity="0.2" fill="#F5822A" d="M49.4,43.4c0.1-2.3,1.8-3.5,3.3-3c1.1,0.4,2.2,2.4,2,4.6
			c-0.4-1.3-1.8-1.3-2.4-0.1c-0.9,1.5-0.4,4.5,2.4,5c-3.8,0.2-5.5-5.1-1.9-7.3C53,41.5,50.6,40.5,49.4,43.4z"/>
		<path id="ear_2_" opacity="0.2" fill="#F5822A" d="M97.9,43.4c-0.1-2.3-1.1-3.5-2-3c-0.6,0.4-1.3,2.3-1.1,4.5
			c0.2-1.3,1-1.2,1.4-0.1c0.6,1.5,0.3,4.5-1.3,5c2.3,0.2,3.2-5,1-7.2C95.8,41.5,97.2,40.5,97.9,43.4z"/>
	</g>
</g>
</svg>
