<?xml version="1.0" encoding="utf-8"?>
<!-- Generator: Adobe Illustrator 19.0.1, SVG Export Plug-In . SVG Version: 6.00 Build 0)  -->
<svg version="1.1" id="Layer_1" xmlns="http://www.w3.org/2000/svg" xmlns:xlink="http://www.w3.org/1999/xlink" x="0px" y="0px"
	 viewBox="0 0 144 144" style="enable-background:new 0 0 144 144;" xml:space="preserve">
<style type="text/css">
	.st0{clip-path:url(#SVGID_2_);}
	.st1{opacity:0.4;fill:#818181;}
	.st2{fill:#FDD1B0;}
	.st3{opacity:0.25;fill:#F9B38A;}
	.st4{opacity:0.7;fill:#FABD98;}
	.st5{opacity:0.7;}
	.st6{opacity:0.2;fill:#F37C3F;}
	.st7{fill:#FFFFFF;}
	.st8{fill:#3E1410;}
	.st9{fill:url(#SVGID_3_);}
	.st10{fill:url(#SVGID_4_);}
	.st11{fill:url(#hair_4_);}
	.st12{fill:#333E48;}
	.st13{fill:#49606C;}
	.st14{opacity:0.3;fill:#49606C;}
	.st15{fill:#F3F3F3;}
	.st16{fill:#E6E6E5;}
	.st17{fill:#0E222D;}
	.st18{opacity:0.5;fill:#0E222D;}
	.st19{opacity:0.7;fill:#11273D;}
	.st20{opacity:0.4;fill:#1A1A1A;}
	.st21{clip-path:url(#SVGID_6_);}
	.st22{fill:#A97C50;}
	.st23{opacity:0.7;fill:#A57E5C;}
	.st24{fill:#8B5E3C;}
	.st25{fill:#3C2415;}
	.st26{opacity:0.8;fill:#8B5E3C;}
	.st27{fill:#36160E;}
	.st28{opacity:0.25;fill:#8B5E3C;}
	.st29{fill:#25110B;}
	.st30{opacity:0.4;fill:#524F4F;}
	.st31{fill:url(#SVGID_7_);}
	.st32{opacity:0.3;fill:url(#SVGID_8_);}
	.st33{fill:url(#SVGID_9_);}
	.st34{opacity:0.3;fill:url(#SVGID_10_);}
	.st35{opacity:0.2;fill:url(#SVGID_11_);}
	.st36{fill:#131313;}
	.st37{fill:url(#SVGID_12_);}
	.st38{fill:url(#SVGID_13_);}
	.st39{fill:#010101;}
	.st40{fill:#F1F2F2;}
	.st41{opacity:0.3;fill:#303030;}
	.st42{fill:#E2231A;}
	.st43{opacity:0.75;fill:#C3C6C8;}
	.st44{fill:#0B0A0B;}
	.st45{fill:#282829;}
	.st46{fill:#1C1B1C;}
	.st47{fill:#F9A45D;}
	.st48{clip-path:url(#SVGID_15_);}
	.st49{opacity:0.25;fill:#333333;}
	.st50{fill:#A14423;}
	.st51{opacity:0.5;fill:#A14423;}
	.st52{fill:#3B3434;}
	.st53{fill:#2E2D26;}
	.st54{opacity:0.25;fill:#2E2D26;}
	.st55{opacity:0.2;fill:#7B7C68;}
	.st56{fill:#63A70A;}
	.st57{opacity:0.4;fill:#63A70A;}
	.st58{opacity:0.4;}
	.st59{fill:#1F130A;}
	.st60{fill:#42150D;}
	.st61{fill:#32130C;}
	.st62{fill:#210F0B;}
	.st63{fill:#D1D3D4;}
	.st64{fill:#EF4136;stroke:#58595B;stroke-width:0.1415;stroke-miterlimit:10;}
	.st65{fill:#AAB4BF;}
	.st66{fill:#9FB4B8;}
	.st67{fill:#5B6B71;}
	.st68{fill:#879FA9;}
	.st69{clip-path:url(#SVGID_17_);}
	.st70{fill:#C4D600;}
	.st71{opacity:0.7;fill:#753317;}
	.st72{clip-path:url(#SVGID_19_);}
	.st73{opacity:0.3;fill:#524F4F;}
	.st74{fill:#FBC19E;}
	.st75{opacity:0.2;fill:#F8C5A6;}
	.st76{fill:#FCC3A1;}
	.st77{opacity:8.000000e-002;fill:url(#SVGID_20_);}
	.st78{opacity:8.000000e-002;fill:url(#SVGID_21_);}
	.st79{opacity:0.29;fill:#FBC19E;}
	.st80{fill:#C2531A;}
	.st81{opacity:0.8;fill:#E7835E;}
	.st82{opacity:0.4;fill:#C9920E;}
	.st83{fill:#FF6C0C;}
	.st84{fill:#2D4C56;}
	.st85{fill:#F6D2AE;}
	.st86{fill:#0C2633;}
	.st87{opacity:0.1;fill:url(#SVGID_22_);}
	.st88{opacity:0.1;fill:url(#SVGID_23_);}
	.st89{opacity:0.2;fill:#FFFFFF;}
	.st90{fill:#008FBE;}
	.st91{fill:#004D71;}
	.st92{opacity:0.3;fill:#004D71;}
	.st93{fill:#F9AA7E;}
	.st94{opacity:0.3;fill:#EC8449;}
	.st95{fill:url(#left_arm_2_);}
	.st96{opacity:0.2;fill:#EC8449;}
	.st97{opacity:0.25;fill:#7B7C68;}
	.st98{fill:#111111;}
	.st99{fill:#F8A063;}
	.st100{opacity:0.7;fill:#F8A063;}
	.st101{opacity:0.3;fill:#F8A063;}
	.st102{opacity:0.3;fill:#FAAE72;}
	.st103{fill:#F15941;}
	.st104{fill:#E5442F;}
	.st105{fill:#CC2E27;}
	.st106{opacity:0.12;fill:url(#SVGID_24_);}
	.st107{opacity:0.12;fill:url(#SVGID_25_);}
	.st108{fill:#07090E;}
	.st109{fill:#1A1A1A;}
	.st110{fill:#7A3E74;}
	.st111{fill:#2D2D3B;}
	.st112{opacity:0.15;fill:#333E48;}
	.st113{fill:#732282;}
	.st114{opacity:0.59;fill:#732282;}
	.st115{opacity:0.8;clip-path:url(#SVGID_19_);fill:#E7835E;}
	.st116{clip-path:url(#SVGID_27_);}
	.st117{opacity:0.15;fill:#010101;}
	.st118{fill:#2D140D;}
	.st119{fill:url(#trousers_3_);}
	.st120{opacity:0.5;fill:url(#SVGID_28_);}
	.st121{opacity:0.5;fill:url(#SVGID_29_);}
	.st122{opacity:0.25;fill:#5D2D11;}
	.st123{opacity:0.1;fill:#5C5925;}
	.st124{fill:#FECD8F;}
	.st125{opacity:0.5;fill:#FAB072;}
	.st126{fill:#FFE9CC;}
	.st127{opacity:0.3;fill:#A67D52;}
	.st128{fill:#FECC8C;}
	.st129{opacity:0.85;}
	.st130{opacity:0.15;fill:#004D71;}
	.st131{opacity:0.2;fill:#004D71;}
	.st132{opacity:0.3;fill:#ACAE85;}
	.st133{fill:#FFEFD9;}
	.st134{opacity:0.58;fill:#F8A063;}
	.st135{fill:#F69FA5;}
	.st136{fill:#7F8C8D;}
	.st137{fill:#F8CB5C;}
	.st138{fill:#FDC78F;}
	.st139{fill:#D53227;}
	.st140{fill:#BBAF8A;}
	.st141{fill:none;stroke:#DCCCA0;stroke-width:0.182;stroke-miterlimit:10;}
	.st142{fill:none;stroke:#DCCCA0;stroke-width:0.182;stroke-miterlimit:10;stroke-dasharray:0.6995,0.6995;}
	.st143{fill:#E6E7E8;}
	.st144{fill:#A7A9AC;}
	.st145{fill:#FDC485;}
	.st146{fill:#A4A9AD;}
	.st147{opacity:0.3;fill:#333E48;}
	.st148{fill:#5C6670;}
	.st149{fill:#FFFFFF;stroke:#333E48;stroke-width:3.9122;stroke-miterlimit:10;}
	.st150{fill:#465259;}
	.st151{fill:#C3C6C8;}
	.st152{fill:#E42A27;}
	.st153{fill:#D0D5D6;}
	.st154{fill:#F7A800;}
	.st155{fill:#C9920E;}
	.st156{fill:#364A5E;}
	.st157{fill:#293B4D;}
	.st158{fill:#FFFFFF;stroke:#333E48;stroke-width:4.0877;stroke-miterlimit:10;}
	.st159{display:none;}
	.st160{display:inline;}
	.st161{fill:#F1F4F7;}
	.st162{fill:#94A2AF;}
	.st163{fill:#F8EBD4;}
	.st164{fill:#FFD162;}
	.st165{fill:#F5F6F7;}
	.st166{fill:#D1D5D7;}
	.st167{fill:#AAB5BE;}
	.st168{opacity:0.52;fill:#F7A800;}
	.st169{fill:#F6F9FB;}
	.st170{fill:#E7EAED;}
</style>
<g>
	<defs>
		<rect id="SVGID_1_" x="11.9" y="-5.7" width="110.2" height="147.8"/>
	</defs>
	<clipPath id="SVGID_2_">
		<use xlink:href="#SVGID_1_"  style="overflow:visible;"/>
	</clipPath>
	<g class="st0">
		<g id="guy_with_glasses_1_">
			<g id="head_2_">
				<g id="neck_2_">
					<path class="st2" d="M54,72.2c0.5,0.2,28.2-11.1,28.2-11.1c-1.9,6.3-8.1,37.5,0.1,38.4c-6.9,16-28.9,20-34.4,1
						C57.2,98.2,55.6,82,54,72.2z"/>
					<path class="st3" d="M82.6,65.5c-2.3,4.7-4.9,16.2-6.4,20.2c-5,3.5-14.9,7.5-22.4,8.9c2.4-6.2,1.3-15.8,0.1-22.4
						c0.4,0.2,19.2-7,26.7-9.9l2.4,1.1C83,64,82.8,64.7,82.6,65.5z"/>
				</g>
				<g id="face_3_">
					<path id="face_4_" class="st2" d="M43.7,50.1c0.8-9.3,1.5-11.6,2.8-17.8c4.7-8.6,30.5-4.2,38-1.2c5.5,2.2,3.8,17.2,2.5,21.3
						c2.4-0.6,5.4,1.2,5.4,3c1.2,1.1-3.1,13-9.6,11c0,0-4.8,15.5-5.7,16.3c-2.3,2.2-14,3-17.2,3.1c-7,0.4-12.1-2.1-12.1-2.1
						C43,75.6,43,58.3,43.7,50.1z"/>
					<path id="ear_1_" class="st4" d="M90.8,58.5c0.5-2.3-0.8-4-2.5-3.8c-1.2,0.1-2.8,1.8-3.2,4c0.7-1.2,2.1-0.8,2.4,0.5
						c0.5,1.7-0.8,4.5-3.7,4.3c3.8,1.2,6.8-3.6,3.8-6.7C87.7,55.7,90.3,55.3,90.8,58.5z"/>
					<path id="shadow_on_face_3_" class="st3" d="M84.6,31c-7.6-3-33.4-7.4-38,1.2c-1.3,6.2-2.1,8.5-2.8,17.8
						C43,58.3,43,75.6,47.9,83.6c0,0,3,1.5,7.6,2c-2-1.6-2.7-11-3.1-13.7c-0.1-2.2,4.3-4.6,4.2-6.1c0,0-5.4,0.7-6.1-2
						c-0.2-0.7,1.7-5.6,3.7-16.1c0.4-5.4-0.8-12.3,2.8-14.3c6.6-3,16.9-5,26,1.6c0-0.1,1.2-1.3,3-2.9C85.6,31.6,85.1,31.2,84.6,31z"
						/>
					<g id="smile_2_">
						<path class="st4" d="M49.2,69.6c-0.4,1.9,4.4,2.1,5.7,2.1c2.5,0.1,8.1-0.6,10.5-1.3c0.9-0.3,1.8-0.9,1.9-1.5
							c0,0,0.9,0.7,0.3,1.2c-0.3,0.3-1.2,0.4-1.5,0.4c-4.9,1.7-9.1,1.7-10.9,1.7c-2.2,0-4.2-0.6-6.1-1.4C48,70.8,48,69.7,49.2,69.6z
							"/>
					</g>
					<g id="nose_2_" class="st5">
						<path class="st4" d="M54.3,46.4c-0.5,2.2-2.7,9.8-3,11.1c-0.3,1.2-2.1,5.7-2,6.2c0.4,1.8,3,2.8,4.6,2.8c0.9,0,1.8,0,2.6-0.3
							c0.1-0.2,0.1-0.3,0.1-0.5c0,0-5.4,0.7-6.1-2c-0.2-0.7,1.7-5.6,3.7-16.1C54.2,47.2,54.3,46.8,54.3,46.4z"/>
					</g>
					<g id="eyes_2_">
						<g>
							<path class="st6" d="M62.1,41.7c2.4-0.9,11.7,2.8,13.7,4.2c-0.3,4-3.5,5.8-4.7,6.1c-2.3,0.4-7.4-0.2-7.4-0.2
								C61.5,49,61.5,43.3,62.1,41.7z"/>
							<g>
								<path class="st7" d="M63.8,51.9L63,50.2c2.8-4.2,9.1-1.6,9.3,0.4C72.4,51.5,71.1,52.9,63.8,51.9z"/>
								<g>
									<circle class="st8" cx="68.5" cy="50.1" r="1.6"/>
								</g>
								<path class="st8" d="M63.1,50.5L63,50.2c2.8-4.2,9.1-1.6,9.3,0.4C68.7,48.1,65,48.4,63.1,50.5z"/>
							</g>
							
								<linearGradient id="SVGID_3_" gradientUnits="userSpaceOnUse" x1="385.7992" y1="44.0162" x2="399.7776" y2="44.0162" gradientTransform="matrix(-0.9907 0.1364 0.1364 0.9907 451.7428 -53.8673)">
								<stop  offset="0" style="stop-color:#4D2F1D"/>
								<stop  offset="0.269" style="stop-color:#492C1C"/>
								<stop  offset="0.6342" style="stop-color:#3D2319"/>
								<stop  offset="1" style="stop-color:#2D1411"/>
							</linearGradient>
							<path class="st9" d="M61.4,41.8C63.2,38.2,75.5,41,76,46c-4.7-1-9.1-2-14.2-1.3C61.6,44.4,61.4,41.8,61.4,41.8z"/>
						</g>
						<g>
							<path class="st6" d="M52.6,43.1c-2.4-0.9-6.1,0.1-8.1,1.6c0,1.5,0.1,6.3,1.2,6.8c3.4,1.5,5.9,0,5.9,0
								C52.9,50.1,53.3,44.7,52.6,43.1z"/>
							<g>
								<path class="st7" d="M51.7,49.2c-2.5-2.4-5.8-0.1-5.8-0.1c-0.4,0.8,0.2,2.2,0.2,2.2c0.9,0.6,4,1.3,5.5,0
									C51.6,51.3,52.2,50,51.7,49.2z"/>
								<g>
									<path class="st8" d="M51.7,49.2c-0.5-0.5-1.1-0.8-1.7-1c-0.7,0.1-1.3,0.8-1.3,1.6c0,0.9,0.7,1.6,1.6,1.6
										c0.9,0,1.6-0.7,1.6-1.5C51.9,49.7,51.8,49.4,51.7,49.2z"/>
								</g>
								<path class="st8" d="M51.7,49.2c-2.5-2.4-5.8-0.1-5.8-0.1c-0.1,0.2-0.1,0.4-0.1,0.7c0.5,0,2.9-2.2,6.1-0.1
									C51.8,49.5,51.8,49.4,51.7,49.2z"/>
							</g>
							
								<linearGradient id="SVGID_4_" gradientUnits="userSpaceOnUse" x1="408.2798" y1="40.9313" x2="417.2925" y2="40.9313" gradientTransform="matrix(-0.9907 0.1364 0.1364 0.9907 451.7428 -53.8673)">
								<stop  offset="0" style="stop-color:#4D2F1D"/>
								<stop  offset="0.269" style="stop-color:#492C1C"/>
								<stop  offset="0.6342" style="stop-color:#3D2319"/>
								<stop  offset="1" style="stop-color:#2D1411"/>
							</linearGradient>
							<path class="st10" d="M44.2,45.5c0.8-5.8,8.1-4.8,8.1-4.8c0.7,0.9,0.6,2.5,0.5,3.7C50.5,45,45.7,45.2,44.2,45.5z"/>
						</g>
					</g>
				</g>
				
					<linearGradient id="hair_4_" gradientUnits="userSpaceOnUse" x1="411.2809" y1="16.3044" x2="395.2799" y2="53.4959" gradientTransform="matrix(-1 0 0 1 472.0917 0)">
					<stop  offset="0" style="stop-color:#4D2F1D"/>
					<stop  offset="0.269" style="stop-color:#492C1C"/>
					<stop  offset="0.6342" style="stop-color:#3D2319"/>
					<stop  offset="1" style="stop-color:#2D1411"/>
				</linearGradient>
				<path id="hair_2_" class="st11" d="M49.6,23.9c2.1-2.4,29.5-7.5,42.3,5.9c1.6,5.4,1.7,15.7-1.2,23.2c-2-0.9-3.6-0.6-3.6-0.6
					c-1.4,0-4.4,8.8-4.4,8.8l-1.8-3.7c0.7-1.6,4.4-8.7,2.9-13.2C91,32.9,69.5,25.7,56.3,33c-7.5-4.7-10.3,0.1-11.2,5.6
					C45.1,35.3,46.5,25.9,49.6,23.9z"/>
				<path id="glasses_1_" class="st12" d="M37.3,46.5L37.3,46.5L37.3,46.5c0,0.2,0,0.4,0.1,0.4c0.7,0.7,1.1,1.4,1.2,2.1
					c0.1,0.9,0.1,4.2,1,5c2.3,1.9,10.4,1.6,11.5,0.9c1.6-1.1,2.4-5.7,3-6.1c0.5-0.3,1.2-0.3,1.5-0.3c0.3,0,1,0,1.4,0.4
					c0.9,0.9,1.9,5.2,3.3,6.5c1.3,1.2,12.6,1.7,15-0.3c0.9-0.7,1.6-3.9,1.8-4.8c0.2-0.7,0.6-1.4,1.4-1.9l8.9,3.8l1.5,0.1l1.3,0.4
					l-11.5-6.6c0,0-15-1.3-19.3-0.5c-0.9,0.2-1.4,1.1-3.8,1c-2.3-0.1-1.8-1.1-2.7-1.4c-4.2-1.3-15.5-0.6-15.5-0.6
					C37.4,45.1,37.3,46,37.3,46.5z M59.7,47.5c1.5-1.6,15-0.2,15.3,0c1.1,0.8,0.1,5.7-0.8,6.9c-0.7,0.9-8.9,1.3-12.4,0.2
					C60.6,54.1,58.1,49.3,59.7,47.5z M40.4,47.1l3.6,0.6l0.1-1.4l-1-0.3c2.9-0.3,7.7-0.5,8.6,0.8c1.4,2-0.2,6.7-2.1,7.1
					c-3.6,0.6-8.6-0.2-9.1-1.1C39.8,51.7,39.7,48.6,40.4,47.1z"/>
			</g>
			<g id="t-shirt_7_">
				<path id="t-shirt_8_" d="M33.2,149.8c0,0-10.7,0-14.4-2c1.2-8.6,3.7-34.1,6.4-36.9c1.9-2,19.3-10.4,19.8-11.4l-0.2-0.7
					c1.7-0.8,3.7-1.6,4.4-2c1.2,5.7,18.9,11.6,34.3-0.3c0.7,0.4,2.6,1.1,4.1,1.7l-0.1,0.7c7.6,3.2,20.2,8.5,22.2,10.9
					c3.5,4.1,7.3,35.9,7.4,41.9c-6,1.4-14.7,3.9-20.5,3c-0.1,0.1,2.6,6.9,2.6,14.5c0.1,13.4-2.6,33.9-3.9,34.9
					c-1.5,1.1-28.7,3.6-37.5,3.6c-15.2,0.1-23.8-3.1-25.9-7.8C31.5,198.7,32.1,153.1,33.2,149.8z"/>
				<g id="shadows_3_">
					<path class="st20" d="M87.6,200.1c1.9-1.9-10.6,1-8.8-1.7c1.5-2.3,12.8-7,10.4-12.5c-8.1,4.4-13.7,7.5-14.8,6.6
						c0-1.2,17.3-11.1,18.6-24.6c1.5-15.2-3.1-39.2,4-57.5c-3.6,13.7-0.8,36.2,0.7,37.8c1.7,1.8,8.9,3.9,19.4,3.5
						c-6,1.4-14.7,3.9-20.5,3c-0.1,0.1,2.6,6.9,2.6,14.5c0.1,13.4-2.6,33.9-3.9,34.9c-1.2,0.9-19.5,2.7-31,3.4
						C79,205.6,86.4,201.3,87.6,200.1z"/>
					<path class="st20" d="M32.3,117.4c-0.2,18.9,1.2,23.9,3.8,30.4c-0.4,7.2,1,12.3,2.5,16c3.5,8.6,6.7,11.8,6.3,13.1
						c-0.3,1.1-6.6-5.1-7.2-4.4c-4.4,4.5-1.6,20.9,4.4,27.2c7,7.3-3.9-0.2-4.6,1.5c-0.8,2.1,1.2,4.6,15.3,6.6
						c-12.2-0.6-19.2-3.5-21-7.7c-0.3-1.1,0.2-37,1.1-47.5c0.3-1,0.6-1.9,0.4-2.6C30.9,141.8,31.2,122,32.3,117.4z"/>
				</g>
			</g>
		</g>
		<polygon class="st12" points="62,113.8 67.4,124.8 79.5,126.5 70.8,135.1 72.8,147.1 62,141.4 51.2,147.1 53.2,135.1 44.5,126.5 
			56.6,124.8 		"/>
	</g>
</g>
</svg>
